<svg xmlns="http://www.w3.org/2000/svg" xmlns:xlink="http://www.w3.org/1999/xlink" id="Layer_1" x="0px" y="0px" width="444px" height="444px" viewBox="0 0 444 444" xml:space="preserve">
<g>
	<g>
		<path fill="#1A1A1A" d="M353.876,353.875c-3.906,3.906-10.238,3.906-14.143,0L90.124,104.267c-3.904-3.905-3.904-10.237,0-14.143    c3.905-3.905,10.237-3.905,14.143,0l249.608,249.608C357.78,343.639,357.78,349.971,353.876,353.875z"></path>
	</g>
	<g>
		<path fill="#1A1A1A" d="M353.875,104.267L104.267,353.875c-3.905,3.905-10.237,3.905-14.143,0c-3.904-3.904-3.904-10.236,0-14.143    L339.733,90.125c3.904-3.905,10.236-3.905,14.143,0C357.78,94.029,357.78,100.361,353.875,104.267z"></path>
	</g>
</g>
</svg>