<svg xmlns="http://www.w3.org/2000/svg" viewBox="0 0 140.61 140.61"><defs><style>.cls-1{fill:#ff5fab;}</style></defs><g id="레이어_2" data-name="레이어 2"><g id="레이어_1-2" data-name="레이어 1"><path class="cls-1" d="M70.31,140.61A70.31,70.31,0,0,1,70.29,0h0a70.38,70.38,0,0,1,70.3,70.29h0a70.39,70.39,0,0,1-70.29,70.32ZM70.31,5h0a65.31,65.31,0,0,0,0,130.61h0a65.38,65.38,0,0,0,65.29-65.32h0A65.37,65.37,0,0,0,70.31,5Z"/><path class="cls-1" d="M70.31,114A43.68,43.68,0,1,1,114,70.31,43.72,43.72,0,0,1,70.31,114Zm0-85.88a42.21,42.21,0,1,0,42.2,42.21A42.26,42.26,0,0,0,70.31,28.1Z"/><path class="cls-1" d="M56.71,87.19a13.5,13.5,0,1,1,5.66-1.25A13.44,13.44,0,0,1,56.71,87.19Zm0-25.53A12,12,0,0,0,52.56,85,12,12,0,0,0,68,77.83h0A12,12,0,0,0,60.85,62.4,11.79,11.79,0,0,0,56.71,61.66Z"/><path class="cls-1" d="M85.71,69.78A11.18,11.18,0,1,1,96.89,58.6,11.19,11.19,0,0,1,85.71,69.78Zm0-20.89a9.71,9.71,0,1,0,9.71,9.71A9.73,9.73,0,0,0,85.71,48.89Z"/><path class="cls-1" d="M74.11,100a6.54,6.54,0,1,1,6.53-6.53A6.54,6.54,0,0,1,74.11,100Zm0-11.6a5.07,5.07,0,1,0,5.06,5.07A5.07,5.07,0,0,0,74.11,88.35Z"/><path class="cls-1" d="M81.07,83.71a4.22,4.22,0,1,1,4.22-4.22A4.23,4.23,0,0,1,81.07,83.71Zm0-7a2.75,2.75,0,1,0,2.75,2.75A2.76,2.76,0,0,0,81.07,76.74Z"/><path class="cls-1" d="M54.38,53.54a3.06,3.06,0,1,1,3.06-3.06A3.07,3.07,0,0,1,54.38,53.54Zm0-4.65A1.59,1.59,0,1,0,56,50.48,1.59,1.59,0,0,0,54.38,48.89Z"/><path class="cls-1" d="M96.16,83.71a3.06,3.06,0,1,1,3-3.06A3.06,3.06,0,0,1,96.16,83.71Zm0-4.65a1.59,1.59,0,1,0,1.58,1.59A1.59,1.59,0,0,0,96.16,79.06Z"/></g></g></svg>