<svg xmlns="http://www.w3.org/2000/svg" xmlns:xlink="http://www.w3.org/1999/xlink" id="&#xB808;&#xC774;&#xC5B4;_1" x="0px" y="0px" viewBox="0 0 198 198" style="enable-background:new 0 0 198 198;" xml:space="preserve">
<style type="text/css">
	.st0{fill:none;stroke:#FF5FAB;stroke-width:5;stroke-miterlimit:10;}
	.st1{fill:#FF5FAB;}
</style>
<g id="&#xB808;&#xC774;&#xC5B4;_1-2">
	<circle class="st0" cx="99" cy="99" r="96.5"></circle>
	<path class="st1" d="M92.4,142.2c-18.8-3.2-32.5-19.5-32.4-38.5c0-0.5-0.4-0.9-0.9-0.9c-0.5,0-0.9,0.4-0.9,0.9l0,0   c-0.1,20,14.3,37,34,40.4h0.2c0.5,0,0.8-0.3,0.9-0.8C93.2,142.7,92.9,142.2,92.4,142.2z"></path>
	<path class="st1" d="M99,142.7c-1.1,0-2.2-0.1-3.3-0.1c-0.5,0-1,0.3-1,0.9s0.3,1,0.9,1c1.1,0.1,2.3,0.1,3.5,0.1   c0.5,0,0.9-0.4,0.9-0.9S99.5,142.7,99,142.7z"></path>
	<path class="st1" d="M128.1,66.1H125c20.8,14.3,26,42.8,11.7,63.6s-42.8,26-63.6,11.7s-26-42.8-11.7-63.6   c3.2-4.6,7.1-8.5,11.7-11.7h-3.2c-20.8,16.1-24.7,46-8.6,66.8s46,24.7,66.8,8.6s24.7-46,8.6-66.8C134.2,71.4,131.3,68.5,128.1,66.1   z"></path>
	<path class="st1" d="M62,103.6c0,20.4,16.6,37,37,37s37-16.6,37-37s-16.6-37-37-37S62,83.2,62,103.6z M134.1,103.6   c0,19.4-15.7,35.1-35.1,35.1c-19.4,0-35.1-15.7-35.1-35.1S79.6,68.6,99,68.6c0,0,0,0,0,0C118.4,68.6,134.1,84.3,134.1,103.6   L134.1,103.6z"></path>
	<path class="st1" d="M76.3,64c-1.1,0.6-2.2,1.3-3.2,2H125c-1-0.7-2.1-1.4-3.2-2H76.3z"></path>
	<path class="st1" d="M65.9,64c-4.7,0-8.4-3.4-8.4-7.6s3.8-7.6,8.4-7.6h66.3c4.6,0,8.4,3.4,8.4,7.6s-3.8,7.6-8.4,7.6h-6.8   c1,0.6,1.9,1.3,2.8,2h4c5.9,0,10.7-4.3,10.7-9.6s-4.8-9.6-10.7-9.6H65.9c-5.9,0-10.7,4.4-10.7,9.7s4.8,9.6,10.7,9.6h4   c0.9-0.7,1.8-1.4,2.8-2L65.9,64z"></path>
	<path class="st1" d="M121.7,64c1.1,0.6,2.2,1.3,3.2,2h3.1c-0.9-0.7-1.8-1.4-2.8-2H121.7z"></path>
	<path class="st1" d="M76.3,64h-3.6c-1,0.6-1.9,1.3-2.8,2h3.1C74.1,65.3,75.2,64.7,76.3,64z"></path>
</g>
</svg>