<svg xmlns="http://www.w3.org/2000/svg" viewBox="0 0 134.61 134.61"><defs><style>.cls-1{fill:#ff5fab;}</style></defs><g id="레이어_2" data-name="레이어 2"><g id="레이어_1-2" data-name="레이어 1"><path class="cls-1" d="M67.31,134.61A67.31,67.31,0,0,1,67.29,0h0a67.29,67.29,0,0,1,67.3,67.29h0a67.38,67.38,0,0,1-67.29,67.32ZM67.31,5h0a62.31,62.31,0,0,0,0,124.61h0a62.37,62.37,0,0,0,62.29-62.32h0A62.31,62.31,0,0,0,67.31,5Z"/><path class="cls-1" d="M62.85,96.28A26.16,26.16,0,0,1,41.07,70.42a.64.64,0,0,0-.63-.64.64.64,0,0,0-.64.64,27.42,27.42,0,0,0,22.84,27.1h.1a.63.63,0,0,0,.11-1.25Z"/><path class="cls-1" d="M67.31,96.65c-.74,0-1.49,0-2.22-.09a.63.63,0,1,0-.1,1.26c.76.07,1.54.1,2.32.1a.63.63,0,0,0,.63-.63A.64.64,0,0,0,67.31,96.65Z"/><path class="cls-1" d="M86.84,45.17H84.73a30.7,30.7,0,1,1-34.85,0H47.77a32,32,0,1,0,39.07,0Z"/><path class="cls-1" d="M42.48,70.42A24.83,24.83,0,1,0,67.31,45.59,24.86,24.86,0,0,0,42.48,70.42Zm48.38,0A23.56,23.56,0,1,1,67.31,46.86,23.57,23.57,0,0,1,90.86,70.42Z"/><path class="cls-1" d="M52.06,43.81c-.74.43-1.47.88-2.18,1.36H84.73c-.7-.48-1.43-.93-2.18-1.36Z"/><path class="cls-1" d="M45.05,43.81A5.4,5.4,0,0,1,39.4,38.7a5.4,5.4,0,0,1,5.65-5.1H89.56a5.41,5.41,0,0,1,5.66,5.1,5.41,5.41,0,0,1-5.66,5.11H85c.64.43,1.24.89,1.85,1.36h2.72c4,0,7.17-2.9,7.17-6.47s-3.22-6.47-7.17-6.47H45.05c-3.95,0-7.16,2.91-7.16,6.47s3.21,6.47,7.16,6.47h2.72c.61-.47,1.22-.93,1.86-1.36Z"/><path class="cls-1" d="M82.55,43.81c.75.43,1.48.88,2.18,1.36h2.11c-.61-.47-1.21-.93-1.85-1.36Z"/><path class="cls-1" d="M52.06,43.81H49.63c-.64.43-1.25.89-1.86,1.36h2.11C50.59,44.69,51.32,44.24,52.06,43.81Z"/></g></g></svg>