<svg xmlns="http://www.w3.org/2000/svg" viewBox="0 0 134.61 134.61"><defs><style>.cls-1{fill:#ff5fab;}</style></defs><g id="레이어_2" data-name="레이어 2"><g id="레이어_1-2" data-name="레이어 1"><path class="cls-1" d="M67.31,134.61A67.31,67.31,0,0,1,67.29,0h0a67.31,67.31,0,0,1,0,134.61ZM67.31,5h0a62.31,62.31,0,1,0,0,124.61h0A62.31,62.31,0,0,0,67.31,5Z"/><path class="cls-1" d="M91.35,102.38H41.53a3.45,3.45,0,0,1-3.45-3.44V49.35a3.45,3.45,0,0,1,3.45-3.44H91.35a3.44,3.44,0,0,1,3.44,3.44V98.94A3.45,3.45,0,0,1,91.35,102.38Zm-49.82-55a2,2,0,0,0-2,2V98.94a2,2,0,0,0,2,2H91.35a2,2,0,0,0,2-2V49.35a2,2,0,0,0-2-2Z"/><path class="cls-1" d="M77.47,47.34H55.4a.71.71,0,0,1-.72-.71V37a2.82,2.82,0,0,1,2.81-2.82H75.41A2.79,2.79,0,0,1,78.19,37v9.66A.71.71,0,0,1,77.47,47.34ZM56.12,45.91H76.76V37a1.35,1.35,0,0,0-1.35-1.35H57.49A1.37,1.37,0,0,0,56.12,37Z"/><path class="cls-1" d="M42.91,98.25a.72.72,0,0,1-.72-.72V83a.72.72,0,1,1,1.44,0V97.53A.72.72,0,0,1,42.91,98.25Z"/><path class="cls-1" d="M42.91,81.2a.72.72,0,0,1-.72-.72V78.87a.72.72,0,1,1,1.44,0v1.61A.72.72,0,0,1,42.91,81.2Z"/><path class="cls-1" d="M42.91,77a.72.72,0,0,1-.72-.72V50.87a.72.72,0,0,1,1.44,0V76.24A.72.72,0,0,1,42.91,77Z"/><path class="cls-1" d="M58.85,44.41a.71.71,0,0,1-.71-.71V38.31a.72.72,0,1,1,1.43,0V43.7A.71.71,0,0,1,58.85,44.41Z"/><path class="cls-1" d="M75.79,69.18a4.55,4.55,0,0,1-2.71-.83,3.49,3.49,0,0,0-3.94,0,4.52,4.52,0,0,1-2.71.83,4.58,4.58,0,0,1-2.72-.83,3.45,3.45,0,0,0-3.92,0,4.86,4.86,0,0,1-5.43,0,3.23,3.23,0,0,0-2-.61.72.72,0,0,1,0-1.43,4.56,4.56,0,0,1,2.72.82,3.47,3.47,0,0,0,3.93,0,4.9,4.9,0,0,1,5.43,0,3.45,3.45,0,0,0,3.92,0,4.92,4.92,0,0,1,5.44,0,3.47,3.47,0,0,0,3.93,0,4.59,4.59,0,0,1,2.72-.82.72.72,0,1,1,0,1.43,3.23,3.23,0,0,0-2,.61A4.56,4.56,0,0,1,75.79,69.18Z"/><path class="cls-1" d="M75.79,74.92a4.62,4.62,0,0,1-2.71-.82,3.49,3.49,0,0,0-3.94,0,4.6,4.6,0,0,1-2.71.82,4.66,4.66,0,0,1-2.72-.82,3.45,3.45,0,0,0-3.92,0,4.9,4.9,0,0,1-5.43,0,3.23,3.23,0,0,0-2-.61.72.72,0,0,1,0-1.44,4.63,4.63,0,0,1,2.72.82,3.42,3.42,0,0,0,3.93,0,4.9,4.9,0,0,1,5.43,0,3.41,3.41,0,0,0,3.92,0,4.92,4.92,0,0,1,5.44,0,3.42,3.42,0,0,0,3.93,0,4.66,4.66,0,0,1,2.72-.82.72.72,0,0,1,0,1.44,3.23,3.23,0,0,0-2,.61A4.63,4.63,0,0,1,75.79,74.92Z"/><path class="cls-1" d="M75.79,80.66a4.55,4.55,0,0,1-2.71-.82,3.49,3.49,0,0,0-3.94,0,4.53,4.53,0,0,1-2.71.82,4.59,4.59,0,0,1-2.72-.82,3.45,3.45,0,0,0-3.92,0,4.9,4.9,0,0,1-5.43,0,3.23,3.23,0,0,0-2-.61.72.72,0,0,1,0-1.44,4.56,4.56,0,0,1,2.72.83,3.47,3.47,0,0,0,3.93,0,4.86,4.86,0,0,1,5.43,0,3.45,3.45,0,0,0,3.92,0,4.87,4.87,0,0,1,5.44,0,3.47,3.47,0,0,0,3.93,0,4.58,4.58,0,0,1,2.72-.83.72.72,0,0,1,0,1.44,3.23,3.23,0,0,0-2,.61A4.56,4.56,0,0,1,75.79,80.66Z"/></g></g></svg>