<svg xmlns="http://www.w3.org/2000/svg" viewBox="0 0 198 198"><defs><style>.cls-1{fill:none;stroke:#ff5fab;stroke-miterlimit:10;stroke-width:5px;}.cls-2{fill:#ff5fab;}</style></defs><g id="레이어_2" data-name="레이어 2"><g id="레이어_1-2" data-name="레이어 1"><circle class="cls-1" cx="99" cy="99" r="96.5" transform="translate(-41.01 99) rotate(-45)"/><path class="cls-2" d="M99,161.15A62.15,62.15,0,1,1,161.15,99,62.22,62.22,0,0,1,99,161.15ZM99,38.94A60.06,60.06,0,1,0,159.06,99,60.12,60.12,0,0,0,99,38.94Z"/><path class="cls-2" d="M79.65,123a19.22,19.22,0,1,1,6.61-37.26A19.22,19.22,0,0,1,79.65,123Zm0-36.35a17.12,17.12,0,1,0,16,23h0a17.12,17.12,0,0,0-16-23Z"/><path class="cls-2" d="M120.93,98.25a15.91,15.91,0,1,1,15.91-15.91A15.92,15.92,0,0,1,120.93,98.25Zm0-29.72a13.82,13.82,0,1,0,13.81,13.81A13.83,13.83,0,0,0,120.93,68.53Z"/><path class="cls-2" d="M104.41,141.19a9.3,9.3,0,1,1,9.31-9.3A9.31,9.31,0,0,1,104.41,141.19Zm0-16.51a7.21,7.21,0,1,0,7.21,7.21A7.21,7.21,0,0,0,104.41,124.68Z"/><path class="cls-2" d="M114.32,118.07a6,6,0,1,1,6-6A6,6,0,0,1,114.32,118.07Zm0-9.91a3.91,3.91,0,1,0,3.91,3.91A3.92,3.92,0,0,0,114.32,108.16Z"/><path class="cls-2" d="M76.34,75.13a4.35,4.35,0,1,1,4.34-4.35A4.35,4.35,0,0,1,76.34,75.13Zm0-6.6a2.26,2.26,0,1,0,2.25,2.25A2.26,2.26,0,0,0,76.34,68.53Z"/><path class="cls-2" d="M135.79,118.07a4.35,4.35,0,1,1,4.35-4.35A4.35,4.35,0,0,1,135.79,118.07Zm0-6.6a2.26,2.26,0,1,0,2.26,2.25A2.26,2.26,0,0,0,135.79,111.47Z"/></g></g></svg>