<svg xmlns="http://www.w3.org/2000/svg" viewBox="0 0 198 198"><defs><style>.cls-1{fill:none;stroke:#ff5fab;stroke-miterlimit:10;stroke-width:5px;}.cls-2{fill:#ff5fab;}</style></defs><g id="레이어_2" data-name="레이어 2"><g id="레이어_1-2" data-name="레이어 1"><circle class="cls-1" cx="99" cy="99" r="96.49"/><path class="cls-2" d="M99.31,141a42.42,42.42,0,1,1,9.81-1.15A42.54,42.54,0,0,1,99.31,141Zm.16-82.63a40.55,40.55,0,0,0-9.32,1.09,40.26,40.26,0,1,0,48.42,29.93h0a40.3,40.3,0,0,0-39.1-31Z"/><path class="cls-2" d="M99.71,57a1,1,0,0,1-1-1V36.23a1,1,0,1,1,2.09,0V55.92A1,1,0,0,1,99.71,57Z"/><path class="cls-2" d="M78.78,62.57a1,1,0,0,1-.9-.52L68,45a1,1,0,0,1,.38-1.43,1.06,1.06,0,0,1,1.43.39l9.85,17a1,1,0,0,1-.38,1.43A1,1,0,0,1,78.78,62.57Z"/><path class="cls-2" d="M63.46,77.89a1,1,0,0,1-.52-.14l-17-9.85a1,1,0,1,1,1-1.81L64,75.94a1,1,0,0,1-.53,2Z"/><path class="cls-2" d="M57.86,98.82H38.16a1.05,1.05,0,0,1,0-2.1h19.7a1.05,1.05,0,0,1,0,2.1Z"/><path class="cls-2" d="M46.41,129.59a1,1,0,0,1-.52-2l17-9.84A1,1,0,1,1,64,119.6l-17.06,9.85A1.07,1.07,0,0,1,46.41,129.59Z"/><path class="cls-2" d="M68.93,154.58a1.13,1.13,0,0,1-.52-.14A1,1,0,0,1,68,153L77.88,136A1,1,0,1,1,79.69,137l-9.85,17.05A1,1,0,0,1,68.93,154.58Z"/><path class="cls-2" d="M99.71,162.82a1,1,0,0,1-1-1V142.08a1,1,0,1,1,2.09,0v19.69A1,1,0,0,1,99.71,162.82Z"/><path class="cls-2" d="M130.48,152.11a1,1,0,0,1-.91-.52l-9.84-17.05a1,1,0,0,1,1.81-1l9.85,17A1.06,1.06,0,0,1,131,152,1,1,0,0,1,130.48,152.11Z"/><path class="cls-2" d="M153,129.59a1.13,1.13,0,0,1-.53-.14l-17-9.85a1.06,1.06,0,0,1-.39-1.43,1,1,0,0,1,1.43-.38l17.06,9.84a1,1,0,0,1,.38,1.43A1,1,0,0,1,153,129.59Z"/><path class="cls-2" d="M161.25,98.82H141.56a1,1,0,0,1,0-2.1h19.69a1.05,1.05,0,1,1,0,2.1Z"/><path class="cls-2" d="M136,77.89a1.07,1.07,0,0,1-.91-.52,1.06,1.06,0,0,1,.39-1.43l17-9.85a1,1,0,1,1,1.05,1.81l-17.06,9.85A1,1,0,0,1,136,77.89Z"/><path class="cls-2" d="M120.63,62.57a1,1,0,0,1-.52-.14,1,1,0,0,1-.38-1.43l9.84-17a1,1,0,1,1,1.82,1l-9.85,17.06A1.07,1.07,0,0,1,120.63,62.57Z"/></g></g></svg>