<svg xmlns="http://www.w3.org/2000/svg" viewBox="0 0 198 198"><defs><style>.cls-1{fill:none;stroke:#ff5fab;stroke-miterlimit:10;stroke-width:5px;}.cls-2{fill:#ff5fab;}</style></defs><g id="레이어_2" data-name="레이어 2"><g id="레이어_1-2" data-name="레이어 1"><circle class="cls-1" cx="99" cy="99" r="96.5" transform="translate(-41.01 99) rotate(-45)"/><path class="cls-2" d="M122,150.75a31.89,31.89,0,0,1-23.63-10.56l-.63-.69.63-.7A29.7,29.7,0,0,0,106,119a86.67,86.67,0,0,0-7.79-38.1L98,80.42l.2-.42A126.13,126.13,0,0,1,119,48.63a4.12,4.12,0,0,1,3-1.38,4.06,4.06,0,0,1,3,1.29h0c7,7.52,29.93,34.81,28.74,70.43A31.84,31.84,0,0,1,122,150.75Zm-21.44-11.28a29.69,29.69,0,0,0,51.16-20.54c1.16-34.84-21.27-61.59-28.17-69h0a1.83,1.83,0,0,0-1.49-.62,2,2,0,0,0-1.48.67A124.33,124.33,0,0,0,100.3,80.44,88.56,88.56,0,0,1,108.07,119,31.73,31.73,0,0,1,100.54,139.47Z"/><path class="cls-2" d="M76.22,150.81A31.89,31.89,0,0,1,44.37,119c0-.17-4.37-33,28.87-70.38a4.08,4.08,0,0,1,3-1.37,4,4,0,0,1,3,1.28A117.69,117.69,0,0,1,100.11,80l-1.92.84A115.36,115.36,0,0,0,77.77,49.92a1.91,1.91,0,0,0-1.48-.63A2,2,0,0,0,74.8,50C42.25,86.6,46.4,118.49,46.45,118.8a29.74,29.74,0,0,0,51.9,20l1.56,1.39A31.88,31.88,0,0,1,76.22,150.81Z"/><path class="cls-2" d="M76.22,136.47a16,16,0,0,1-16-16V119.3h2.09v1.15a13.93,13.93,0,0,0,27.86,0v-.55l2.1,0v.53A16,16,0,0,1,76.22,136.47Z"/><path class="cls-2" d="M61.25,114.4a5.33,5.33,0,1,1,5.33-5.33A5.33,5.33,0,0,1,61.25,114.4Zm0-8.56a3.24,3.24,0,1,0,3.23,3.23A3.24,3.24,0,0,0,61.25,105.84Z"/></g></g></svg>