<svg xmlns="http://www.w3.org/2000/svg" viewBox="0 0 198 198"><defs><style>.cls-1{fill:none;stroke:#ff5fab;stroke-miterlimit:10;stroke-width:5px;}.cls-2{fill:#ff5fab;}</style></defs><g id="레이어_2" data-name="레이어 2"><g id="레이어_1-2" data-name="레이어 1"><circle class="cls-1" cx="99" cy="99" r="96.5" transform="translate(-41.01 99) rotate(-45)"/><path class="cls-2" d="M99,161.56a1.12,1.12,0,0,1-.47-.11c-50.66-25.33-51.25-87.18-51.25-87.8a1.06,1.06,0,0,1,.92-1c.29,0,28.76-4,49.93-35.73a1.09,1.09,0,0,1,1.74,0c21.21,31.8,49.65,35.7,49.93,35.73a1.06,1.06,0,0,1,.92,1c0,.62-.59,62.47-51.25,87.8A1.12,1.12,0,0,1,99,161.56Zm-49.6-87c.27,7.56,3.83,61.57,49.6,84.81,45.77-23.24,49.33-77.25,49.6-84.81-5.13-1-30.18-7-49.6-35.21C79.58,67.53,54.53,73.57,49.4,74.53Z"/><path class="cls-2" d="M114.8,99.2H83.2a1,1,0,0,1,0-2.09h31.6a1,1,0,0,1,0,2.09Z"/><path class="cls-2" d="M99,115a1,1,0,0,1-1-1V82.36a1,1,0,0,1,2.1,0V114A1,1,0,0,1,99,115Z"/></g></g></svg>