<svg xmlns="http://www.w3.org/2000/svg" viewBox="0 0 198 198"><defs><style>.cls-1{fill:none;stroke:#ff5fab;stroke-miterlimit:10;stroke-width:5px;}.cls-2{fill:#ff5fab;}</style></defs><g id="레이어_2" data-name="레이어 2"><g id="레이어_1-2" data-name="레이어 1"><circle class="cls-1" cx="99" cy="99" r="96.5"/><path class="cls-2" d="M99,161.15A62.15,62.15,0,1,1,161.15,99,62.22,62.22,0,0,1,99,161.15ZM99,38.94A60.06,60.06,0,1,0,159.06,99,60.12,60.12,0,0,0,99,38.94Z"/><path class="cls-2" d="M88,109.82a1.06,1.06,0,0,1-1.05-1l-.1-18.44L70.34,104.22a1,1,0,0,1-1.18.12,1.06,1.06,0,0,1-.53-1.07l3-20.79L52.15,95.57a1,1,0,0,1-1.5-.36l-9-16.38a1,1,0,1,1,1.83-1L51.93,93.2,72.38,79.43a1,1,0,0,1,1.62,1l-2.91,20.41L87.22,87.29a1,1,0,0,1,1.72.8l.12,20.67a1.06,1.06,0,0,1-1,1.06Z"/><path class="cls-2" d="M110.53,138.87a1,1,0,0,1-.87-.47L98.43,121a1,1,0,1,1,1.75-1.14l10,15.49,6.44-20.61a1.05,1.05,0,0,1,.94-.73,1,1,0,0,1,1,.61l8.7,19.12,9.34-21.51a1,1,0,0,1,.62-.57,1.07,1.07,0,0,1,.84.07l16.39,9a1,1,0,1,1-1,1.84l-15.39-8.41-9.82,22.61a1,1,0,0,1-1,.63,1.18,1.18,0,0,1-1-.61L117.82,118l-6.29,20.12a1,1,0,0,1-.85.72Z"/><path class="cls-2" d="M112.21,94.44a1,1,0,0,1-.85-.43L99.22,77.27A1,1,0,1,1,100.91,76L111.74,91l5.33-20.92a1.06,1.06,0,0,1,.9-.78,1,1,0,0,1,1,.55l9.7,18.63,8.18-22a1,1,0,0,1,.59-.61,1,1,0,0,1,.84,0L155.18,74a1.05,1.05,0,0,1,.49,1.4,1,1,0,0,1-1.39.49l-15.82-7.58-8.6,23.1a1,1,0,0,1-1.91.12l-9.52-18.28-5.21,20.42a1,1,0,0,1-.82.77A.62.62,0,0,1,112.21,94.44Z"/></g></g></svg>