<svg xmlns="http://www.w3.org/2000/svg" viewBox="0 0 198 198"><defs><style>.cls-1{fill:none;stroke:#ff5fab;stroke-miterlimit:10;stroke-width:5px;}.cls-2{fill:#ff5fab;}</style></defs><g id="레이어_2" data-name="레이어 2"><g id="레이어_1-2" data-name="레이어 1"><circle class="cls-1" cx="99" cy="99" r="96.5"/><path class="cls-2" d="M62.08,156.24a1,1,0,0,1-.81-.39c-46.89-57-.07-99.76.4-100.19a1.05,1.05,0,0,1,1.75.78V152.8c-.05.47-.1.81-.14,1.16s-.11.87-.16,1.33a1,1,0,0,1-.73.9A1.18,1.18,0,0,1,62.08,156.24Zm-.76-97.33c-8,8.23-38.58,44.87,0,93.68V125.2l0,0L42.86,106.74a1,1,0,0,1,0-1.48,1,1,0,0,1,1.48,0l17,17V96s0,0,0,0L48,82.67a1.05,1.05,0,0,1-.31-.74,1.07,1.07,0,0,1,.31-.74,1,1,0,0,1,1.48,0L61.32,93.05Z"/><path class="cls-2" d="M62.36,156.6a1,1,0,0,1-.73-.3,1.18,1.18,0,0,1-.27-.74h0a.94.94,0,0,1,.08-.41,1,1,0,0,1,.92-.65h0a1,1,0,0,1,.4,2A1.15,1.15,0,0,1,62.36,156.6Z"/><path class="cls-2" d="M62.37,125.48a1.09,1.09,0,0,1-.4-.07,1.07,1.07,0,0,1-.65-1v-68a1.06,1.06,0,0,1,.68-1,1,1,0,0,1,1.15.29c11.41,12.9,18.15,26.69,20,41a1.13,1.13,0,0,1-.19.76A93.5,93.5,0,0,0,72.88,115.3a1.19,1.19,0,0,1-.22.33l-9.55,9.55A1,1,0,0,1,62.37,125.48Zm1.05-29.8v26.23L71,114.29a94.71,94.71,0,0,1,10-17.67c-1.8-13-7.73-25.52-17.64-37.36V92.72L75,81.19a1,1,0,0,1,1.78.74,1,1,0,0,1-.31.74Z"/><path class="cls-2" d="M62.37,153.84h-.06a1,1,0,0,1-1-1V124.44a1,1,0,0,1,.31-.74l9.55-9.55a1,1,0,0,1,1.7,1.15c-4.74,10.91-7.92,23.56-9.47,37.61A1,1,0,0,1,62.37,153.84Zm1.05-29v14.22A125.27,125.27,0,0,1,69,119.27Z"/><path class="cls-2" d="M62.37,156.6a1.09,1.09,0,0,1-.39-.08,1,1,0,0,1-.66-1h0a1.05,1.05,0,0,1,2-.41,1.07,1.07,0,0,1-.2,1.13A1.1,1.1,0,0,1,62.37,156.6Z"/><path class="cls-2" d="M90.16,128.48a1,1,0,0,1-.74-.3,1.19,1.19,0,0,1-.15-.18,1,1,0,0,1-.48-.88V90.41A81.43,81.43,0,0,0,83,97.51a1.05,1.05,0,0,1-1.7-1.24C109.37,57.76,156.11,60,156.58,60a1,1,0,0,1,.92.68,1,1,0,0,1-.24,1.11L90.9,128.18A1.08,1.08,0,0,1,90.16,128.48Zm.72-38.8v35.55l25.85-25.84a.58.58,0,0,1,0-.19V70.42A83.84,83.84,0,0,0,90.34,88.76,1.05,1.05,0,0,1,90.88,89.68ZM118.8,70.32v27L154,62.09a98.4,98.4,0,0,0-35.48,7.54A1.05,1.05,0,0,1,118.8,70.32Z"/><path class="cls-2" d="M128.92,128.48H90.16a1,1,0,0,1-1-.64,1,1,0,0,1,.23-1.14l27.91-27.92h0l38.45-38.45a1.05,1.05,0,0,1,1.79.8c-1.72,28-11.12,50.55-27.91,67.05A1,1,0,0,1,128.92,128.48Zm-36.24-2.09h35.81a85.3,85.3,0,0,0,17.8-25.82H118.51ZM120.6,98.47h25.67a1.06,1.06,0,0,1,.78.35,112.21,112.21,0,0,0,8.23-35Z"/><path class="cls-2" d="M62.38,156.59a1,1,0,0,1-.75-1.77s.87-.92,2.16-2.48l.06-.08L89.42,126.7a1,1,0,0,1,.74-.31h38.76a1,1,0,0,1,.74,1.79c-26.74,26.26-63.18,28.27-67.24,28.41Zm3-2.89-.54.65c9.15-.71,38.5-4.62,61.48-25.87H90.59Z"/><path class="cls-2" d="M62,156.6a1,1,0,0,1-.74-1.78l.18-.19a1,1,0,0,1,.79-.3,1,1,0,0,1,.76.38,1.24,1.24,0,0,1,.22,1.18,1,1,0,0,1-.85.7H62Z"/><path class="cls-2" d="M62,156.6a1.13,1.13,0,0,1-.45-.09,1.06,1.06,0,0,1-.6-1,1.81,1.81,0,0,0,0-.23,1.2,1.2,0,0,1,.76-1,1,1,0,0,1,1.11.25l.09.12a1.17,1.17,0,0,1,0,1.47l-.18.19A1.06,1.06,0,0,1,62,156.6Z"/><path class="cls-2" d="M62.37,156.59a1.08,1.08,0,0,1-.82-.38,1.3,1.3,0,0,1-.07-1.58,1.21,1.21,0,0,1,1.22-.3,1,1,0,0,1,.72.89v.33A1,1,0,0,1,62.37,156.59Z"/><path class="cls-2" d="M62.22,156.42h0a1.06,1.06,0,0,1-.75-.38l-.15-.19a1,1,0,0,1-.23-.76c0-.48.1-.94.16-1.4l.13-1a1,1,0,0,1,2.09.12v2.42a1,1,0,0,1-.31.74l-.15.15A1,1,0,0,1,62.22,156.42Zm.15-1.2h0Z"/><path class="cls-2" d="M62.38,156.59a1,1,0,0,1-1.06-1v-.33a1.05,1.05,0,0,1,.31-.74l2.22-2.22a1,1,0,0,1,1.55,1.4c-1.38,1.69-2.26,2.61-2.27,2.61A1,1,0,0,1,62.38,156.59Z"/></g></g></svg>