<svg xmlns="http://www.w3.org/2000/svg" viewBox="0 0 198 198"><defs><style>.cls-1{fill:none;stroke:#ff5fab;stroke-miterlimit:10;stroke-width:5px;}.cls-2{fill:#ff5fab;}</style></defs><g id="레이어_2" data-name="레이어 2"><g id="레이어_1-2" data-name="레이어 1"><circle class="cls-1" cx="99" cy="99" r="96.5" transform="translate(-41.01 99) rotate(-45)"/><path class="cls-2" d="M99,159.68A60.68,60.68,0,1,1,159.68,99,60.75,60.75,0,0,1,99,159.68ZM99,40.41A58.59,58.59,0,1,0,157.59,99,58.65,58.65,0,0,0,99,40.41Z"/><path class="cls-2" d="M132.05,83.11a1,1,0,0,1-.79-.36c-8.68-10.07-20.16-15.62-32.43-15.57S75.29,72.73,66.75,82.75a1.06,1.06,0,0,1-1.48.11,1,1,0,0,1-.12-1.47C74.1,70.9,86.06,65.11,98.82,65.08h.1c12.82,0,24.86,5.79,33.92,16.3a1,1,0,0,1-.11,1.48A1,1,0,0,1,132.05,83.11Z"/><path class="cls-2" d="M155.86,106.36H120.4a1,1,0,0,1-.88-.49C113.07,95.74,106.06,90.6,98.68,90.6h0c-12.63,0-22.42,15.12-22.52,15.27a1,1,0,0,1-.88.49H39.81a1,1,0,0,1,0-2.1h34.9c1.86-2.74,11.36-15.76,24-15.76,8,0,15.52,5.31,22.3,15.76h34.89a1.05,1.05,0,0,1,0,2.1Z"/></g></g></svg>