<svg xmlns="http://www.w3.org/2000/svg" viewBox="0 0 198 198"><defs><style>.cls-1{fill:none;stroke:#ff5fab;stroke-miterlimit:10;stroke-width:5px;}.cls-2{fill:#ff5fab;}</style></defs><g id="레이어_2" data-name="레이어 2"><g id="레이어_1-2" data-name="레이어 1"><circle class="cls-1" cx="99" cy="99" r="96.5"/><path class="cls-2" d="M70.79,96.12a10.88,10.88,0,0,1-1.14-.06c-3.55-.36-6.82-2.47-9.71-6.27-3.35-3.88-6.72-5.89-10-6s-6.73,1.75-10.36,5.58a1,1,0,0,1-1.22.22,1,1,0,0,1-.57-1.11A62,62,0,0,1,98.71,36.85H99a62.27,62.27,0,0,1,60.87,49.62,1,1,0,0,1-1.79.92c-2.43-2.62-5-4-7.74-4-3.52-.08-7.37,2-11.53,6.15-11,10.83-21.15,5.81-28.79.23-8.33-8.22-16.84-8.17-26.13.07C79.07,94.05,74.77,96.12,70.79,96.12ZM49.74,81.73H50c3.91.09,7.79,2.34,11.55,6.71a.1.1,0,0,1,0,0c2.57,3.38,5.28,5.18,8.28,5.48,3.69.38,7.82-1.5,12.65-5.74,10.13-9,19.84-9,28.86-.09,7.66,5.58,16.21,9.51,26-.13,4.58-4.56,8.94-6.86,13-6.75a11.57,11.57,0,0,1,6.69,2.41,60,60,0,0,0-116.58,2C43.6,83,46.65,81.73,49.74,81.73Z"/><path class="cls-2" d="M70.9,119.24a10.74,10.74,0,0,1-1.14-.06c-3.56-.36-6.84-2.48-9.73-6.3-3.31-3.82-6.66-5.84-9.93-5.93s-6.61,1.65-10.16,5.33a1.05,1.05,0,0,1-1,.27,1,1,0,0,1-.74-.79,62.77,62.77,0,0,1-1.31-12.47,61.55,61.55,0,0,1,.94-10.77,1.1,1.1,0,0,1,.27-.55c4.06-4.28,8-6.32,11.93-6.23s7.79,2.34,11.55,6.71c2.61,3.43,5.32,5.23,8.32,5.53,3.69.38,7.82-1.5,12.65-5.74,10.13-9,19.84-9,28.86-.09,7.66,5.58,16.21,9.51,26-.13,4.58-4.56,8.94-6.86,13-6.75,3.29.06,6.4,1.64,9.24,4.7a1,1,0,0,1,.25.5,62.58,62.58,0,0,1,1.28,12.24,61.7,61.7,0,0,1-1.05,11.46,1,1,0,0,1-1.79.53c-2.6-2.77-5.34-4.19-8.13-4.22-3.5-.08-7.25,2-11.25,6.14-11,10.84-21.16,5.82-28.81.24-8.32-8.22-16.83-8.17-26.12.07C79.17,117.17,74.87,119.24,70.9,119.24ZM49.84,104.85h.32c3.88.11,7.75,2.37,11.49,6.71C64.26,115,67,116.8,70,117.1c3.69.38,7.82-1.5,12.65-5.74,10.13-9,19.84-9,28.86-.09,7.66,5.58,16.21,9.51,26-.13,4.41-4.52,8.67-6.84,12.76-6.75a12.45,12.45,0,0,1,8.17,3.46,58.44,58.44,0,0,0,.69-9.13,60.09,60.09,0,0,0-1.18-11.54c-2.38-2.48-4.91-3.77-7.54-3.82-3.52-.08-7.37,2-11.53,6.15-11,10.83-21.15,5.81-28.79.23-8.33-8.22-16.84-8.17-26.13.07C78.6,94.45,74,96.5,69.65,96.06c-3.56-.36-6.83-2.48-9.73-6.3-3.32-3.84-6.69-5.86-10-5.93S43.35,85.5,39.8,89.18a58.42,58.42,0,0,0,.05,20.26C43.23,106.36,46.51,104.85,49.84,104.85Z"/><path class="cls-2" d="M99,161.15a62.33,62.33,0,0,1-60.84-49.39,1,1,0,0,1,.27-.94c4-4.12,7.81-6.07,11.73-6s7.75,2.37,11.49,6.71C64.26,115,67,116.8,70,117.1c3.69.38,7.82-1.5,12.65-5.74,10.13-9,19.84-9,28.86-.09,7.66,5.58,16.21,9.51,26-.12,4.42-4.53,8.72-6.81,12.77-6.76,3.39,0,6.63,1.67,9.64,4.88a1,1,0,0,1,.26.9,62.11,62.11,0,0,1-60.81,51ZM40.33,111.88A60,60,0,0,0,158,110.32c-2.49-2.52-5.11-3.82-7.77-3.84-3.5-.08-7.25,2-11.25,6.14h0c-11,10.83-21.14,5.81-28.79.23-8.32-8.22-16.83-8.17-26.12.07-5.29,4.64-9.94,6.69-14.24,6.25-3.56-.36-6.84-2.48-9.73-6.3-3.31-3.82-6.66-5.84-9.93-5.93S43.74,108.47,40.33,111.88Zm97.85,0h0Z"/></g></g></svg>