<svg xmlns="http://www.w3.org/2000/svg" viewBox="0 0 134.61 134.61"><defs><style>.cls-1{fill:#ff5fab;}.cls-2{fill:none;}</style></defs><g id="레이어_2" data-name="레이어 2"><g id="레이어_1-2" data-name="레이어 1"><path class="cls-1" d="M67.31,134.61A67.31,67.31,0,0,1,67.29,0h0a67.31,67.31,0,0,1,0,134.61ZM67.31,5h0a62.31,62.31,0,0,0,0,124.61h0A62.31,62.31,0,0,0,67.31,5Z"/><path class="cls-2" d="M84.85,27.55a.21.21,0,0,0-.21-.21H61a.22.22,0,0,0,0,.43H84.64A.21.21,0,0,0,84.85,27.55Z"/><rect class="cls-2" x="65.68" y="28.97" width="1.73" height="4.76"/><path class="cls-2" d="M72,40.23V35.64a.71.71,0,0,0-.72-.71H61.91a.85.85,0,0,0-.85.85v4.47a22.44,22.44,0,0,1,5.46-.69A23.3,23.3,0,0,1,72,40.23Z"/><path class="cls-1" d="M61.06,35.78a.85.85,0,0,1,.85-.85h3.16a.6.6,0,0,1-.6-.61v-.6H61.91a2.05,2.05,0,0,0-2,2.06v4.79c.4-.13.8-.22,1.2-.32Z"/><path class="cls-1" d="M68,34.93h3.25a.71.71,0,0,1,.72.71v4.59c.4.1.8.2,1.2.32V35.64a1.93,1.93,0,0,0-1.92-1.92H68.61v.6A.61.61,0,0,1,68,34.93Z"/><rect class="cls-1" x="64.47" y="28.97" width="1.2" height="4.76"/><rect class="cls-1" x="67.4" y="28.97" width="1.2" height="4.76"/><path class="cls-1" d="M65.07,34.93H68a.61.61,0,0,0,.61-.61v-.6H64.47v.6A.6.6,0,0,0,65.07,34.93Z"/><path class="cls-1" d="M65.07,27.77H61a.22.22,0,0,1,0-.43H84.64a.21.21,0,0,1,.21.21.21.21,0,0,1-.21.22H68a.6.6,0,0,1,.61.6V29h16a1.42,1.42,0,1,0,0-2.83H61A1.42,1.42,0,1,0,61,29h3.52v-.6A.6.6,0,0,1,65.07,27.77Z"/><path class="cls-1" d="M67.4,29h1.21v-.6a.6.6,0,0,0-.61-.6H65.07a.6.6,0,0,0-.6.6V29H67.4Z"/><path class="cls-1" d="M69.22,40.34H72v-.11a23.3,23.3,0,0,0-5.45-.67,22.44,22.44,0,0,0-5.46.69v.09h2.76a20.34,20.34,0,0,1,5.4,0Z"/><path class="cls-1" d="M89.32,59.93A22.89,22.89,0,0,0,73.17,40.55v.39a.59.59,0,0,1,0,.23A22.34,22.34,0,0,1,88.72,60a19.91,19.91,0,0,1,0,3.86l-4,44H48.14L44.29,63.74a17.57,17.57,0,0,1,0-3A22.33,22.33,0,0,1,59.91,41.17a.59.59,0,0,1,0-.23v-.37A23,23,0,0,0,43.65,60.71a18.89,18.89,0,0,0,0,3.08l3.85,44.14a.61.61,0,0,0,.6.55H84.7a.61.61,0,0,0,.6-.55l4-44A19.47,19.47,0,0,0,89.32,59.93Z"/><path class="cls-1" d="M72,40.34H69.22a21.79,21.79,0,0,1,3.9.83.59.59,0,0,0,0-.23v-.39c-.4-.12-.8-.22-1.2-.32Z"/><path class="cls-1" d="M59.91,41.17a22.09,22.09,0,0,1,3.91-.83H61.06v-.09c-.4.1-.8.19-1.2.32v.37A.59.59,0,0,0,59.91,41.17Z"/><path class="cls-1" d="M66.52,40.16a22,22,0,0,0-2.7.18h5.4A22,22,0,0,0,66.52,40.16Z"/><path class="cls-1" d="M72.57,41.54h-.28A21.69,21.69,0,0,1,88.12,60.06a18.52,18.52,0,0,1,0,3.73l-4,43.49H48.69l-3.8-43.6a16.53,16.53,0,0,1,0-2.88,21.84,21.84,0,0,1,16-19.26h-.37a.59.59,0,0,1-.55-.37A22.33,22.33,0,0,0,44.25,60.75a17.57,17.57,0,0,0,0,3l3.85,44.14H84.7l4-44a19.91,19.91,0,0,0,0-3.86,22.34,22.34,0,0,0-15.6-18.82A.58.58,0,0,1,72.57,41.54Z"/><path class="cls-1" d="M63.82,40.34a22.09,22.09,0,0,0-3.91.83.59.59,0,0,0,.55.37h.37a21.47,21.47,0,0,1,5.69-.78,22,22,0,0,1,5.77.78h.28a.58.58,0,0,0,.55-.37,21.79,21.79,0,0,0-3.9-.83Z"/><path class="cls-1" d="M66.54,82.43A6.46,6.46,0,0,1,60.09,76c-.08-.64-.64-6.67,5.58-13.67a1.21,1.21,0,0,1,.87-.4,1.23,1.23,0,0,1,.88.37C68.78,63.79,73.21,69.08,73,76A6.46,6.46,0,0,1,66.54,82.43Zm0-19.27c-6,6.79-5.26,12.68-5.25,12.74V76a5.25,5.25,0,0,0,10.49,0v0C72,69.51,67.82,64.53,66.54,63.16Z"/><path class="cls-1" d="M66.54,79.71a3.44,3.44,0,0,1-3.44-3.44v-.22a.6.6,0,0,1,.6-.6.6.6,0,0,1,.6.6v.22a2.24,2.24,0,0,0,4.48,0v-.11a.6.6,0,1,1,1.2,0v.1A3.44,3.44,0,0,1,66.54,79.71Z"/><path class="cls-1" d="M63.7,75.37A1.26,1.26,0,1,1,65,74.11,1.26,1.26,0,0,1,63.7,75.37Zm0-1.62a.36.36,0,1,0,0,.72.36.36,0,0,0,0-.72Z"/><path class="cls-1" d="M49.22,86.23a.6.6,0,0,1-.6-.55L46.68,63.53a16.23,16.23,0,0,1,0-2.59A20,20,0,0,1,66.52,42.56a.61.61,0,0,1,0,1.21A18.81,18.81,0,0,0,47.84,61a15,15,0,0,0,0,2.39l1.94,22.16a.61.61,0,0,1-.55.65Z"/><path class="cls-1" d="M49.64,91a.61.61,0,0,1-.6-.55l-.2-2.22A.6.6,0,1,1,50,88.16l.2,2.22a.61.61,0,0,1-.54.66Z"/><path class="cls-1" d="M50.89,105.47a.59.59,0,0,1-.59-.55l-1-11.52a.6.6,0,0,1,.55-.65.6.6,0,0,1,.65.55l1,11.52a.6.6,0,0,1-.54.65Z"/></g></g></svg>