<svg xmlns="http://www.w3.org/2000/svg" viewBox="0 0 140.61 140.61"><defs><style>.cls-1{fill:#ff5fab;}</style></defs><g id="레이어_2" data-name="레이어 2"><g id="레이어_1-2" data-name="레이어 1"><path class="cls-1" d="M70.31,140.61A70.31,70.31,0,0,1,70.29,0h0A70.31,70.31,0,0,1,120,120a69.82,69.82,0,0,1-49.71,20.6ZM70.31,5h0a65.31,65.31,0,0,0,0,130.61h0A65.3,65.3,0,0,0,116.47,24.12,64.86,64.86,0,0,0,70.31,5Z"/><path class="cls-1" d="M70.31,114A43.68,43.68,0,1,1,114,70.31,43.73,43.73,0,0,1,70.31,114Zm0-85.88a42.21,42.21,0,1,0,42.2,42.21A42.26,42.26,0,0,0,70.31,28.1Z"/><path class="cls-1" d="M62.58,77.9a.73.73,0,0,1-.73-.73l-.07-13L50.17,74a.75.75,0,0,1-.83.09.73.73,0,0,1-.37-.75L51.05,58.7,37.39,67.9a.77.77,0,0,1-.59.1.74.74,0,0,1-.47-.36L30,56.13a.73.73,0,1,1,1.28-.71l5.93,10.81L51.6,56.56a.73.73,0,0,1,.8,0,.74.74,0,0,1,.34.73L50.69,71.61,62,62.08a.72.72,0,0,1,.78-.11.74.74,0,0,1,.43.67l.08,14.53a.73.73,0,0,1-.73.73Z"/><path class="cls-1" d="M78.41,98.32a.74.74,0,0,1-.62-.33L69.9,85.79a.74.74,0,0,1,1.24-.8l7,10.88L82.7,81.39a.73.73,0,0,1,.66-.51.71.71,0,0,1,.71.43l6.11,13.43,6.56-15.11a.75.75,0,0,1,.44-.4.72.72,0,0,1,.59,0l11.52,6.3a.72.72,0,0,1,.29,1,.73.73,0,0,1-1,.3L97.77,81l-6.9,15.88a.74.74,0,0,1-.67.45.83.83,0,0,1-.67-.44l-6-13.18L79.11,97.81a.74.74,0,0,1-.6.51Z"/><path class="cls-1" d="M79.58,67.1a.73.73,0,0,1-.59-.3L70.46,55a.73.73,0,1,1,1.19-.86l7.61,10.49L83,50a.74.74,0,0,1,1.37-.16L91.19,62.9l5.74-15.44a.8.8,0,0,1,.42-.43.76.76,0,0,1,.59,0l11.84,5.68a.73.73,0,1,1-.64,1.32L98,48.73,92,65a.73.73,0,0,1-1.34.08L84,52.2,80.3,66.55a.73.73,0,0,1-.58.54Z"/></g></g></svg>