<svg xmlns="http://www.w3.org/2000/svg" viewBox="0 0 134.61 134.61"><defs><style>.cls-1{fill:#ff5fab;}</style></defs><g id="레이어_2" data-name="레이어 2"><g id="레이어_1-2" data-name="레이어 1"><path class="cls-1" d="M67.31,134.61A67.31,67.31,0,0,1,67.29,0h0a67.31,67.31,0,0,1,0,134.61ZM67.31,5h0a62.31,62.31,0,0,0,0,124.61h0A62.31,62.31,0,0,0,67.31,5Z"/><path class="cls-1" d="M106.19,81.41H30.71v-.76a37.74,37.74,0,1,1,75.48,0ZM32.24,79.89h72.42a36.22,36.22,0,0,0-72.42,0Z"/><path class="cls-1" d="M82.09,80.65a13.64,13.64,0,0,0-27.28,0Z"/><path class="cls-1" d="M68.09,52a.76.76,0,0,1-.76-.76V44a.76.76,0,0,1,1.52,0v7.18A.76.76,0,0,1,68.09,52Z"/><path class="cls-1" d="M75.9,53l-.2,0a.77.77,0,0,1-.54-.94L77,45.1a.78.78,0,0,1,.93-.54.77.77,0,0,1,.54.94l-1.86,6.94A.76.76,0,0,1,75.9,53Z"/><path class="cls-1" d="M83.17,56a.75.75,0,0,1-.38-.1.76.76,0,0,1-.28-1l3.59-6.22a.77.77,0,0,1,1-.28.76.76,0,0,1,.28,1l-3.59,6.22A.75.75,0,0,1,83.17,56Z"/><path class="cls-1" d="M89.42,60.81a.77.77,0,0,1-.54-1.31L94,54.43A.76.76,0,1,1,95,55.51L90,60.58A.74.74,0,0,1,89.42,60.81Z"/><path class="cls-1" d="M94.21,67.05a.76.76,0,0,1-.38-1.42L100.05,62a.76.76,0,0,1,1,.28.77.77,0,0,1-.28,1L94.59,67A.75.75,0,0,1,94.21,67.05Z"/><path class="cls-1" d="M97.22,74.32a.76.76,0,0,1-.74-.56.77.77,0,0,1,.54-.93L104,71a.76.76,0,0,1,.39,1.47L97.42,74.3A.71.71,0,0,1,97.22,74.32Z"/><path class="cls-1" d="M60.45,52.79a.76.76,0,0,1-.74-.56l-1.86-6.94a.77.77,0,0,1,.54-.94.79.79,0,0,1,.94.54l1.85,6.94a.77.77,0,0,1-.53.94Z"/><path class="cls-1" d="M53.14,56.75a.75.75,0,0,1-.65-.37l-3.73-6.13a.76.76,0,1,1,1.3-.79l3.73,6.13a.76.76,0,0,1-.25,1A.83.83,0,0,1,53.14,56.75Z"/><path class="cls-1" d="M61.89,71.35a.75.75,0,0,1-.66-.38l-3.59-6.22A.76.76,0,1,1,59,64l3.59,6.22a.76.76,0,0,1-.28,1A.75.75,0,0,1,61.89,71.35Z"/><path class="cls-1" d="M47,61.42a.77.77,0,0,1-.53-.21l-5.19-5a.75.75,0,0,1,0-1.07.76.76,0,0,1,1.08,0l5.19,5a.76.76,0,0,1,0,1.08A.78.78,0,0,1,47,61.42Z"/><path class="cls-1" d="M42.35,67.52a.74.74,0,0,1-.37-.1L35.69,64a.76.76,0,1,1,.73-1.34l6.3,3.45a.76.76,0,0,1,.3,1A.77.77,0,0,1,42.35,67.52Z"/><path class="cls-1" d="M39.4,74.62a.57.57,0,0,1-.18,0l-7-1.69a.76.76,0,1,1,.36-1.48l7,1.69a.77.77,0,0,1-.18,1.51Z"/></g></g></svg>