<svg xmlns="http://www.w3.org/2000/svg" viewBox="0 0 140.61 140.61"><defs><style>.cls-1{fill:#ff5fab;}</style></defs><g id="레이어_2" data-name="레이어 2"><g id="레이어_1-2" data-name="레이어 1"><path class="cls-1" d="M70.31,140.61A70.31,70.31,0,0,1,70.29,0h0A70.31,70.31,0,0,1,120,120a69.82,69.82,0,0,1-49.71,20.6ZM70.31,5h0a65.31,65.31,0,0,0,0,130.61h0A65.3,65.3,0,0,0,116.47,24.12,64.86,64.86,0,0,0,70.31,5Z"/><path class="cls-1" d="M50.48,68.28a6.85,6.85,0,0,1-.79,0c-2.5-.25-4.8-1.73-6.83-4.41-2.36-2.72-4.72-4.13-7-4.18s-4.73,1.22-7.28,3.92a.75.75,0,0,1-.87.15.72.72,0,0,1-.39-.78A43.55,43.55,0,0,1,70.1,26.63h.21A43.77,43.77,0,0,1,113.08,61.5a.74.74,0,0,1-.39.8.73.73,0,0,1-.87-.15,7.67,7.67,0,0,0-5.44-2.83c-2.47-.06-5.18,1.4-8.11,4.32-7.7,7.61-14.85,4.08-20.22.16-5.85-5.78-11.83-5.74-18.36.05C56.3,66.82,53.28,68.28,50.48,68.28ZM35.69,58.17h.18c2.74.06,5.47,1.64,8.12,4.71l0,0c1.8,2.38,3.7,3.64,5.81,3.85,2.59.26,5.5-1.06,8.89-4,7.12-6.31,13.94-6.33,20.28-.06,5.38,3.92,11.39,6.68,18.24-.09,3.21-3.2,6.28-4.82,9.16-4.74a8.13,8.13,0,0,1,4.71,1.69,42.18,42.18,0,0,0-81.92,1.39A10.07,10.07,0,0,1,35.69,58.17Z"/><path class="cls-1" d="M50.56,84.53c-.27,0-.54,0-.8,0-2.5-.26-4.8-1.75-6.84-4.43-2.32-2.69-4.68-4.1-7-4.17s-4.64,1.16-7.13,3.74a.75.75,0,0,1-.74.2.73.73,0,0,1-.51-.56,44.31,44.31,0,0,1-.93-8.76,43.37,43.37,0,0,1,.67-7.57.69.69,0,0,1,.19-.38c2.85-3,5.59-4.45,8.38-4.38s5.47,1.64,8.12,4.71c1.83,2.42,3.73,3.68,5.84,3.89,2.59.26,5.5-1.06,8.89-4,7.12-6.31,13.94-6.33,20.28-.06,5.38,3.92,11.39,6.68,18.24-.09,3.21-3.2,6.28-4.82,9.16-4.74a9.08,9.08,0,0,1,6.5,3.3.78.78,0,0,1,.18.35,42.81,42.81,0,0,1,.16,16.66.74.74,0,0,1-1.26.37c-1.83-2-3.75-3-5.72-3-2.46,0-5.09,1.43-7.9,4.31-7.71,7.62-14.87,4.1-20.24.18-5.85-5.78-11.82-5.74-18.35,0C56.38,83.07,53.35,84.53,50.56,84.53ZM35.76,74.42H36c2.72.08,5.44,1.67,8.07,4.71,1.84,2.42,3.74,3.68,5.85,3.89,2.59.27,5.49-1,8.88-4,7.12-6.31,13.95-6.33,20.28-.06,5.39,3.92,11.39,6.68,18.25-.09,3.09-3.18,6.09-4.81,9-4.75A8.78,8.78,0,0,1,112,76.52a40.41,40.41,0,0,0,.49-6.41,43.59,43.59,0,0,0-.83-8.11,7.6,7.6,0,0,0-5.3-2.68c-2.47-.06-5.18,1.4-8.11,4.32-7.7,7.61-14.85,4.08-20.22.16-5.85-5.78-11.83-5.74-18.36.05-3.72,3.26-7,4.7-10,4.39-2.51-.25-4.81-1.74-6.85-4.43-2.33-2.7-4.69-4.11-7-4.16s-4.64,1.17-7.13,3.76a41.6,41.6,0,0,0-.61,7.09,43.67,43.67,0,0,0,.64,7.14C31.12,75.48,33.42,74.42,35.76,74.42Z"/><path class="cls-1" d="M70.31,114A43.8,43.8,0,0,1,27.56,79.27a.73.73,0,0,1,.19-.66c2.8-2.9,5.48-4.27,8.24-4.19s5.44,1.67,8.07,4.71c1.84,2.42,3.74,3.68,5.85,3.89,2.59.27,5.49-1,8.88-4,7.12-6.31,13.95-6.33,20.28-.06,5.39,3.92,11.39,6.68,18.24-.09,3.1-3.18,6.12-4.78,9-4.75,2.38,0,4.66,1.18,6.77,3.43a.75.75,0,0,1,.19.64A43.66,43.66,0,0,1,70.51,114ZM29.08,79.36a42.19,42.19,0,0,0,82.65-1.1,7.9,7.9,0,0,0-5.47-2.7c-2.46,0-5.09,1.43-7.9,4.31h0c-7.7,7.61-14.85,4.09-20.23.17-5.85-5.78-11.82-5.74-18.35,0-3.72,3.26-7,4.7-10,4.4-2.5-.26-4.8-1.75-6.84-4.43-2.32-2.69-4.68-4.1-7-4.17S31.47,77,29.08,79.36Zm68.75,0h0Z"/></g></g></svg>