<svg xmlns="http://www.w3.org/2000/svg" viewBox="0 0 140.61 140.61"><defs><style>.cls-1{fill:#ff5fab;}</style></defs><g id="레이어_2" data-name="레이어 2"><g id="레이어_1-2" data-name="레이어 1"><path class="cls-1" d="M70.26,140.61a70.36,70.36,0,1,1,8.84-.56A71.5,71.5,0,0,1,70.26,140.61ZM5.52,78.47a65.3,65.3,0,1,0,13.2-48.2,65.38,65.38,0,0,0-13.2,48.2Z"/><path class="cls-1" d="M70.53,99.83A29.81,29.81,0,1,1,77.42,99,30,30,0,0,1,70.53,99.83Zm.11-58.06A28.29,28.29,0,1,0,98.11,63.56h0A28.29,28.29,0,0,0,70.64,41.77Z"/><path class="cls-1" d="M70.81,40.77a.74.74,0,0,1-.74-.74V26.19a.74.74,0,0,1,1.47,0V40A.74.74,0,0,1,70.81,40.77Z"/><path class="cls-1" d="M56.1,44.71a.71.71,0,0,1-.63-.37l-6.92-12a.74.74,0,0,1,.27-1,.73.73,0,0,1,1,.27l6.92,12a.74.74,0,0,1-.27,1A.69.69,0,0,1,56.1,44.71Z"/><path class="cls-1" d="M45.34,55.47a.71.71,0,0,1-.37-.1L33,48.45a.73.73,0,1,1,.73-1.27l12,6.92a.73.73,0,0,1,.27,1A.74.74,0,0,1,45.34,55.47Z"/><path class="cls-1" d="M41.4,70.17H27.56a.74.74,0,0,1,0-1.47H41.4a.74.74,0,1,1,0,1.47Z"/><path class="cls-1" d="M33.36,91.79A.73.73,0,0,1,33,90.42L45,83.5a.74.74,0,0,1,.74,1.28l-12,6.92A.77.77,0,0,1,33.36,91.79Z"/><path class="cls-1" d="M49.18,109.35a.68.68,0,0,1-.36-.1.73.73,0,0,1-.27-1l6.92-12a.72.72,0,0,1,1-.27.73.73,0,0,1,.27,1l-6.92,12A.72.72,0,0,1,49.18,109.35Z"/><path class="cls-1" d="M70.81,115.15a.74.74,0,0,1-.74-.74V100.57a.74.74,0,0,1,1.47,0v13.84A.74.74,0,0,1,70.81,115.15Z"/><path class="cls-1" d="M92.43,107.62a.74.74,0,0,1-.64-.36l-6.92-12a.74.74,0,0,1,1.28-.73l6.91,12a.72.72,0,0,1-.26,1A.74.74,0,0,1,92.43,107.62Z"/><path class="cls-1" d="M108.26,91.79a.78.78,0,0,1-.37-.09l-12-6.92a.74.74,0,0,1,.74-1.28l12,6.92a.73.73,0,0,1-.36,1.37Z"/><path class="cls-1" d="M114.05,70.17H100.21a.74.74,0,0,1,0-1.47h13.84a.74.74,0,1,1,0,1.47Z"/><path class="cls-1" d="M96.27,55.47a.71.71,0,0,1-.63-.37.72.72,0,0,1,.26-1l12-6.92a.73.73,0,0,1,1,.27.72.72,0,0,1-.27,1l-12,6.92A.71.71,0,0,1,96.27,55.47Z"/><path class="cls-1" d="M85.51,44.71a.71.71,0,0,1-.37-.1.74.74,0,0,1-.27-1l6.92-12a.74.74,0,0,1,1-.27.73.73,0,0,1,.26,1l-6.91,12A.74.74,0,0,1,85.51,44.71Z"/></g></g></svg>