<svg xmlns="http://www.w3.org/2000/svg" viewBox="0 0 134.61 134.61"><defs><style>.cls-1{fill:#ff5fab;}</style></defs><g id="레이어_2" data-name="레이어 2"><g id="레이어_1-2" data-name="레이어 1"><path class="cls-1" d="M67.31,134.61A67.31,67.31,0,0,1,67.29,0h0a67.31,67.31,0,0,1,0,134.61ZM67.31,5h0a62.31,62.31,0,0,0,0,124.61h0A62.31,62.31,0,0,0,67.31,5Z"/><path class="cls-1" d="M77.87,107H58.24a2,2,0,0,1-1.91-2.27V70.78a2.89,2.89,0,0,1,2.19-2.59.8.8,0,0,1,.26,0H77.32a.75.75,0,0,1,.26,0,2.89,2.89,0,0,1,2.2,2.59v33.9A2,2,0,0,1,77.87,107Zm-19-37.16c-.89.34-1,.94-1,1v33.88c0,.28.05.61.3.63h19.6c.22,0,.27-.35.27-.63V70.78s-.07-.65-1-1Z"/><path class="cls-1" d="M59.34,69.28a.82.82,0,0,1-.82-.82V51.77a.82.82,0,0,1,.82-.82H76.76a.82.82,0,0,1,.82.82V68.22a.82.82,0,0,1-1.64,0V52.59H60.16V68.46A.82.82,0,0,1,59.34,69.28Z"/><path class="cls-1" d="M62.57,51.5a.81.81,0,0,1-.82-.77C61,36.64,62.8,32,63.06,31.36c.27-.77,1.18-3,2.76-3S72,31.61,73.37,34.1s1.19,15.17,1.16,16.6a.83.83,0,0,1-1.65,0c.12-5.24,0-14.15-.94-15.76C70.68,32.67,66.65,30,65.82,30c-.26,0-.87.95-1.21,2l0,.1s-2,4.34-1.17,18.61a.82.82,0,0,1-.78.86Z"/><path class="cls-1" d="M62.37,65.94a.82.82,0,0,1-.82-.82V55.54a.82.82,0,0,1,1.64,0v9.58A.82.82,0,0,1,62.37,65.94Z"/><path class="cls-1" d="M60.05,103.27a.81.81,0,0,1-.82-.82V100a.82.82,0,0,1,1.64,0v2.48A.82.82,0,0,1,60.05,103.27Z"/><path class="cls-1" d="M60.05,97.87a.82.82,0,0,1-.82-.82V72.65a.82.82,0,1,1,1.64,0v24.4A.82.82,0,0,1,60.05,97.87Z"/></g></g></svg>