<svg xmlns="http://www.w3.org/2000/svg" viewBox="0 0 134.61 134.61"><defs><style>.cls-1{fill:#ff5fab;}</style></defs><g id="레이어_2" data-name="레이어 2"><g id="레이어_1-2" data-name="레이어 1"><path class="cls-1" d="M67.31,134.61A67.31,67.31,0,0,1,67.29,0h0a67.38,67.38,0,0,1,67.3,67.29h0a67.38,67.38,0,0,1-67.29,67.32ZM67.31,5h0a62.31,62.31,0,1,0,0,124.61h0a62.37,62.37,0,0,0,62.29-62.32h0A62.38,62.38,0,0,0,67.31,5Z"/><path class="cls-1" d="M69.13,103.81a36.51,36.51,0,1,1,36.5-36.5A36.54,36.54,0,0,1,69.13,103.81Zm0-71.67a35.17,35.17,0,1,0,35.16,35.17A35.2,35.2,0,0,0,69.13,32.14Z"/><path class="cls-1" d="M53.6,63.4c-4.28,0-7.64-1.8-7.64-4.1s3.36-4.1,7.64-4.1,7.64,1.8,7.64,4.1S57.89,63.4,53.6,63.4Zm0-6.86c-3.71,0-6.29,1.46-6.29,2.76s2.58,2.76,6.29,2.76,6.3-1.45,6.3-2.76S57.31,56.54,53.6,56.54Z"/><path class="cls-1" d="M84.65,63.4c-4.28,0-7.64-1.8-7.64-4.1s3.36-4.1,7.64-4.1,7.64,1.8,7.64,4.1S88.94,63.4,84.65,63.4Zm0-6.86c-3.71,0-6.29,1.46-6.29,2.76s2.58,2.76,6.29,2.76S91,60.61,91,59.3,88.36,56.54,84.65,56.54Z"/><path class="cls-1" d="M69.32,91.61c-4.88,0-9.82-1.27-9.82-3.72s4.94-3.72,9.82-3.72,9.82,1.28,9.82,3.72S74.2,91.61,69.32,91.61Zm0-6.1c-5.18,0-8.48,1.41-8.48,2.38s3.3,2.38,8.48,2.38,8.48-1.41,8.48-2.38S74.49,85.51,69.32,85.51Z"/><path class="cls-1" d="M69.32,77c-3.26,0-6.77-1.35-6.77-4.32a.67.67,0,0,1,1.34,0c0,2,2.73,3,5.43,3s5.43-1,5.43-3a.67.67,0,0,1,1.34,0C76.09,75.61,72.58,77,69.32,77Z"/></g></g></svg>