<svg xmlns="http://www.w3.org/2000/svg" viewBox="0 0 140.61 140.61"><defs><style>.cls-1{fill:#ff5fab;}</style></defs><g id="레이어_2" data-name="레이어 2"><g id="레이어_1-2" data-name="레이어 1"><path class="cls-1" d="M70.31,140.61A70.31,70.31,0,0,1,70.29,0h0A70.31,70.31,0,0,1,120,120a69.82,69.82,0,0,1-49.71,20.6ZM70.31,5h0a65.31,65.31,0,0,0,0,130.61h0A65.3,65.3,0,0,0,116.47,24.12,64.86,64.86,0,0,0,70.31,5Z"/><path class="cls-1" d="M86.45,106.67a22.42,22.42,0,0,1-16.6-7.42l-.44-.49.44-.49a20.85,20.85,0,0,0,5.36-13.94,61.12,61.12,0,0,0-5.47-26.78l-.14-.3.14-.3a88.93,88.93,0,0,1,14.62-22,2.87,2.87,0,0,1,2.12-1,2.83,2.83,0,0,1,2.13.9h0c5,5.28,21,24.46,20.19,49.48A22.37,22.37,0,0,1,86.45,106.67ZM71.39,98.74a20.85,20.85,0,0,0,35.94-14.43C108.15,59.83,92.39,41,87.54,35.86h0a1.29,1.29,0,0,0-1.05-.44,1.39,1.39,0,0,0-1,.47A87.44,87.44,0,0,0,71.22,57.26a62.28,62.28,0,0,1,5.46,27.09A22.31,22.31,0,0,1,71.39,98.74Z"/><path class="cls-1" d="M54.3,106.71A22.41,22.41,0,0,1,31.92,84.33c0-.13-3.07-23.17,20.28-49.46a2.91,2.91,0,0,1,2.13-1,2.84,2.84,0,0,1,2.13.9A82.64,82.64,0,0,1,71.08,57l-1.34.59A81,81,0,0,0,55.39,35.82a1.35,1.35,0,0,0-1-.44,1.37,1.37,0,0,0-1,.47C30.43,61.59,33.35,84,33.38,84.22a20.89,20.89,0,0,0,36.47,14l1.09,1A22.39,22.39,0,0,1,54.3,106.71Z"/><path class="cls-1" d="M54.3,96.63A11.27,11.27,0,0,1,43,85.38v-.81h1.47v.81a9.79,9.79,0,0,0,19.57,0V85l1.47,0v.37A11.26,11.26,0,0,1,54.3,96.63Z"/><path class="cls-1" d="M43.78,81.13a3.75,3.75,0,1,1,3.74-3.75A3.75,3.75,0,0,1,43.78,81.13Zm0-6a2.28,2.28,0,1,0,2.27,2.27A2.28,2.28,0,0,0,43.78,75.11Z"/></g></g></svg>