<svg xmlns="http://www.w3.org/2000/svg" viewBox="0 0 140.61 140.61"><defs><style>.cls-1{fill:#ff5fab;}</style></defs><g id="레이어_2" data-name="레이어 2"><g id="레이어_1-2" data-name="레이어 1"><path class="cls-1" d="M70.3,140.61a70.31,70.31,0,0,1-49.72-120A69.82,69.82,0,0,1,70.29,0h0A70.31,70.31,0,0,1,120,120a69.82,69.82,0,0,1-49.71,20.6ZM70.31,5h0A65.31,65.31,0,0,0,24.14,116.5a64.9,64.9,0,0,0,46.17,19.11h0A65.3,65.3,0,0,0,116.47,24.12,64.86,64.86,0,0,0,70.31,5Z"/><path class="cls-1" d="M70.31,114.26a.62.62,0,0,1-.33-.08C34.38,96.39,34,52.93,34,52.49a.73.73,0,0,1,.64-.73c.2,0,20.21-2.79,35.08-25.1a.77.77,0,0,1,1.23,0C85.82,49,105.8,51.74,106,51.76a.73.73,0,0,1,.64.73c0,.44-.41,43.9-36,61.69A.61.61,0,0,1,70.31,114.26ZM35.45,53.11c.19,5.31,2.7,43.26,34.86,59.59C102.46,96.37,105,58.42,105.16,53.11c-3.61-.68-21.21-4.92-34.85-24.74C56.66,48.19,39.06,52.43,35.45,53.11Z"/><path class="cls-1" d="M81.41,70.45H59.2a.74.74,0,0,1-.73-.74A.73.73,0,0,1,59.2,69H81.41a.73.73,0,0,1,.73.73A.74.74,0,0,1,81.41,70.45Z"/><path class="cls-1" d="M70.31,81.55a.74.74,0,0,1-.74-.74V58.61a.74.74,0,0,1,1.47,0v22.2A.74.74,0,0,1,70.31,81.55Z"/></g></g></svg>