<svg xmlns="http://www.w3.org/2000/svg" viewBox="0 0 198.01 198.01"><defs><style>.cls-1,.cls-2{fill:none;}.cls-1{stroke:#ff5fab;stroke-miterlimit:10;stroke-width:5px;}.cls-3{fill:#ff5fab;}</style></defs><g id="레이어_2" data-name="레이어 2"><g id="레이어_1-2" data-name="레이어 1"><circle class="cls-1" cx="99.01" cy="99.01" r="96.51" transform="translate(-41.01 99.01) rotate(-45)"/><path class="cls-2" d="M53.29,103.64A45.72,45.72,0,1,0,125,66.05H73.06A45.66,45.66,0,0,0,53.29,103.64ZM92.21,144l-.16,0a40.83,40.83,0,0,1-34-40.36.94.94,0,1,1,1.88,0,39,39,0,0,0,32.44,38.51.93.93,0,0,1,.77,1.08A1,1,0,0,1,92.21,144Zm6.8.57c-1.16,0-2.32-.05-3.46-.14a.94.94,0,0,1,.16-1.88c1.09.09,2.2.14,3.3.14a.94.94,0,1,1,0,1.88Zm37-40.95a37,37,0,1,1-37-37A37,37,0,0,1,136,103.64Z"/><path class="cls-2" d="M125.33,64h6.81c4.65,0,8.43-3.41,8.43-7.61s-3.78-7.6-8.43-7.6H65.87c-4.65,0-8.43,3.41-8.43,7.6S61.22,64,65.87,64h6.81a47.41,47.41,0,0,1,52.65,0Z"/><path class="cls-2" d="M99,57.93A45.33,45.33,0,0,0,76.3,64h45.41A45.32,45.32,0,0,0,99,57.93Z"/><path class="cls-2" d="M63.93,103.64A35.08,35.08,0,1,0,99,68.56,35.12,35.12,0,0,0,63.93,103.64Z"/><path class="cls-3" d="M92.37,142.15a39,39,0,0,1-32.44-38.51.94.94,0,1,0-1.88,0,40.83,40.83,0,0,0,34,40.36l.16,0a1,1,0,0,0,.93-.79A.93.93,0,0,0,92.37,142.15Z"/><path class="cls-3" d="M99,142.71c-1.1,0-2.21-.05-3.3-.14a.94.94,0,0,0-.16,1.88c1.14.09,2.3.14,3.46.14a.94.94,0,1,0,0-1.88Z"/><path class="cls-3" d="M128.09,66.05H125a45.72,45.72,0,1,1-51.89,0H69.92a47.6,47.6,0,1,0,58.17,0Z"/><path class="cls-3" d="M62,103.64a37,37,0,1,0,37-37A37,37,0,0,0,62,103.64Zm72.05,0A35.08,35.08,0,1,1,99,68.56,35.12,35.12,0,0,1,134.09,103.64Z"/><path class="cls-3" d="M76.3,64c-1.11.64-2.19,1.3-3.24,2H125c-1-.73-2.13-1.39-3.24-2Z"/><path class="cls-3" d="M65.87,64c-4.65,0-8.43-3.41-8.43-7.61s3.78-7.6,8.43-7.6h66.27c4.65,0,8.43,3.41,8.43,7.6S136.79,64,132.14,64h-6.81c1,.63,1.86,1.33,2.76,2h4c5.89,0,10.67-4.32,10.67-9.64s-4.78-9.63-10.67-9.63H65.87C60,46.78,55.2,51.1,55.2,56.41S60,66.05,65.87,66.05h4c.9-.7,1.81-1.4,2.76-2Z"/><path class="cls-3" d="M121.71,64c1.11.64,2.19,1.3,3.24,2h3.14c-.9-.7-1.8-1.4-2.76-2Z"/><path class="cls-3" d="M76.3,64H72.68c-1,.63-1.86,1.33-2.76,2h3.14C74.11,65.32,75.19,64.66,76.3,64Z"/></g></g></svg>