<svg xmlns="http://www.w3.org/2000/svg" viewBox="0 0 198.01 198.01"><defs><style>.cls-1{fill:none;stroke:#ff5fab;stroke-miterlimit:10;stroke-width:5px;}.cls-2{fill:#ff5fab;}</style></defs><g id="레이어_2" data-name="레이어 2"><g id="레이어_1-2" data-name="레이어 1"><circle class="cls-1" cx="99.01" cy="99.01" r="96.51"/><path class="cls-2" d="M134.81,151.23H60.61a5.13,5.13,0,0,1-5.12-5.13V72.27a5.13,5.13,0,0,1,5.12-5.13h74.2a5.13,5.13,0,0,1,5.12,5.13V146.1A5.13,5.13,0,0,1,134.81,151.23ZM60.61,69.28a3,3,0,0,0-3,3V146.1a3,3,0,0,0,3,3h74.2a3,3,0,0,0,3-3V72.27a3,3,0,0,0-3-3Z"/><path class="cls-2" d="M114.14,69.28H81.27a1.06,1.06,0,0,1-1.06-1.07V53.87a4.19,4.19,0,0,1,4.18-4.19h26.68a4.15,4.15,0,0,1,4.14,4.15V68.21A1.07,1.07,0,0,1,114.14,69.28Zm-31.8-2.14h30.74V53.83a2,2,0,0,0-2-2H84.39a2.05,2.05,0,0,0-2,2Z"/><path class="cls-2" d="M62.68,145.09A1.07,1.07,0,0,1,61.61,144V122.37a1.07,1.07,0,1,1,2.13,0V144A1.06,1.06,0,0,1,62.68,145.09Z"/><path class="cls-2" d="M62.68,119.7a1.07,1.07,0,0,1-1.07-1.07v-2.41a1.07,1.07,0,1,1,2.13,0v2.41A1.06,1.06,0,0,1,62.68,119.7Z"/><path class="cls-2" d="M62.68,113.37a1.07,1.07,0,0,1-1.07-1.07V74.53a1.07,1.07,0,0,1,2.13,0V112.3A1.06,1.06,0,0,1,62.68,113.37Z"/><path class="cls-2" d="M86.42,64.91a1.06,1.06,0,0,1-1.07-1.06v-8a1.07,1.07,0,1,1,2.14,0v8A1.06,1.06,0,0,1,86.42,64.91Z"/><path class="cls-2" d="M111.64,101.79a6.87,6.87,0,0,1-4-1.22,5.17,5.17,0,0,0-5.86,0,7.3,7.3,0,0,1-8.08,0,5.16,5.16,0,0,0-5.85,0,7.32,7.32,0,0,1-8.09,0,4.74,4.74,0,0,0-2.92-.91,1.07,1.07,0,0,1,0-2.14,6.87,6.87,0,0,1,4,1.22,5.11,5.11,0,0,0,5.85,0,7.32,7.32,0,0,1,8.09,0,4.72,4.72,0,0,0,2.92.92,4.77,4.77,0,0,0,2.93-.92,7.32,7.32,0,0,1,8.09,0,5.11,5.11,0,0,0,5.85,0,6.91,6.91,0,0,1,4.05-1.22,1.07,1.07,0,0,1,0,2.14,4.77,4.77,0,0,0-2.93.91A6.88,6.88,0,0,1,111.64,101.79Z"/><path class="cls-2" d="M111.64,110.34a6.87,6.87,0,0,1-4-1.22,5.17,5.17,0,0,0-5.86,0,7.3,7.3,0,0,1-8.08,0,5.16,5.16,0,0,0-5.85,0,7.32,7.32,0,0,1-8.09,0,4.74,4.74,0,0,0-2.92-.91,1.07,1.07,0,0,1,0-2.14,6.8,6.8,0,0,1,4,1.23,5.16,5.16,0,0,0,5.85,0,7.27,7.27,0,0,1,8.09,0,4.78,4.78,0,0,0,2.92.91,4.84,4.84,0,0,0,2.93-.91,7.27,7.27,0,0,1,8.09,0,5.16,5.16,0,0,0,5.85,0,6.83,6.83,0,0,1,4.05-1.23,1.07,1.07,0,0,1,0,2.14,4.77,4.77,0,0,0-2.93.91A6.88,6.88,0,0,1,111.64,110.34Z"/><path class="cls-2" d="M111.64,118.9a6.87,6.87,0,0,1-4-1.23,5.17,5.17,0,0,0-5.86,0,7.25,7.25,0,0,1-8.08,0,5.16,5.16,0,0,0-5.85,0,7.27,7.27,0,0,1-8.09,0,4.74,4.74,0,0,0-2.92-.91,1.07,1.07,0,1,1,0-2.14,6.8,6.8,0,0,1,4,1.23,5.16,5.16,0,0,0,5.85,0,7.27,7.27,0,0,1,8.09,0,4.72,4.72,0,0,0,2.92.91,4.77,4.77,0,0,0,2.93-.91,7.27,7.27,0,0,1,8.09,0,5.16,5.16,0,0,0,5.85,0,6.83,6.83,0,0,1,4.05-1.23,1.07,1.07,0,0,1,0,2.14,4.77,4.77,0,0,0-2.93.91A6.88,6.88,0,0,1,111.64,118.9Z"/></g></g></svg>