<svg xmlns="http://www.w3.org/2000/svg" viewBox="0 0 198.01 198.01"><defs><style>.cls-1,.cls-2{fill:none;}.cls-1{stroke:#ff5fab;stroke-miterlimit:10;stroke-width:5px;}.cls-3{fill:#ff5fab;}</style></defs><g id="레이어_2" data-name="레이어 2"><g id="레이어_1-2" data-name="레이어 1"><circle class="cls-1" cx="99.01" cy="99.01" r="96.51"/><path class="cls-2" d="M125.14,39.81a.32.32,0,0,0-.32-.32H89.54a.32.32,0,1,0,0,.63h35.28A.32.32,0,0,0,125.14,39.81Z"/><rect class="cls-2" x="96.58" y="41.91" width="2.57" height="7.08"/><path class="cls-2" d="M106,58.69V51.86a1.07,1.07,0,0,0-1.07-1.07H91a1.26,1.26,0,0,0-1.26,1.26v6.66a33.15,33.15,0,0,1,16.24,0Z"/><path class="cls-3" d="M89.71,52.05A1.26,1.26,0,0,1,91,50.79h4.71a.89.89,0,0,1-.89-.9V49H91a3.06,3.06,0,0,0-3,3v7.13c.59-.18,1.19-.32,1.79-.47Z"/><path class="cls-3" d="M100,50.79h4.84A1.07,1.07,0,0,1,106,51.86v6.83c.6.15,1.2.29,1.79.47v-7.3A2.87,2.87,0,0,0,104.88,49h-3.94v.89A.9.9,0,0,1,100,50.79Z"/><rect class="cls-3" x="94.79" y="41.91" width="1.79" height="7.08"/><rect class="cls-3" x="99.15" y="41.91" width="1.79" height="7.08"/><path class="cls-3" d="M95.68,50.79H100a.9.9,0,0,0,.9-.9V49H94.79v.89A.89.89,0,0,0,95.68,50.79Z"/><path class="cls-3" d="M95.68,40.12H89.54a.32.32,0,1,1,0-.63h35.28a.32.32,0,1,1,0,.63H100a.9.9,0,0,1,.9.9v.89h23.88a2.11,2.11,0,1,0,0-4.21H89.54a2.11,2.11,0,1,0,0,4.21h5.25V41A.9.9,0,0,1,95.68,40.12Z"/><path class="cls-3" d="M99.15,41.91h1.79V41a.9.9,0,0,0-.9-.9H95.68a.9.9,0,0,0-.89.9v.89h4.36Z"/><path class="cls-3" d="M101.85,58.85H106v-.16a33.15,33.15,0,0,0-16.24,0v.14h4.11a30,30,0,0,1,8,0Z"/><path class="cls-3" d="M131.78,88a34.07,34.07,0,0,0-24-28.85v.58a.94.94,0,0,1-.07.34,33.28,33.28,0,0,1,23.22,28,28.23,28.23,0,0,1,0,5.74l-6,65.57H70.47L64.73,93.69a27.45,27.45,0,0,1-.06-4.44A33.28,33.28,0,0,1,88,60.08a.77.77,0,0,1-.07-.34v-.56a34.33,34.33,0,0,0-24.14,30,27.44,27.44,0,0,0,.06,4.59l5.73,65.73a.89.89,0,0,0,.9.81h54.44a.88.88,0,0,0,.89-.81l6-65.57A29.18,29.18,0,0,0,131.78,88Z"/><path class="cls-3" d="M106,58.85h-4.1a33.06,33.06,0,0,1,5.82,1.23.94.94,0,0,0,.07-.34v-.58c-.59-.18-1.19-.32-1.79-.47Z"/><path class="cls-3" d="M88,60.08a32.79,32.79,0,0,1,5.83-1.23H89.71v-.14c-.6.15-1.2.29-1.79.47v.56A.77.77,0,0,0,88,60.08Z"/><path class="cls-3" d="M97.84,58.58a33.23,33.23,0,0,0-4,.27h8A33.2,33.2,0,0,0,97.84,58.58Z"/><path class="cls-3" d="M106.84,60.64h-.42A32.28,32.28,0,0,1,130,88.21a27.81,27.81,0,0,1,0,5.56l-5.93,64.75H71.28L65.62,93.61a26.13,26.13,0,0,1-.06-4.3,32.51,32.51,0,0,1,23.8-28.67h-.55a.88.88,0,0,1-.82-.56A33.28,33.28,0,0,0,64.67,89.25a27.45,27.45,0,0,0,.06,4.44l5.74,65.73h54.44l6-65.57a28.23,28.23,0,0,0,0-5.74,33.28,33.28,0,0,0-23.22-28A.89.89,0,0,1,106.84,60.64Z"/><path class="cls-3" d="M93.82,58.85A32.79,32.79,0,0,0,88,60.08a.88.88,0,0,0,.82.56h.55a32.14,32.14,0,0,1,8.48-1.16,32.48,32.48,0,0,1,8.58,1.16h.42a.89.89,0,0,0,.83-.56,33.06,33.06,0,0,0-5.82-1.23Z"/><path class="cls-3" d="M97.86,121.53a9.61,9.61,0,0,1-9.6-9.54c-.12-.94-1-9.93,8.31-20.35a1.74,1.74,0,0,1,1.29-.59,1.78,1.78,0,0,1,1.31.55c2,2.17,8.63,10,8.29,20.34A9.61,9.61,0,0,1,97.86,121.53Zm0-28.7c-8.94,10.11-7.83,18.88-7.82,19a.57.57,0,0,1,0,.13,7.81,7.81,0,1,0,15.62,0v0C106,102.28,99.78,94.87,97.86,92.83Z"/><path class="cls-3" d="M97.86,117.48a5.13,5.13,0,0,1-5.13-5.13V112a.9.9,0,1,1,1.79,0v.32a3.34,3.34,0,0,0,6.68,0v-.16a.9.9,0,0,1,1.79,0v.15A5.13,5.13,0,0,1,97.86,117.48Z"/><path class="cls-3" d="M93.63,111a1.89,1.89,0,1,1,1.88-1.88A1.88,1.88,0,0,1,93.63,111Zm0-2.42a.54.54,0,0,0-.54.54.54.54,0,1,0,1.08,0A.54.54,0,0,0,93.63,108.6Z"/><path class="cls-3" d="M72.07,127.19a.89.89,0,0,1-.89-.82l-2.88-33a23.06,23.06,0,0,1-.06-3.86,29.81,29.81,0,0,1,29.6-27.36.9.9,0,0,1,0,1.79A28,28,0,0,0,70,89.66a21.65,21.65,0,0,0,.06,3.56l2.88,33a.9.9,0,0,1-.81,1Z"/><path class="cls-3" d="M72.69,134.35a.89.89,0,0,1-.89-.82l-.3-3.31a.89.89,0,0,1,1.78-.16l.3,3.31a.89.89,0,0,1-.81,1Z"/><path class="cls-3" d="M74.57,155.84a.91.91,0,0,1-.9-.82l-1.49-17.16a.89.89,0,1,1,1.78-.15l1.5,17.16a.9.9,0,0,1-.82,1Z"/></g></g></svg>