<svg xmlns="http://www.w3.org/2000/svg" viewBox="0 0 198.01 198.01"><defs><style>.cls-1{fill:none;stroke:#ff5fab;stroke-linecap:round;stroke-miterlimit:10;stroke-width:5px;}.cls-2{fill:#ff5fab;}</style></defs><g id="레이어_2" data-name="레이어 2"><g id="레이어_1-2" data-name="레이어 1"><circle class="cls-1" cx="99.01" cy="99.01" r="96.51"/><path class="cls-2" d="M156.91,120H44.51v-1.14a56.2,56.2,0,0,1,112.4,0ZM46.79,117.74H154.63a53.93,53.93,0,0,0-107.84,0Z"/><path class="cls-2" d="M121,118.87a20.32,20.32,0,0,0-40.63,0Z"/><path class="cls-2" d="M100.17,76.17A1.14,1.14,0,0,1,99,75V64.34a1.14,1.14,0,0,1,2.27,0V75A1.14,1.14,0,0,1,100.17,76.17Z"/><path class="cls-2" d="M111.8,77.7a1,1,0,0,1-.3,0,1.14,1.14,0,0,1-.8-1.39l2.77-10.33a1.16,1.16,0,0,1,1.39-.8,1.14,1.14,0,0,1,.8,1.39l-2.77,10.33A1.12,1.12,0,0,1,111.8,77.7Z"/><path class="cls-2" d="M122.63,82.19a1.16,1.16,0,0,1-.57-.15,1.14,1.14,0,0,1-.42-1.55L127,71.22a1.13,1.13,0,0,1,1.55-.41,1.14,1.14,0,0,1,.42,1.55l-5.35,9.26A1.14,1.14,0,0,1,122.63,82.19Z"/><path class="cls-2" d="M131.93,89.32a1.13,1.13,0,0,1-.8-1.93l7.56-7.56a1.13,1.13,0,1,1,1.6,1.6L132.73,89A1.13,1.13,0,0,1,131.93,89.32Z"/><path class="cls-2" d="M139.07,98.63a1.15,1.15,0,0,1-1-.57,1.13,1.13,0,0,1,.42-1.55l9.26-5.35a1.14,1.14,0,1,1,1.13,2l-9.26,5.34A1.06,1.06,0,0,1,139.07,98.63Z"/><path class="cls-2" d="M143.55,109.46a1.14,1.14,0,0,1-.29-2.24l10.32-2.76a1.16,1.16,0,0,1,1.4.8,1.13,1.13,0,0,1-.81,1.39l-10.33,2.77A1.35,1.35,0,0,1,143.55,109.46Z"/><path class="cls-2" d="M88.79,77.39a1.13,1.13,0,0,1-1.09-.84L84.93,66.22a1.13,1.13,0,1,1,2.19-.59L89.89,76a1.14,1.14,0,0,1-.8,1.39A1,1,0,0,1,88.79,77.39Z"/><path class="cls-2" d="M77.91,83.29a1.15,1.15,0,0,1-1-.55l-5.56-9.13a1.14,1.14,0,1,1,1.94-1.18l5.56,9.13a1.13,1.13,0,0,1-.38,1.56A1.15,1.15,0,0,1,77.91,83.29Z"/><path class="cls-2" d="M90.94,105a1.13,1.13,0,0,1-1-.56L84.61,95.2a1.14,1.14,0,1,1,2-1.13l5.35,9.26a1.14,1.14,0,0,1-.42,1.55A1.16,1.16,0,0,1,90.94,105Z"/><path class="cls-2" d="M68.82,90.24a1.12,1.12,0,0,1-.78-.31L60.3,82.55a1.14,1.14,0,0,1,0-1.61,1.13,1.13,0,0,1,1.6,0l7.74,7.38a1.13,1.13,0,0,1,0,1.6A1.1,1.1,0,0,1,68.82,90.24Z"/><path class="cls-2" d="M61.84,99.32a1.17,1.17,0,0,1-.54-.14l-9.38-5.13a1.13,1.13,0,0,1,1.09-2l9.38,5.13a1.13,1.13,0,0,1-.55,2.13Z"/><path class="cls-2" d="M57.45,109.89a1.24,1.24,0,0,1-.27,0l-10.39-2.53A1.13,1.13,0,0,1,46,106a1.15,1.15,0,0,1,1.37-.84l10.39,2.53a1.14,1.14,0,0,1-.27,2.24Z"/></g></g></svg>