<svg xmlns="http://www.w3.org/2000/svg" viewBox="0 0 198.01 198.01"><defs><style>.cls-1{fill:none;stroke:#ff5fab;stroke-miterlimit:10;stroke-width:5px;}.cls-2{fill:#ff5fab;}</style></defs><g id="레이어_2" data-name="레이어 2"><g id="레이어_1-2" data-name="레이어 1"><circle class="cls-1" cx="99.01" cy="99.01" r="96.51"/><path class="cls-2" d="M56.26,102A13.34,13.34,0,1,1,69.6,88.61,13.35,13.35,0,0,1,56.26,102Zm0-24.61A11.28,11.28,0,1,0,67.54,88.61,11.29,11.29,0,0,0,56.26,77.34Z"/><path class="cls-2" d="M84.07,102A13.34,13.34,0,1,1,97.41,88.61,13.35,13.35,0,0,1,84.07,102Zm0-24.61A11.28,11.28,0,1,0,95.35,88.61,11.29,11.29,0,0,0,84.07,77.34Z"/><path class="cls-2" d="M111.89,102a13.34,13.34,0,1,1,13.33-13.34A13.35,13.35,0,0,1,111.89,102Zm0-24.61a11.28,11.28,0,1,0,11.27,11.27A11.29,11.29,0,0,0,111.89,77.34Z"/><path class="cls-2" d="M139.7,102A13.34,13.34,0,1,1,153,88.61,13.35,13.35,0,0,1,139.7,102Zm0-24.61A11.28,11.28,0,1,0,151,88.61,11.29,11.29,0,0,0,139.7,77.34Z"/><path class="cls-2" d="M56.26,129.76A13.34,13.34,0,1,1,69.6,116.42,13.35,13.35,0,0,1,56.26,129.76Zm0-24.61a11.28,11.28,0,1,0,11.28,11.27A11.29,11.29,0,0,0,56.26,105.15Z"/><path class="cls-2" d="M84.07,129.76a13.34,13.34,0,1,1,13.34-13.34A13.35,13.35,0,0,1,84.07,129.76Zm0-24.61a11.28,11.28,0,1,0,11.28,11.27A11.29,11.29,0,0,0,84.07,105.15Z"/><path class="cls-2" d="M111.89,129.76a13.34,13.34,0,1,1,13.33-13.34A13.35,13.35,0,0,1,111.89,129.76Zm0-24.61a11.28,11.28,0,1,0,11.27,11.27A11.29,11.29,0,0,0,111.89,105.15Z"/><path class="cls-2" d="M139.7,129.76A13.34,13.34,0,1,1,153,116.42,13.35,13.35,0,0,1,139.7,129.76Zm0-24.61A11.28,11.28,0,1,0,151,116.42,11.29,11.29,0,0,0,139.7,105.15Z"/><path class="cls-2" d="M151.66,133.49H44.29a5,5,0,0,1-5-5V76.54a5,5,0,0,1,5-5H151.66a5,5,0,0,1,5,5v52A5,5,0,0,1,151.66,133.49ZM44.29,73.61a2.94,2.94,0,0,0-2.93,2.93v52a2.94,2.94,0,0,0,2.93,2.94H151.66a2.94,2.94,0,0,0,2.94-2.94V76.54a2.94,2.94,0,0,0-2.94-2.93Z"/><path class="cls-2" d="M56.13,120.78a2.11,2.11,0,1,1,2.12-2.11A2.12,2.12,0,0,1,56.13,120.78Zm0-3.19a1.08,1.08,0,1,0,1.09,1.08A1.08,1.08,0,0,0,56.13,117.59Z"/><path class="cls-2" d="M53.55,125.45a2.11,2.11,0,1,1,2.11-2.11A2.1,2.1,0,0,1,53.55,125.45Zm0-3.19a1.08,1.08,0,1,0,1.08,1.08A1.08,1.08,0,0,0,53.55,122.26Z"/><path class="cls-2" d="M58.59,125.45a2.11,2.11,0,1,1,2.11-2.11A2.11,2.11,0,0,1,58.59,125.45Zm0-3.19a1.08,1.08,0,1,0,1.08,1.08A1.08,1.08,0,0,0,58.59,122.26Z"/><path class="cls-2" d="M144.4,97.54a2.12,2.12,0,1,1,2.11-2.11A2.12,2.12,0,0,1,144.4,97.54Zm0-3.2a1.09,1.09,0,1,0,1.08,1.09A1.09,1.09,0,0,0,144.4,94.34Z"/></g></g></svg>