<svg xmlns="http://www.w3.org/2000/svg" viewBox="0 0 198.01 198.01"><defs><style>.cls-1{fill:none;stroke:#ff5fab;stroke-miterlimit:10;stroke-width:5px;}.cls-2{fill:#ff5fab;}</style></defs><g id="레이어_2" data-name="레이어 2"><g id="레이어_1-2" data-name="레이어 1"><circle class="cls-1" cx="99.01" cy="99.01" r="96.51"/><path class="cls-2" d="M114.73,158H85.5c-1.14,0-2.85-.9-2.85-3.38V104.18a4.32,4.32,0,0,1,3.28-3.86,1,1,0,0,1,.38-.07h27.61a1.07,1.07,0,0,1,.39.07,4.32,4.32,0,0,1,3.27,3.86v50.48C117.58,157.14,115.88,158,114.73,158ZM86.52,102.7c-1.33.51-1.42,1.41-1.42,1.51v50.45c0,.41.08.91.45.94h29.18c.33,0,.4-.53.4-.94V104.18c0-.07-.09-1-1.42-1.48Z"/><path class="cls-2" d="M87.15,101.94a1.22,1.22,0,0,1-1.23-1.22V75.88a1.23,1.23,0,0,1,1.23-1.23h25.94a1.23,1.23,0,0,1,1.22,1.23v24.49a1.23,1.23,0,0,1-2.45,0V77.1H88.37v23.62A1.22,1.22,0,0,1,87.15,101.94Z"/><path class="cls-2" d="M92,75.47a1.21,1.21,0,0,1-1.22-1.15c-1.19-21,1.56-27.95,2-28.84C93.08,44.33,94.43,41,96.8,41s9.13,4.89,11.23,8.6,1.77,22.6,1.73,24.73a1.23,1.23,0,0,1-2.45-.06c.18-7.79,0-21.06-1.4-23.46C104,47.43,98,43.46,96.79,43.4c-.38,0-1.3,1.4-1.81,2.92a1,1,0,0,1-.06.16c0,.05-3,6.45-1.75,27.7A1.22,1.22,0,0,1,92,75.47Z"/><path class="cls-2" d="M91.65,97a1.22,1.22,0,0,1-1.22-1.22V81.48a1.22,1.22,0,1,1,2.44,0V95.75A1.22,1.22,0,0,1,91.65,97Z"/><path class="cls-2" d="M88.19,152.56A1.22,1.22,0,0,1,87,151.34v-3.69a1.23,1.23,0,0,1,2.45,0v3.69A1.22,1.22,0,0,1,88.19,152.56Z"/><path class="cls-2" d="M88.19,144.52A1.22,1.22,0,0,1,87,143.3V107a1.23,1.23,0,1,1,2.45,0V143.3A1.23,1.23,0,0,1,88.19,144.52Z"/></g></g></svg>