<svg xmlns="http://www.w3.org/2000/svg" viewBox="0 0 198.01 198.01"><defs><style>.cls-1{fill:none;stroke:#ff5fab;stroke-miterlimit:10;stroke-width:5px;}.cls-2{fill:#ff5fab;}</style></defs><g id="레이어_2" data-name="레이어 2"><g id="레이어_1-2" data-name="레이어 1"><circle class="cls-1" cx="99.01" cy="99.01" r="96.51" transform="translate(-41.01 99.01) rotate(-45)"/><path class="cls-2" d="M101.72,153.37A54.37,54.37,0,1,1,156.08,99,54.42,54.42,0,0,1,101.72,153.37Zm0-106.73A52.37,52.37,0,1,0,154.08,99,52.42,52.42,0,0,0,101.72,46.64Z"/><path class="cls-2" d="M78.6,93.19c-6.38,0-11.38-2.68-11.38-6.11s5-6.1,11.38-6.1S90,83.66,90,87.08,85,93.19,78.6,93.19ZM78.6,83c-5.53,0-9.38,2.16-9.38,4.1s3.85,4.11,9.38,4.11S88,89,88,87.08,84.12,83,78.6,83Z"/><path class="cls-2" d="M124.84,93.19c-6.38,0-11.38-2.68-11.38-6.11s5-6.1,11.38-6.1,11.37,2.68,11.37,6.1S131.21,93.19,124.84,93.19Zm0-10.21c-5.53,0-9.38,2.16-9.38,4.1s3.85,4.11,9.38,4.11,9.37-2.16,9.37-4.11S130.36,83,124.84,83Z"/><path class="cls-2" d="M102,135.2c-7.27,0-14.62-1.9-14.62-5.54s7.35-5.54,14.62-5.54,14.63,1.9,14.63,5.54S109.27,135.2,102,135.2Zm0-9.08c-7.7,0-12.62,2.1-12.62,3.54S94.3,133.2,102,133.2s12.63-2.1,12.63-3.54S109.71,126.12,102,126.12Z"/><path class="cls-2" d="M102,113.39c-4.85,0-10.08-2-10.08-6.44a1,1,0,0,1,2,0c0,2.91,4.06,4.44,8.08,4.44s8.08-1.53,8.08-4.44a1,1,0,0,1,2,0C112.08,111.37,106.86,113.39,102,113.39Z"/></g></g></svg>