<svg xmlns="http://www.w3.org/2000/svg" viewBox="0 0 198.01 198.01"><defs><style>.cls-1{fill:none;stroke:#ff5fab;stroke-miterlimit:10;stroke-width:5px;}.cls-2{fill:#ff5fab;}</style></defs><g id="레이어_2" data-name="레이어 2"><g id="레이어_1-2" data-name="레이어 1"><circle class="cls-1" cx="99.01" cy="99.01" r="96.51" transform="translate(-41.01 99.01) rotate(-45)"/><path class="cls-2" d="M89,128h-.1a1,1,0,0,1-.9-1.09L92.21,83.5a1,1,0,1,1,2,.2L90,127.12A1,1,0,0,1,89,128Z"/><path class="cls-2" d="M88.49,133.51h-.1a1,1,0,0,1-.9-1.09l.18-1.87a1,1,0,0,1,2,.19l-.18,1.87A1,1,0,0,1,88.49,133.51Z"/><path class="cls-2" d="M86.9,149.92h-.1a1,1,0,0,1-.9-1.09l1.27-13.13a1,1,0,0,1,2,.19L87.9,149A1,1,0,0,1,86.9,149.92Z"/><path class="cls-2" d="M116.08,156.79l-34.88.07a1,1,0,1,1,0-2l34.88-.08a1,1,0,0,1,0,2Z"/><path class="cls-2" d="M84.64,160.67a1,1,0,0,1-1-1v-3.81a1,1,0,1,1,2,0v3.82A1,1,0,0,1,84.64,160.67Z"/><path class="cls-2" d="M88.64,160.66a1,1,0,0,1-1-1v-3.81a1,1,0,0,1,1-1,1,1,0,0,1,1,1v3.82A1,1,0,0,1,88.64,160.66Z"/><path class="cls-2" d="M92.65,160.65a1,1,0,0,1-1-1v-3.81a1,1,0,0,1,2,0v3.82A1,1,0,0,1,92.65,160.65Z"/><path class="cls-2" d="M96.65,160.64a1,1,0,0,1-1-1v-3.82a1,1,0,0,1,2,0v3.82A1,1,0,0,1,96.65,160.64Z"/><path class="cls-2" d="M100.65,160.64a1,1,0,0,1-1-1v-3.82a1,1,0,0,1,2,0v3.81A1,1,0,0,1,100.65,160.64Z"/><path class="cls-2" d="M104.66,160.63a1,1,0,0,1-1-1v-3.82a1,1,0,0,1,2,0v3.81A1,1,0,0,1,104.66,160.63Z"/><path class="cls-2" d="M108.66,160.62a1,1,0,0,1-1-1V155.8a1,1,0,0,1,2,0v3.82A1,1,0,0,1,108.66,160.62Z"/><path class="cls-2" d="M112.66,160.61a1,1,0,0,1-1-1v-3.82a1,1,0,0,1,2,0v3.82A1,1,0,0,1,112.66,160.61Z"/><path class="cls-2" d="M114.41,160.61l-31.6.06A2.78,2.78,0,0,1,80,157.61l7.64-79.1a1,1,0,0,1,1-.91l19.68,0a1,1,0,0,1,1,.9l8,78.93a2.93,2.93,0,0,1-2.9,3.22Zm-24.84-81L82,157.81a.81.81,0,0,0,.2.61.8.8,0,0,0,.59.25l31.59-.07a.87.87,0,0,0,.68-.3.92.92,0,0,0,.24-.71l-7.88-78Z"/><path class="cls-2" d="M107.07,79.57l-17.14,0a1,1,0,0,1-1-1V74.1a1,1,0,0,1,1-1l17.13,0a1,1,0,0,1,1,1v4.5A1,1,0,0,1,107.07,79.57Zm-16.14-2,15.13,0v-2.5l-15.14,0Z"/><path class="cls-2" d="M103.78,75.07l-10.58,0a1,1,0,0,1-.73-.31A1,1,0,0,1,92.2,74L94,40.34a2.78,2.78,0,0,1,2.77-2.63H100a2.82,2.82,0,0,1,2.81,2.65l2,33.66a1,1,0,0,1-.28.75A1,1,0,0,1,103.78,75.07Zm-9.53-2,8.47,0L100.8,40.46a.82.82,0,0,0-.81-.76H96.81a.77.77,0,0,0-.78.74Z"/></g></g></svg>