<svg xmlns="http://www.w3.org/2000/svg" viewBox="0 0 198.01 198.01"><defs><style>.cls-1{fill:none;stroke:#ff5fab;stroke-miterlimit:10;stroke-width:5px;}.cls-2{fill:#ff5fab;}</style></defs><g id="레이어_2" data-name="레이어 2"><g id="레이어_1-2" data-name="레이어 1"><circle class="cls-1" cx="99.01" cy="99.01" r="96.51" transform="translate(-41.01 99.01) rotate(-45)"/><path class="cls-2" d="M122.56,158H77.93a3.77,3.77,0,0,1-3.77-3.76V75a1.25,1.25,0,0,1,1.26-1.25h49.66A1.25,1.25,0,0,1,126.33,75v79.29A3.77,3.77,0,0,1,122.56,158ZM76.67,76.25v78a1.27,1.27,0,0,0,1.26,1.26h44.63a1.27,1.27,0,0,0,1.27-1.26v-78Z"/><path class="cls-2" d="M125.08,76.25H75.42A1.26,1.26,0,0,1,74.16,75V64.66a26.09,26.09,0,0,1,52.17,0V75A1.26,1.26,0,0,1,125.08,76.25ZM76.67,73.74h47.16V64.66a23.58,23.58,0,0,0-47.16,0Z"/><path class="cls-2" d="M81.68,65.92a1.26,1.26,0,0,1-1.26-1.26,19.85,19.85,0,0,1,19.83-19.82,1.25,1.25,0,0,1,0,2.5A17.34,17.34,0,0,0,82.93,64.66,1.26,1.26,0,0,1,81.68,65.92Z"/><path class="cls-2" d="M81.68,151a1.25,1.25,0,0,1-1.26-1.25V138a1.26,1.26,0,0,1,2.51,0V149.7A1.25,1.25,0,0,1,81.68,151Z"/><path class="cls-2" d="M81.68,132.79a1.25,1.25,0,0,1-1.26-1.25v-4.8a1.26,1.26,0,0,1,2.51,0v4.8A1.25,1.25,0,0,1,81.68,132.79Z"/><path class="cls-2" d="M81.68,121.74a1.26,1.26,0,0,1-1.26-1.26V69.57a1.26,1.26,0,0,1,2.51,0v50.91A1.26,1.26,0,0,1,81.68,121.74Z"/><path class="cls-2" d="M102.2,94.79v-.74a9.57,9.57,0,0,0-5.53,2.55l.51.52A8.82,8.82,0,0,1,102.2,94.79Z"/><path class="cls-2" d="M96.19,98.2l-.52-.52a9.62,9.62,0,0,0-2,5.5h.73A8.9,8.9,0,0,1,96.19,98.2Z"/><path class="cls-2" d="M109,96.86l.51-.51A9.54,9.54,0,0,0,103.67,94v.74A8.77,8.77,0,0,1,109,96.86Z"/><path class="cls-2" d="M112,103.18h.74a9.54,9.54,0,0,0-2.26-5.79l-.52.51A8.77,8.77,0,0,1,112,103.18Z"/><path class="cls-2" d="M103.67,112.39v.73a9.47,9.47,0,0,0,5.42-2l-.52-.52A8.75,8.75,0,0,1,103.67,112.39Z"/><path class="cls-2" d="M94.44,104.64h-.75A9.54,9.54,0,0,0,96,109.83l.51-.51A8.79,8.79,0,0,1,94.44,104.64Z"/><path class="cls-2" d="M97.53,110.35l-.51.52a9.52,9.52,0,0,0,5.18,2.22v-.74A8.8,8.8,0,0,1,97.53,110.35Z"/><path class="cls-2" d="M109.66,109.6l.52.51a9.53,9.53,0,0,0,2.53-5.47H112A8.78,8.78,0,0,1,109.66,109.6Z"/><path class="cls-2" d="M95.18,104.64h-.74a8.79,8.79,0,0,0,2,4.68l.52-.52A8.16,8.16,0,0,1,95.18,104.64Z"/><path class="cls-2" d="M103.67,111.66v.73a8.75,8.75,0,0,0,4.9-1.81l-.52-.52A8.16,8.16,0,0,1,103.67,111.66Z"/><path class="cls-2" d="M109.46,98.43a8.1,8.1,0,0,1,1.83,4.75H112a8.77,8.77,0,0,0-2-5.28Z"/><path class="cls-2" d="M98.06,109.83l-.53.52a8.8,8.8,0,0,0,4.67,2v-.74A8,8,0,0,1,98.06,109.83Z"/><path class="cls-2" d="M96.72,98.73l-.53-.53a8.9,8.9,0,0,0-1.81,5h.74A8,8,0,0,1,96.72,98.73Z"/><path class="cls-2" d="M108.43,97.38l.52-.52a8.77,8.77,0,0,0-5.28-2.1v.73A8.16,8.16,0,0,1,108.43,97.38Z"/><path class="cls-2" d="M102.2,95.54v-.75a8.82,8.82,0,0,0-5,2.33l.52.52A8.06,8.06,0,0,1,102.2,95.54Z"/><path class="cls-2" d="M109.14,109.07l.52.53a8.78,8.78,0,0,0,2.31-5h-.74A8.11,8.11,0,0,1,109.14,109.07Z"/><path class="cls-2" d="M103.67,94V90.33a.74.74,0,0,0-1.47,0v3.72c.33,0,.67,0,1,0Z"/><path class="cls-2" d="M102.2,113.09v4.4a.74.74,0,0,0,1.47,0v-4.37c-.15,0-.31,0-.47,0A8.39,8.39,0,0,1,102.2,113.09Z"/><path class="cls-2" d="M103.2,112.41a8.39,8.39,0,0,1-1-.06v.74a8.39,8.39,0,0,0,1,.06c.16,0,.32,0,.47,0v-.73Z"/><path class="cls-2" d="M103.2,94.73c.16,0,.32,0,.47,0V94l-.47,0c-.33,0-.67,0-1,0v.74C102.53,94.76,102.87,94.73,103.2,94.73Z"/><path class="cls-2" d="M103.2,111.68a8.26,8.26,0,0,1-1-.07v.74a8.39,8.39,0,0,0,1,.06l.47,0v-.73Z"/><path class="cls-2" d="M103.2,95.47l.47,0v-.73c-.15,0-.31,0-.47,0-.33,0-.67,0-1,.06v.75A8.26,8.26,0,0,1,103.2,95.47Z"/><path class="cls-2" d="M96.67,96.6l-2.81-2.81a.74.74,0,0,0-1,1l2.85,2.85A11.32,11.32,0,0,1,96.67,96.6Z"/><path class="cls-2" d="M109.09,111.1,112,114a.74.74,0,0,0,1-1l-2.88-2.88A9.28,9.28,0,0,1,109.09,111.1Z"/><path class="cls-2" d="M97.18,97.12l-.51-.52a11.32,11.32,0,0,0-1,1.08l.52.52A8.46,8.46,0,0,1,97.18,97.12Z"/><path class="cls-2" d="M108.57,110.58l.52.52a9.28,9.28,0,0,0,1.09-1l-.52-.51A9.28,9.28,0,0,1,108.57,110.58Z"/><path class="cls-2" d="M97.7,97.64l-.52-.52a8.46,8.46,0,0,0-1,1.08l.53.53A8.47,8.47,0,0,1,97.7,97.64Z"/><path class="cls-2" d="M108.05,110.06l.52.52a9.28,9.28,0,0,0,1.09-1l-.52-.53A8.54,8.54,0,0,1,108.05,110.06Z"/><path class="cls-2" d="M93.65,103.18H89.36a.73.73,0,0,0,0,1.46h4.33c0-.35-.06-.7-.06-1.07C93.63,103.44,93.65,103.31,93.65,103.18Z"/><path class="cls-2" d="M116.52,103.18h-3.76c0,.13,0,.26,0,.39a9.3,9.3,0,0,1-.07,1.07h3.81a.73.73,0,0,0,0-1.46Z"/><path class="cls-2" d="M94.36,103.57c0-.13,0-.26,0-.39h-.73c0,.13,0,.26,0,.39,0,.37,0,.72.06,1.07h.75A7.48,7.48,0,0,1,94.36,103.57Z"/><path class="cls-2" d="M112.76,103.18H112c0,.13,0,.26,0,.39a9.3,9.3,0,0,1-.07,1.07h.74a9.3,9.3,0,0,0,.07-1.07C112.78,103.44,112.76,103.31,112.76,103.18Z"/><path class="cls-2" d="M111.31,103.57a7.48,7.48,0,0,1-.08,1.07H112a9.3,9.3,0,0,0,.07-1.07c0-.13,0-.26,0-.39h-.73C111.3,103.31,111.31,103.44,111.31,103.57Z"/><path class="cls-2" d="M95.1,103.57c0-.13,0-.26,0-.39h-.74c0,.13,0,.26,0,.39a7.48,7.48,0,0,0,.08,1.07h.74A7.48,7.48,0,0,1,95.1,103.57Z"/><path class="cls-2" d="M96,109.83,92.82,113a.73.73,0,0,0,.52,1.25.77.77,0,0,0,.52-.21L97,110.87A9.28,9.28,0,0,1,96,109.83Z"/><path class="cls-2" d="M110.5,97.39l2.56-2.56a.74.74,0,0,0-1-1l-2.56,2.56A9.28,9.28,0,0,1,110.5,97.39Z"/><path class="cls-2" d="M110,97.9l.52-.51a9.28,9.28,0,0,0-1-1l-.51.51A9.19,9.19,0,0,1,110,97.9Z"/><path class="cls-2" d="M96.49,109.32l-.51.51a9.28,9.28,0,0,0,1,1l.51-.52A9.19,9.19,0,0,1,96.49,109.32Z"/><path class="cls-2" d="M97,108.8l-.52.52a9.19,9.19,0,0,0,1,1l.53-.52A8.51,8.51,0,0,1,97,108.8Z"/><path class="cls-2" d="M109.46,98.43l.52-.53a9.19,9.19,0,0,0-1-1l-.52.52A8.51,8.51,0,0,1,109.46,98.43Z"/></g></g></svg>