<svg xmlns="http://www.w3.org/2000/svg" xmlns:xlink="http://www.w3.org/1999/xlink" viewBox="0 0 1900 343"><defs><style>.cls-1{fill:none;}.cls-2{fill:#ff5fab;}.cls-3{fill:url(#새_패턴_2);}</style><pattern id="새_패턴_2" data-name="새 패턴 2" width="316.39" height="331.33" patternTransform="translate(1509.91 7524.89) scale(2.31)" patternUnits="userSpaceOnUse" viewBox="0 0 316.39 331.33"><rect class="cls-1" width="316.39" height="331.33"/><path d="M286.3,234.16A17.2,17.2,0,1,1,269.1,217,17.2,17.2,0,0,1,286.3,234.16Zm-11.84,0a5.36,5.36,0,1,0-5.36,5.36A5.36,5.36,0,0,0,274.46,234.16Z"/><path d="M94.16,268.56A17.2,17.2,0,1,1,77,251.36,17.2,17.2,0,0,1,94.16,268.56Zm-11.84,0A5.36,5.36,0,1,0,77,273.92,5.36,5.36,0,0,0,82.32,268.56Z"/><path d="M169.53,161.77a17.2,17.2,0,1,1-17.2-17.2A17.2,17.2,0,0,1,169.53,161.77Zm-11.84,0a5.36,5.36,0,1,0-5.36,5.36A5.36,5.36,0,0,0,157.69,161.77Z"/><path d="M280.94,156.41a17.2,17.2,0,1,1-17.2-17.21A17.2,17.2,0,0,1,280.94,156.41Zm-11.84,0a5.36,5.36,0,1,0-5.36,5.36A5.37,5.37,0,0,0,269.1,156.41Z"/><path d="M52.53,131.79a17.21,17.21,0,1,1-17.2-17.2A17.2,17.2,0,0,1,52.53,131.79Zm-11.84,0a5.37,5.37,0,1,0-5.36,5.36A5.36,5.36,0,0,0,40.69,131.79Z"/><path class="cls-2" d="M282.92,97.06c-6.31,4.38-12,3.85-15.34,3.53-2.5-.23-2.81-.23-3.9.53s-1.21,1.06-1.86,3.48c-.88,3.28-2.35,8.77-8.65,13.15s-12,3.86-15.33,3.54c-2.5-.23-2.81-.23-3.9.53l-9.83-14.13c6.3-4.38,11.95-3.85,15.33-3.54,2.5.24,2.81.24,3.9-.53s1.21-1.05,1.86-3.47c.88-3.28,2.35-8.77,8.65-13.16s12-3.85,15.33-3.53c2.5.23,2.81.23,3.91-.53"/><polygon points="316.39 74.42 282.74 97.2 272.94 82.73 306.58 59.95 316.39 74.42"/><polygon points="225.07 178.27 197.98 196.63 188.18 182.15 215.27 163.8 225.07 178.27"/><polygon points="191.71 94.04 135.97 131.79 126.17 117.32 181.91 79.56 191.71 94.04"/><polygon points="152.33 14.47 96.59 52.23 86.78 37.75 142.53 0 152.33 14.47"/><polygon points="155.08 293.58 99.33 331.33 89.53 316.86 145.28 279.11 155.08 293.58"/><polygon points="73.28 232.3 17.54 270.05 7.73 255.58 63.48 217.82 73.28 232.3"/><polygon points="307.24 264.41 251.49 302.16 241.69 287.69 297.43 249.93 307.24 264.41"/><path d="M186.73,45.31a17.2,17.2,0,1,1-17.2-17.2A17.2,17.2,0,0,1,186.73,45.31Zm-11.84,0a5.36,5.36,0,1,0-5.36,5.36A5.36,5.36,0,0,0,174.89,45.31Z"/><path class="cls-2" d="M233.22,247.72c-6.38,4.5-12.14,4-15.57,3.7-2.54-.22-2.86-.22-4,.57s-1.23,1.08-1.87,3.55c-.87,3.33-2.33,8.92-8.71,13.42s-12.13,4-15.57,3.69c-2.53-.22-2.85-.22-4,.56s-1.22,1.09-1.86,3.55c-.87,3.34-2.33,8.93-8.71,13.42s-12.13,4-15.57,3.7c-2.53-.23-2.85-.22-4,.56l-10.08-14.3c6.38-4.49,12.13-4,15.57-3.69,2.53.22,2.85.22,4-.56s1.22-1.08,1.86-3.55c.87-3.34,2.33-8.93,8.71-13.42s12.13-4,15.57-3.7c2.53.23,2.85.22,4-.56s1.22-1.08,1.86-3.55c.88-3.34,2.34-8.92,8.71-13.42s12.14-4,15.57-3.7c2.54.22,2.86.22,4-.57Z"/><path class="cls-2" d="M199.47,196c-6.37,4.5-12.13,4-15.56,3.7-2.55-.22-2.86-.22-4,.57s-1.22,1.08-1.86,3.55c-.87,3.34-2.33,8.92-8.71,13.42s-12.13,4-15.57,3.69c-2.53-.22-2.85-.22-4,.57s-1.22,1.08-1.86,3.54c-.87,3.34-2.33,8.93-8.71,13.43s-12.13,4-15.57,3.69c-2.53-.22-2.85-.22-4,.56l-10.08-14.3c6.38-4.49,12.13-4,15.57-3.69,2.53.22,2.85.22,4-.56s1.22-1.08,1.86-3.55c.87-3.34,2.33-8.92,8.71-13.42s12.13-4,15.56-3.69c2.54.22,2.86.22,4-.57s1.22-1.08,1.86-3.55c.87-3.33,2.34-8.92,8.71-13.42s12.13-4,15.57-3.7c2.54.23,2.86.22,4-.56Z"/><path class="cls-2" d="M271.33,47c-6.37,4.5-12.13,4-15.56,3.7-2.54-.22-2.86-.22-4,.57s-1.22,1.08-1.86,3.54c-.87,3.34-2.33,8.93-8.71,13.43s-12.13,4-15.57,3.69c-2.53-.22-2.85-.22-4,.56s-1.22,1.08-1.86,3.55c-.87,3.34-2.33,8.93-8.71,13.42s-12.13,4-15.57,3.69c-2.53-.22-2.85-.21-4,.57l-10.08-14.3c6.38-4.5,12.13-4,15.57-3.69,2.53.22,2.85.22,4-.57s1.22-1.08,1.86-3.54c.87-3.34,2.33-8.93,8.71-13.42s12.13-4,15.56-3.7c2.54.22,2.86.22,4-.56s1.22-1.08,1.86-3.55c.88-3.34,2.34-8.92,8.71-13.42s12.14-4,15.57-3.7c2.54.22,2.86.22,4-.57Z"/><path class="cls-2" d="M96.89,52.75c-6.38,4.49-12.13,4-15.57,3.69-2.54-.22-2.85-.22-4,.57s-1.22,1.08-1.87,3.55c-.87,3.34-2.33,8.92-8.71,13.42s-12.13,4-15.56,3.69c-2.54-.22-2.85-.21-4,.57S46,79.32,45.38,81.78c-.87,3.34-2.33,8.93-8.7,13.43s-12.13,4-15.57,3.69c-2.54-.22-2.85-.22-4,.56L7.07,85.17c6.37-4.5,12.12-4,15.56-3.7,2.54.22,2.85.22,4-.56s1.22-1.08,1.87-3.55c.87-3.33,2.33-8.92,8.7-13.42s12.13-4,15.57-3.69c2.54.22,2.85.22,4-.56s1.22-1.09,1.87-3.55c.87-3.34,2.33-8.93,8.71-13.43s12.13-4,15.57-3.7c2.54.23,2.85.22,4-.56Z"/><path class="cls-2" d="M89.82,173c-6.37,4.5-12.13,4-15.57,3.7-2.54-.22-2.85-.22-4,.57s-1.22,1.08-1.86,3.55c-.87,3.33-2.34,8.92-8.71,13.42s-12.13,4-15.57,3.69c-2.54-.22-2.85-.22-4,.56s-1.22,1.09-1.86,3.55c-.88,3.34-2.34,8.93-8.71,13.42s-12.13,4-15.57,3.7c-2.53-.23-2.85-.22-4,.56L0,205.44c6.38-4.49,12.13-4,15.56-3.69,2.54.22,2.86.22,4-.56s1.22-1.09,1.86-3.55c.87-3.34,2.33-8.93,8.71-13.42s12.13-4,15.56-3.7c2.54.23,2.85.22,4-.56s1.22-1.08,1.86-3.55c.87-3.34,2.33-8.92,8.71-13.42s12.13-4,15.57-3.7c2.54.22,2.86.22,4-.57Z"/></pattern></defs><g id="레이어_2" data-name="레이어 2"><g id="레이어_1-2" data-name="레이어 1"><rect class="cls-3" width="1900" height="343"/></g></g></svg>