<svg xmlns="http://www.w3.org/2000/svg" xmlns:xlink="http://www.w3.org/1999/xlink" id="Layer_1" x="0px" y="0px" width="444px" height="444px" viewBox="0 0 444 444" xml:space="preserve">
<g>
	<g>
		<path fill="#1A1A1A" d="M222,408.5c-5.523,0-10-4.478-10-10v-353c0-5.523,4.477-10,10-10c5.522,0,10,4.477,10,10v353    C232,404.022,227.522,408.5,222,408.5z"></path>
	</g>
	<g>
		<path fill="#1A1A1A" d="M398.5,232h-353c-5.523,0-10-4.478-10-10c0-5.523,4.477-10,10-10h353c5.522,0,10,4.477,10,10    C408.5,227.522,404.022,232,398.5,232z"></path>
	</g>
</g>
</svg>