<svg xmlns="http://www.w3.org/2000/svg" xmlns:xlink="http://www.w3.org/1999/xlink" id="Layer_1" x="0px" y="0px" width="444px" height="444px" viewBox="0 0 444 444" xml:space="preserve">
<g>
	<path fill="#1A1A1A" d="M222,372c-8.284,0-15-6.716-15-15V87c0-8.284,6.716-15,15-15s15,6.716,15,15v270   C237,365.284,230.284,372,222,372z"></path>
</g>
<g>
	<path fill="#1A1A1A" d="M357,237H87c-8.284,0-15-6.716-15-15s6.716-15,15-15h270c8.284,0,15,6.716,15,15S365.284,237,357,237z"></path>
</g>
<g>
	<path fill="#1A1A1A" d="M222,430c-114.691,0-208-93.309-208-208S107.309,14,222,14s208,93.309,208,208S336.691,430,222,430z    M222,44c-98.149,0-178,79.851-178,178s79.851,178,178,178s178-79.851,178-178S320.149,44,222,44z"></path>
</g>
</svg>