<svg xmlns="http://www.w3.org/2000/svg" viewBox="0 0 134.61 134.61"><defs><style>.cls-1{fill:#ff5fab;}</style></defs><g id="레이어_2" data-name="레이어 2"><g id="레이어_1-2" data-name="레이어 1"><path class="cls-1" d="M67.31,134.61A67.31,67.31,0,0,1,67.29,0h0a67.29,67.29,0,0,1,67.3,67.29h0a67.38,67.38,0,0,1-67.29,67.32ZM67.31,5h0a62.31,62.31,0,0,0,0,124.61h0a62.37,62.37,0,0,0,62.29-62.32h0A62.31,62.31,0,0,0,67.31,5Z"/><path class="cls-1" d="M60.6,86.79h-.07a.66.66,0,0,1-.6-.73L62.74,56.9a.69.69,0,0,1,.74-.61.67.67,0,0,1,.6.74L61.27,86.19A.68.68,0,0,1,60.6,86.79Z"/><path class="cls-1" d="M60.24,90.48h-.06a.69.69,0,0,1-.61-.74l.12-1.25a.69.69,0,0,1,.74-.61.67.67,0,0,1,.6.74l-.12,1.25A.67.67,0,0,1,60.24,90.48Z"/><path class="cls-1" d="M59.18,101.5h-.07a.66.66,0,0,1-.6-.73l.85-8.82a.67.67,0,0,1,1.34.13l-.85,8.82A.68.68,0,0,1,59.18,101.5Z"/><path class="cls-1" d="M78.77,106.11l-23.42,0a.67.67,0,0,1-.67-.67.69.69,0,0,1,.67-.68l23.42,0a.69.69,0,0,1,.68.67A.67.67,0,0,1,78.77,106.11Z"/><path class="cls-1" d="M57.66,108.72a.67.67,0,0,1-.67-.67v-2.57a.67.67,0,0,1,.67-.67.68.68,0,0,1,.68.67V108A.68.68,0,0,1,57.66,108.72Z"/><path class="cls-1" d="M60.35,108.71a.67.67,0,0,1-.67-.67v-2.56a.68.68,0,0,1,.67-.68.67.67,0,0,1,.67.67V108A.67.67,0,0,1,60.35,108.71Z"/><path class="cls-1" d="M63,108.71a.68.68,0,0,1-.68-.68v-2.56a.67.67,0,0,1,1.34,0V108A.69.69,0,0,1,63,108.71Z"/><path class="cls-1" d="M65.73,108.7a.67.67,0,0,1-.68-.67v-2.56a.67.67,0,1,1,1.34,0V108A.67.67,0,0,1,65.73,108.7Z"/><path class="cls-1" d="M68.41,108.69a.67.67,0,0,1-.67-.67v-2.56a.68.68,0,0,1,1.35,0V108A.67.67,0,0,1,68.41,108.69Z"/><path class="cls-1" d="M71.1,108.69a.67.67,0,0,1-.67-.67v-2.57a.67.67,0,0,1,.67-.67.68.68,0,0,1,.68.67V108A.67.67,0,0,1,71.1,108.69Z"/><path class="cls-1" d="M73.79,108.68a.67.67,0,0,1-.67-.67v-2.56a.69.69,0,0,1,.67-.68.67.67,0,0,1,.67.68V108A.67.67,0,0,1,73.79,108.68Z"/><path class="cls-1" d="M76.48,108.68a.68.68,0,0,1-.68-.67v-2.57a.67.67,0,0,1,1.34,0V108A.68.68,0,0,1,76.48,108.68Z"/><path class="cls-1" d="M77.65,108.67l-21.22,0a1.89,1.89,0,0,1-1.39-.61,1.91,1.91,0,0,1-.48-1.45l5.13-53.12a.67.67,0,0,1,.67-.6l13.22,0a.68.68,0,0,1,.67.6l5.35,53a2,2,0,0,1-.5,1.51A2,2,0,0,1,77.65,108.67ZM61,54.28,55.9,106.79a.52.52,0,0,0,.14.41.53.53,0,0,0,.39.18l21.22,0a.59.59,0,0,0,.45-.2.61.61,0,0,0,.16-.48L73,54.25Z"/><path class="cls-1" d="M72.72,54.25l-11.51,0a.67.67,0,0,1-.67-.67v-3a.67.67,0,0,1,.67-.67l11.51,0a.67.67,0,0,1,.67.68v3A.67.67,0,0,1,72.72,54.25ZM61.88,52.93l10.17,0V51.23l-10.16,0Z"/><path class="cls-1" d="M70.51,51.23l-7.1,0a.69.69,0,0,1-.49-.21.66.66,0,0,1-.18-.5L64,27.91a1.87,1.87,0,0,1,1.86-1.77H68a1.88,1.88,0,0,1,1.88,1.77l1.33,22.61a.67.67,0,0,1-.67.71ZM64.12,49.9H69.8L68.51,28a.55.55,0,0,0-.54-.51H65.83a.52.52,0,0,0-.52.49Z"/></g></g></svg>