<svg xmlns="http://www.w3.org/2000/svg" viewBox="0 0 140.61 140.61"><defs><style>.cls-1{fill:#ff5fab;}</style></defs><g id="레이어_2" data-name="레이어 2"><g id="레이어_1-2" data-name="레이어 1"><path class="cls-1" d="M70.31,140.61A70.31,70.31,0,0,1,70.29,0h0A70.31,70.31,0,0,1,120,120a69.82,69.82,0,0,1-49.71,20.6ZM70.31,5h0a65.31,65.31,0,0,0,0,130.61h0A65.3,65.3,0,0,0,116.47,24.12,64.86,64.86,0,0,0,70.31,5Z"/><path class="cls-1" d="M44.36,110.52a.71.71,0,0,1-.56-.27c-32.95-40-.06-70.1.28-70.4a.73.73,0,0,1,1.22.55v67.7c0,.33-.06.58-.09.82s-.08.62-.11.94a.75.75,0,0,1-.52.63A.78.78,0,0,1,44.36,110.52Zm-.53-68.38c-5.65,5.78-27.11,31.52,0,65.82V88.72l0,0-13-13a.7.7,0,0,1-.22-.52.74.74,0,0,1,.22-.52.75.75,0,0,1,1,0L43.83,86.64V68.21l0,0-9.35-9.36a.7.7,0,0,1-.22-.52.72.72,0,0,1,.22-.52.73.73,0,0,1,1,0l8.33,8.34Z"/><path class="cls-1" d="M44.56,110.78a.72.72,0,0,1-.51-.22.82.82,0,0,1-.2-.51h0a.58.58,0,0,1,.07-.28.71.71,0,0,1,.64-.46h0a.74.74,0,0,1,.28,1.42A.72.72,0,0,1,44.56,110.78Z"/><path class="cls-1" d="M44.57,88.91a.66.66,0,0,1-.28,0,.74.74,0,0,1-.46-.68V40.4a.72.72,0,0,1,.48-.68.73.73,0,0,1,.81.2c8,9.06,12.75,18.75,14.07,28.81a.73.73,0,0,1-.13.53A65.91,65.91,0,0,0,52,81.76a.83.83,0,0,1-.15.23L45.09,88.7A.73.73,0,0,1,44.57,88.91ZM45.3,68V86.4l5.36-5.35a67,67,0,0,1,7-12.42c-1.27-9.11-5.44-17.93-12.4-26.25V65.89l8.1-8.1a.73.73,0,0,1,1,0,.72.72,0,0,1,.22.52.7.7,0,0,1-.22.52Z"/><path class="cls-1" d="M44.57,108.84h0a.74.74,0,0,1-.7-.74V88.18a.73.73,0,0,1,.22-.52L50.76,81a.73.73,0,0,1,.93-.09.74.74,0,0,1,.26.9,91.25,91.25,0,0,0-6.65,26.42A.74.74,0,0,1,44.57,108.84Zm.73-20.36v10a88.52,88.52,0,0,1,3.94-13.93Z"/><path class="cls-1" d="M44.57,110.78a.63.63,0,0,1-.27-.06.72.72,0,0,1-.47-.67h0a.74.74,0,0,1,.74-.74.75.75,0,0,1,.68.45.74.74,0,0,1-.15.8A.72.72,0,0,1,44.57,110.78Z"/><path class="cls-1" d="M64.09,91a.73.73,0,0,1-.52-.21.64.64,0,0,1-.1-.13.75.75,0,0,1-.34-.62V64.27a58.72,58.72,0,0,0-4.07,5,.74.74,0,0,1-1,.16.74.74,0,0,1-.16-1c19.72-27.06,52.57-25.49,52.9-25.47a.73.73,0,0,1,.47,1.25L64.61,90.81A.73.73,0,0,1,64.09,91Zm.51-27.27v25L82.76,70.58a.57.57,0,0,1,0-.13V50.22A58.91,58.91,0,0,0,64.22,63.11.72.72,0,0,1,64.6,63.75Zm19.62-13.6v19L109,44.37A69.13,69.13,0,0,0,84,49.67.71.71,0,0,1,84.22,50.15Z"/><path class="cls-1" d="M91.33,91H64.09a.73.73,0,0,1-.52-1.25L83.18,70.15h0l27-27A.77.77,0,0,1,111,43a.75.75,0,0,1,.43.72c-1.21,19.67-7.81,35.52-19.61,47.11A.73.73,0,0,1,91.33,91ZM65.87,89.55H91a60,60,0,0,0,12.5-18.14H84ZM85.48,69.94h18a.72.72,0,0,1,.55.24,79,79,0,0,0,5.78-24.61Z"/><path class="cls-1" d="M44.57,110.77a.74.74,0,0,1-.67-.43.75.75,0,0,1,.14-.81s.62-.65,1.52-1.75c0,0,0,0,0,0l18-18a.74.74,0,0,1,.52-.22H91.33A.73.73,0,0,1,92,90a.74.74,0,0,1-.16.8c-18.79,18.45-44.39,19.86-47.25,20Zm2.11-2-.39.46c6.43-.5,27.06-3.25,43.2-18.18H64.4Z"/><path class="cls-1" d="M44.33,110.78a.74.74,0,0,1-.52-1.25l.13-.14a.77.77,0,0,1,.56-.21.73.73,0,0,1,.53.27.84.84,0,0,1,.15.83.72.72,0,0,1-.59.49h-.26Z"/><path class="cls-1" d="M44.33,110.78a.7.7,0,0,1-.31-.07.73.73,0,0,1-.42-.73s0-.16,0-.17a.82.82,0,0,1,.53-.67.72.72,0,0,1,.78.18l.07.08a.83.83,0,0,1,0,1l-.13.13A.7.7,0,0,1,44.33,110.78Z"/><path class="cls-1" d="M44.57,110.77a.75.75,0,0,1-.58-.26.93.93,0,0,1-.05-1.12.86.86,0,0,1,.86-.21.73.73,0,0,1,.5.63V110A.73.73,0,0,1,44.57,110.77Z"/><path class="cls-1" d="M44.46,110.65h0a.73.73,0,0,1-.53-.27l-.1-.13a.7.7,0,0,1-.17-.53c0-.34.08-.66.12-1l.09-.71a.74.74,0,0,1,.77-.65.73.73,0,0,1,.69.73v1.71a.76.76,0,0,1-.21.52l-.11.1A.71.71,0,0,1,44.46,110.65Zm.11-.84h0Z"/><path class="cls-1" d="M44.57,110.77a.74.74,0,0,1-.74-.73v-.23a.74.74,0,0,1,.22-.52l1.56-1.56a.73.73,0,0,1,1.09,1c-1,1.19-1.59,1.83-1.6,1.84A.75.75,0,0,1,44.57,110.77Z"/></g></g></svg>