<svg xmlns="http://www.w3.org/2000/svg" xmlns:xlink="http://www.w3.org/1999/xlink" id="Layer_1" x="0px" y="0px" width="500px" height="150.209px" viewBox="0 0 500 150.209" xml:space="preserve">
<g>
	<path fill="#FFFFFF" d="M19.342,112.429c-4.834-3.05-7.25-7.717-7.25-14.001c0-3.322,0.574-5.859,1.722-7.612   c1.146-1.752,2.839-2.628,5.075-2.628c1.631,0,2.959,0.423,3.987,1.269c1.026,0.847,1.541,1.935,1.541,3.263   c0,1.209-0.09,2.266-0.272,3.172c0,0.242-0.045,0.665-0.136,1.269c-0.091,0.604-0.136,1.238-0.136,1.902   c0,2.719,1.373,4.744,4.123,6.072c2.749,1.329,6.6,1.993,11.555,1.993c5.134,0,9.153-0.92,12.053-2.764   c2.9-1.842,4.35-4.425,4.35-7.748c0-2.053-0.666-3.82-1.994-5.302c-1.33-1.479-2.991-2.719-4.984-3.715s-4.803-2.22-8.428-3.67   c-4.653-1.812-8.443-3.535-11.373-5.166c-2.931-1.631-5.438-3.852-7.522-6.661c-2.084-2.809-3.126-6.298-3.126-10.467   c0-4.35,1.163-8.215,3.489-11.6c2.325-3.383,5.678-6.011,10.059-7.884c4.379-1.872,9.529-2.809,15.451-2.809   c4.409,0,8.458,0.65,12.144,1.948c3.684,1.3,6.629,3.278,8.835,5.936c2.205,2.659,3.308,5.921,3.308,9.787   c0,3.806-0.575,6.676-1.722,8.609c-1.148,1.935-2.84,2.9-5.075,2.9c-1.572,0-2.886-0.482-3.942-1.45   c-1.058-0.966-1.586-2.114-1.586-3.444c0-1.147,0.091-2.205,0.272-3.171c0.181-1.812,0.272-2.959,0.272-3.444   c0-2.538-1.239-4.47-3.715-5.8c-2.478-1.328-5.56-1.994-9.244-1.994c-5.197,0-9.168,0.951-11.917,2.854   c-2.75,1.903-4.123,4.577-4.123,8.02c0,2.297,0.709,4.259,2.129,5.891c1.419,1.631,3.186,2.99,5.301,4.078   c2.114,1.087,5.075,2.387,8.881,3.896c4.59,1.874,8.276,3.565,11.056,5.075c2.778,1.511,5.15,3.565,7.114,6.163   c1.963,2.598,2.945,5.8,2.945,9.606c0,7.13-2.705,12.612-8.11,16.448c-5.408,3.837-12.642,5.754-21.704,5.754   C30.609,117.005,24.175,115.481,19.342,112.429z"></path>
	<path fill="#FFFFFF" d="M118.438,97.16c0.453,0.725,0.68,1.722,0.68,2.99c0,2.417-0.575,4.29-1.722,5.618   c-2.236,2.719-5.392,5.227-9.47,7.522c-4.078,2.297-8.444,3.443-13.095,3.443c-6.344,0-11.268-1.722-14.771-5.165   c-3.504-3.444-5.256-8.156-5.256-14.138c0-4.169,0.875-8.05,2.628-11.645c1.751-3.594,4.183-6.448,7.295-8.563   c3.111-2.114,6.63-3.172,10.558-3.172c3.503,0,6.312,1.042,8.428,3.126c2.114,2.084,3.172,4.909,3.172,8.473   c0,4.168-1.495,7.749-4.486,10.739c-2.99,2.99-8.051,5.362-15.179,7.114c1.509,2.779,4.38,4.168,8.609,4.168   c2.719,0,5.814-0.951,9.289-2.854c3.474-1.903,6.479-4.396,9.017-7.477c0.725-0.845,1.541-1.269,2.447-1.269   C117.364,96.072,117.984,96.434,118.438,97.16z M88.079,86.829c-1.541,2.598-2.311,5.74-2.311,9.425v0.181   c3.564-0.845,6.373-2.113,8.428-3.806c2.053-1.69,3.081-3.655,3.081-5.891c0-1.147-0.317-2.069-0.952-2.764   c-0.634-0.694-1.495-1.042-2.583-1.042C91.507,82.932,89.619,84.231,88.079,86.829z"></path>
	<path fill="#FFFFFF" d="M159.806,89.637c0.422,0.786,0.634,1.783,0.634,2.991c0,2.899-0.876,4.622-2.628,5.165   c-3.625,1.269-7.612,1.994-11.962,2.175c-1.148,5.075-3.414,9.139-6.796,12.189c-3.384,3.051-7.22,4.576-11.509,4.576   c-3.625,0-6.722-0.875-9.289-2.628c-2.569-1.752-4.517-4.078-5.845-6.979c-1.33-2.899-1.994-6.04-1.994-9.424   c0-4.591,0.875-8.685,2.628-12.28c1.751-3.594,4.168-6.403,7.25-8.428c3.082-2.023,6.494-3.036,10.241-3.036   c4.59,0,8.292,1.586,11.101,4.758c2.81,3.172,4.455,7.084,4.939,11.736c2.839-0.182,6.222-0.785,10.15-1.812   c0.483-0.121,0.906-0.182,1.269-0.182C158.778,88.459,159.382,88.853,159.806,89.637z M133.298,104.772   c1.419-1.57,2.371-3.836,2.855-6.797c-1.874-1.269-3.308-2.93-4.305-4.984c-0.997-2.053-1.495-4.229-1.495-6.525   c0-0.965,0.09-1.933,0.271-2.9h-0.453c-2.417,0-4.426,1.164-6.026,3.489c-1.602,2.326-2.401,5.604-2.401,9.832   c0,3.323,0.648,5.861,1.948,7.612c1.299,1.753,2.824,2.628,4.577,2.628C130.202,107.127,131.878,106.343,133.298,104.772z"></path>
	<path fill="#FFFFFF" d="M155.228,112.973c-1.722-2.507-2.583-5.633-2.583-9.38c0-4.531,0.301-8.684,0.906-12.46   c0.603-3.775,1.6-7.778,2.99-12.008c0.604-1.812,1.45-3.111,2.538-3.897c1.087-0.784,2.809-1.178,5.166-1.178   c1.328,0,2.25,0.212,2.764,0.634c0.513,0.423,0.771,1.058,0.771,1.903c0,0.484-0.333,2.116-0.997,4.894   c-0.604,2.236-1.087,4.259-1.45,6.071c-1.209,6.344-1.812,10.573-1.812,12.688c0,1.269,0.15,2.16,0.453,2.673   c0.302,0.515,0.784,0.771,1.45,0.771c0.906,0,2.039-0.906,3.398-2.719s2.81-4.561,4.35-8.246c1.541-3.685,3.036-8.216,4.486-13.594   c0.483-1.812,1.223-3.111,2.22-3.897c0.997-0.784,2.492-1.178,4.486-1.178c1.389,0,2.356,0.167,2.9,0.499   c0.543,0.333,0.815,0.951,0.815,1.857c0,1.511-0.756,5.65-2.266,12.415c-1.692,7.734-2.537,12.506-2.537,14.318   c0,1.148,0.241,2.039,0.725,2.674c0.483,0.634,1.117,0.951,1.903,0.951c1.208,0,2.642-0.739,4.305-2.22   c1.661-1.479,3.881-3.882,6.661-7.205c0.725-0.845,1.541-1.269,2.447-1.269c0.785,0,1.405,0.362,1.858,1.088   c0.453,0.725,0.68,1.722,0.68,2.99c0,2.417-0.575,4.29-1.722,5.618c-2.598,3.203-5.392,5.831-8.382,7.885   c-2.991,2.055-6.389,3.081-10.195,3.081c-2.9,0-5.029-1.117-6.389-3.354c-1.359-2.234-2.039-5.376-2.039-9.424   c-1.028,4.108-2.568,7.265-4.622,9.47c-2.055,2.206-4.259,3.308-6.616,3.308C159.17,116.734,156.95,115.481,155.228,112.973z"></path>
	<path fill="#FFFFFF" d="M222.696,102.597c0.725,0,1.314,0.407,1.767,1.223c0.453,0.816,0.68,1.799,0.68,2.945   c0,2.538-0.906,4.562-2.719,6.072c-3.142,2.598-6.706,3.896-10.693,3.896c-5.741,0-9.939-2.401-12.597-7.204   c-2.659-4.804-3.987-11.07-3.987-18.805c0-7.37,0.951-15.768,2.854-25.193c1.903-9.425,4.712-17.52,8.428-24.287   c3.716-6.765,8.141-10.149,13.276-10.149c2.9,0,5.18,1.345,6.842,4.033c1.661,2.689,2.492,6.54,2.492,11.554   c0,7.19-1.979,15.528-5.936,25.012c-3.958,9.486-9.35,18.85-16.176,28.093c0.422,2.478,1.178,4.259,2.266,5.347   c1.087,1.087,2.567,1.631,4.44,1.631c1.027,0,2.189-0.302,3.489-0.906c1.299-0.603,2.492-1.389,3.58-2.355   C221.366,102.9,222.03,102.597,222.696,102.597z M212.999,47.589c-1.753,5.016-3.293,11.237-4.622,18.668   c-1.33,7.431-2.055,14.56-2.175,21.387c4.289-7.068,7.703-14.151,10.241-21.251c2.537-7.098,3.806-13.578,3.806-19.438   c0-4.591-0.847-6.887-2.538-6.887C216.321,40.067,214.75,42.575,212.999,47.589z"></path>
	<path fill="#FFFFFF" d="M257.856,112.429c-4.834-3.05-7.25-7.717-7.25-14.001c0-3.322,0.574-5.859,1.723-7.612   c1.146-1.752,2.838-2.628,5.074-2.628c1.631,0,2.959,0.423,3.988,1.269c1.025,0.847,1.541,1.935,1.541,3.263   c0,1.209-0.092,2.266-0.273,3.172c0,0.242-0.045,0.665-0.135,1.269c-0.092,0.604-0.137,1.238-0.137,1.902   c0,2.719,1.373,4.744,4.123,6.072c2.748,1.329,6.6,1.993,11.555,1.993c5.135,0,9.152-0.92,12.053-2.764   c2.9-1.842,4.35-4.425,4.35-7.748c0-2.053-0.664-3.82-1.992-5.302c-1.33-1.479-2.992-2.719-4.984-3.715   c-1.994-0.997-4.805-2.22-8.428-3.67c-4.654-1.812-8.445-3.535-11.375-5.166c-2.93-1.631-5.436-3.852-7.521-6.661   c-2.084-2.809-3.125-6.298-3.125-10.467c0-4.35,1.162-8.215,3.488-11.6c2.324-3.383,5.678-6.011,10.059-7.884   c4.381-1.872,9.529-2.809,15.451-2.809c4.41,0,8.459,0.65,12.145,1.948c3.684,1.3,6.629,3.278,8.836,5.936   c2.203,2.659,3.307,5.921,3.307,9.787c0,3.806-0.574,6.676-1.721,8.609c-1.148,1.935-2.842,2.9-5.076,2.9   c-1.572,0-2.885-0.482-3.941-1.45c-1.059-0.966-1.586-2.114-1.586-3.444c0-1.147,0.09-2.205,0.271-3.171   c0.182-1.812,0.271-2.959,0.271-3.444c0-2.538-1.238-4.47-3.715-5.8c-2.479-1.328-5.559-1.994-9.244-1.994   c-5.195,0-9.168,0.951-11.916,2.854c-2.75,1.903-4.123,4.577-4.123,8.02c0,2.297,0.709,4.259,2.129,5.891   c1.418,1.631,3.186,2.99,5.301,4.078c2.115,1.087,5.076,2.387,8.881,3.896c4.592,1.874,8.277,3.565,11.057,5.075   c2.777,1.511,5.15,3.565,7.113,6.163c1.963,2.598,2.945,5.8,2.945,9.606c0,7.13-2.703,12.612-8.109,16.448   c-5.408,3.837-12.643,5.754-21.705,5.754C269.124,117.005,262.69,115.481,257.856,112.429z"></path>
	<path fill="#FFFFFF" d="M356.952,97.16c0.453,0.725,0.68,1.722,0.68,2.99c0,2.417-0.574,4.29-1.722,5.618   c-2.235,2.719-5.392,5.227-9.47,7.522c-4.078,2.297-8.443,3.443-13.095,3.443c-6.344,0-11.269-1.722-14.771-5.165   c-3.505-3.444-5.257-8.156-5.257-14.138c0-4.169,0.875-8.05,2.628-11.645c1.752-3.594,4.184-6.448,7.296-8.563   c3.11-2.114,6.629-3.172,10.558-3.172c3.503,0,6.312,1.042,8.428,3.126c2.114,2.084,3.172,4.909,3.172,8.473   c0,4.168-1.496,7.749-4.486,10.739s-8.051,5.362-15.179,7.114c1.509,2.779,4.379,4.168,8.608,4.168   c2.719,0,5.814-0.951,9.289-2.854c3.474-1.903,6.479-4.396,9.017-7.477c0.726-0.845,1.541-1.269,2.447-1.269   C355.879,96.072,356.499,96.434,356.952,97.16z M326.594,86.829c-1.54,2.598-2.311,5.74-2.311,9.425v0.181   c3.563-0.845,6.373-2.113,8.428-3.806c2.053-1.69,3.081-3.655,3.081-5.891c0-1.147-0.317-2.069-0.951-2.764   c-0.635-0.694-1.495-1.042-2.583-1.042C330.022,82.932,328.135,84.231,326.594,86.829z"></path>
	<path fill="#FFFFFF" d="M386.494,97.16c0.453,0.725,0.68,1.722,0.68,2.99c0,2.417-0.575,4.29-1.722,5.618   c-2.599,3.203-5.424,5.831-8.474,7.885c-3.052,2.055-6.511,3.081-10.376,3.081c-5.317,0-9.259-2.416-11.826-7.25   c-2.568-4.833-3.852-11.086-3.852-18.759c0-7.37,0.951-15.768,2.854-25.193s4.712-17.52,8.428-24.287   c3.716-6.765,8.141-10.149,13.276-10.149c2.899,0,5.18,1.345,6.842,4.033c1.661,2.689,2.492,6.54,2.492,11.554   c0,7.19-1.993,15.528-5.981,25.012c-3.987,9.486-9.395,18.88-16.221,28.184c0.422,2.478,1.117,4.245,2.084,5.301   c0.966,1.058,2.234,1.586,3.807,1.586c2.477,0,4.651-0.709,6.524-2.129c1.872-1.419,4.259-3.852,7.159-7.296   c0.725-0.845,1.541-1.269,2.447-1.269C385.421,96.072,386.041,96.434,386.494,97.16z M368.777,47.589   c-1.753,5.016-3.294,11.237-4.622,18.668c-1.329,7.431-2.055,14.56-2.175,21.387c4.289-7.068,7.703-14.151,10.24-21.251   c2.538-7.098,3.807-13.578,3.807-19.438c0-4.591-0.847-6.887-2.538-6.887C372.1,40.067,370.529,42.575,368.777,47.589z"></path>
	<path fill="#FFFFFF" d="M422.107,97.16c0.453,0.725,0.68,1.722,0.68,2.99c0,2.417-0.574,4.29-1.722,5.618   c-2.235,2.719-5.392,5.227-9.47,7.522c-4.078,2.297-8.443,3.443-13.095,3.443c-6.344,0-11.269-1.722-14.771-5.165   c-3.505-3.444-5.257-8.156-5.257-14.138c0-4.169,0.875-8.05,2.628-11.645c1.752-3.594,4.184-6.448,7.296-8.563   c3.11-2.114,6.629-3.172,10.558-3.172c3.503,0,6.312,1.042,8.428,3.126c2.114,2.084,3.172,4.909,3.172,8.473   c0,4.168-1.496,7.749-4.486,10.739s-8.051,5.362-15.179,7.114c1.509,2.779,4.379,4.168,8.608,4.168   c2.719,0,5.814-0.951,9.289-2.854c3.474-1.903,6.479-4.396,9.017-7.477c0.726-0.845,1.541-1.269,2.447-1.269   C421.034,96.072,421.654,96.434,422.107,97.16z M391.749,86.829c-1.54,2.598-2.311,5.74-2.311,9.425v0.181   c3.563-0.845,6.373-2.113,8.428-3.806c2.053-1.69,3.081-3.655,3.081-5.891c0-1.147-0.317-2.069-0.951-2.764   c-0.635-0.694-1.495-1.042-2.583-1.042C395.178,82.932,393.29,84.231,391.749,86.829z"></path>
	<path fill="#FFFFFF" d="M418.936,111.705c-3.294-3.354-4.938-7.778-4.938-13.276c0-4.894,0.965-9.183,2.899-12.869   c1.933-3.684,4.44-6.525,7.521-8.519s6.312-2.99,9.697-2.99c3.321,0,5.904,0.982,7.748,2.945c1.842,1.964,2.764,4.486,2.764,7.567   c0,2.537-0.56,4.683-1.677,6.435c-1.118,1.753-2.582,2.628-4.395,2.628c-1.148,0-2.07-0.272-2.765-0.816   c-0.695-0.543-1.042-1.298-1.042-2.265c0-0.423,0.06-0.907,0.182-1.45c0.12-0.544,0.211-0.937,0.271-1.179   c0.302-0.906,0.453-1.751,0.453-2.537c0-0.784-0.196-1.389-0.589-1.812c-0.394-0.422-0.951-0.634-1.677-0.634   c-1.391,0-2.688,0.62-3.896,1.858c-1.209,1.239-2.175,2.916-2.9,5.029c-0.725,2.115-1.087,4.44-1.087,6.979   c0,7.009,3.05,10.512,9.152,10.512c2.477,0,5.15-0.83,8.021-2.492c2.869-1.661,5.693-4.153,8.473-7.477   c0.726-0.845,1.541-1.269,2.447-1.269c0.784,0,1.404,0.362,1.857,1.088c0.453,0.725,0.68,1.722,0.68,2.99   c0,2.297-0.574,4.169-1.722,5.618c-2.84,3.505-6.238,6.208-10.195,8.111s-7.779,2.854-11.463,2.854   C426.834,116.734,422.228,115.057,418.936,111.705z"></path>
	<path fill="#FFFFFF" d="M464.2,82.66c-0.122,3.022-0.182,5.378-0.182,7.069c0,4.35,0.227,7.748,0.68,10.194   c0.453,2.447,1.208,4.2,2.266,5.256c1.057,1.058,2.522,1.586,4.396,1.586c0.966,0,2.114-0.302,3.443-0.906   c1.328-0.603,2.537-1.389,3.625-2.355c0.664-0.604,1.328-0.906,1.994-0.906c0.725,0,1.313,0.407,1.767,1.223   c0.453,0.816,0.68,1.799,0.68,2.945c0,1.148-0.227,2.266-0.68,3.354c-0.453,1.087-1.133,1.993-2.039,2.719   c-3.142,2.598-6.706,3.896-10.693,3.896c-5.74,0-9.938-2.401-12.597-7.204c-2.659-4.804-3.987-11.07-3.987-18.805   c0-2.658,0.091-5.347,0.272-8.065h-3.535c-1.812,0-3.035-0.331-3.67-0.997c-0.634-0.664-0.951-1.722-0.951-3.172   c0-3.383,1.359-5.075,4.078-5.075h5.165c1.026-6.646,2.597-12.717,4.713-18.215c2.113-5.497,4.667-9.878,7.657-13.14   c2.99-3.263,6.208-4.894,9.651-4.894c2.537,0,4.531,1.119,5.981,3.353c1.449,2.236,2.175,5.045,2.175,8.428   c0,9.365-3.928,17.521-11.781,24.468h10.149c0.966,0,1.661,0.212,2.085,0.634c0.422,0.423,0.634,1.209,0.634,2.356   c0,4.169-3.414,6.253-10.24,6.253H464.2z M470.771,49.266c-1.119,2.265-2.175,5.407-3.172,9.424   c-0.997,4.019-1.828,8.474-2.492,13.367c3.563-3.082,6.237-6.539,8.02-10.376c1.781-3.836,2.674-7.325,2.674-10.467   c0-3.564-0.666-5.347-1.994-5.347C472.899,45.867,471.888,47,470.771,49.266z"></path>
</g>
</svg>