<svg xmlns="http://www.w3.org/2000/svg" viewBox="0 0 134.61 134.61"><defs><style>.cls-1{fill:#ff5fab;}</style></defs><g id="레이어_2" data-name="레이어 2"><g id="레이어_1-2" data-name="레이어 1"><path class="cls-1" d="M67.31,134.61A67.31,67.31,0,0,1,67.29,0h0a67.31,67.31,0,0,1,0,134.61ZM67.31,5h0a62.31,62.31,0,0,0,0,124.61h0A62.31,62.31,0,0,0,67.31,5Z"/><path class="cls-1" d="M83.09,113.05H49.89a3.73,3.73,0,0,1-3.72-3.73V63.59A12.81,12.81,0,0,1,59,50.79H74.1a12.81,12.81,0,0,1,12.79,12.8v45.66A3.81,3.81,0,0,1,83.09,113.05ZM59,52.36A11.24,11.24,0,0,0,47.73,63.59v45.73a2.17,2.17,0,0,0,2.16,2.17h33.2a2.25,2.25,0,0,0,2.24-2.24V63.59A11.24,11.24,0,0,0,74.1,52.36Z"/><path class="cls-1" d="M76.14,52.61H56.92a.78.78,0,0,1-.78-.78V40.69a3,3,0,0,1,3-2.95H74.21a2.71,2.71,0,0,1,2.71,2.71V51.83A.78.78,0,0,1,76.14,52.61ZM57.7,51H75.36V40.45a1.16,1.16,0,0,0-1.15-1.15H59.09a1.4,1.4,0,0,0-1.39,1.39Z"/><path class="cls-1" d="M71.62,39.3a.77.77,0,0,1-.76-.6C70.08,35.41,72,32,72.31,31.5a6.33,6.33,0,1,0-11.53.06c.47.84,2.89,5.38,1.65,7.37a.79.79,0,0,1-1.08.26.78.78,0,0,1-.25-1.08c.5-.81-.5-3.66-1.71-5.83a7.9,7.9,0,1,1,15-3.37,7.73,7.73,0,0,1-.72,3.28l0,.09s-2,3.24-1.29,6.06a.78.78,0,0,1-.58.94A.55.55,0,0,1,71.62,39.3Z"/><path class="cls-1" d="M50.87,82a.79.79,0,0,1-.79-.79V63.59A8.89,8.89,0,0,1,59,54.71a.78.78,0,1,1,0,1.56,7.32,7.32,0,0,0-7.31,7.32V81.2A.78.78,0,0,1,50.87,82Z"/><path class="cls-1" d="M50.87,88.91a.79.79,0,0,1-.79-.79V84.47a.79.79,0,1,1,1.57,0v3.65A.79.79,0,0,1,50.87,88.91Z"/><path class="cls-1" d="M50.87,109.14a.79.79,0,0,1-.79-.79V91.12a.79.79,0,0,1,1.57,0v17.23A.78.78,0,0,1,50.87,109.14Z"/><path class="cls-1" d="M63.58,30.92a.79.79,0,0,1-.73-.48,4,4,0,0,1,3.68-5.51.78.78,0,0,1,0,1.56,2.43,2.43,0,0,0-2.42,2.42,2.4,2.4,0,0,0,.19.92.78.78,0,0,1-.72,1.09Z"/><path class="cls-1" d="M60.36,49.71a.78.78,0,0,1-.78-.78V41.29a.78.78,0,0,1,.78-.78.79.79,0,0,1,.79.78v7.64A.79.79,0,0,1,60.36,49.71Z"/></g></g></svg>