<svg xmlns="http://www.w3.org/2000/svg" xmlns:xlink="http://www.w3.org/1999/xlink" id="Layer_1" x="0px" y="0px" width="475px" height="475px" viewBox="0 0 475 475" xml:space="preserve">
<path d="M149.561,373.486c-28.031,0-50.758,22.723-50.758,50.758c0,28.031,22.727,50.754,50.758,50.754s50.758-22.723,50.758-50.754  C200.28,396.225,177.576,373.525,149.561,373.486z M149.561,455.016c-16.998,0-30.775-13.778-30.775-30.771  c0-16.997,13.777-30.775,30.775-30.775s30.775,13.778,30.775,30.775C180.328,441.237,166.554,455.012,149.561,455.016z"></path>
<path d="M363.279,373.486c-28.031,0-50.754,22.723-50.754,50.758c0,28.031,22.723,50.754,50.754,50.754  c28.035,0,50.758-22.723,50.758-50.754C413.998,396.225,391.299,373.525,363.279,373.486z M363.279,455.016  c-16.994,0-30.771-13.778-30.771-30.771c0-16.997,13.777-30.775,30.771-30.775c16.997,0,30.774,13.778,30.774,30.775  C394.046,441.237,380.272,455.012,363.279,455.016z"></path>
<path d="M432.221,93.523H93.908l-7.396-43.565C81.661,21.084,56.643-0.047,27.363,0H10.377C4.858,0,0.385,4.473,0.385,9.992  c0,5.519,4.473,9.992,9.992,9.992h16.986c19.511-0.078,36.192,14.023,39.369,33.272l40.064,236.102  c4.852,28.871,29.873,50.006,59.149,49.959h228.011c5.515,0,9.992-4.478,9.992-9.992c0-5.52-4.478-9.992-9.992-9.992H166.047  c-19.511,0.074-36.192-14.023-39.365-33.271l-3.298-19.184h223.91c26.192,0.055,49.364-16.959,57.154-41.965l37.266-118.4  c0.979-3.032,0.422-6.35-1.499-8.895C438.341,95.076,435.383,93.558,432.221,93.523z M385.362,218.816  c-5.227,16.677-20.693,28.015-38.167,27.976H119.984l-22.68-133.388h321.229L385.362,218.816z"></path>
</svg>