<svg xmlns="http://www.w3.org/2000/svg" viewBox="0 0 149.93 124.9"><g id="레이어_2" data-name="레이어 2"><g id="레이어_1-2" data-name="레이어 1"><path d="M122.43,64.21q0,8.25-3.76,12.25t-11.61,4q-7.31,0-11.1-4T92.17,64.4V45.59h10.38V64.78a8.87,8.87,0,0,0,1.23,5.08,4,4,0,0,0,3.52,1.78A4.07,4.07,0,0,0,110.83,70,8.44,8.44,0,0,0,112,65V45.59h10.39Z"/><path d="M127.8,79.87V45.59h10.32v26.2h11.81v8.08Z"/><path d="M0,124.9V90.62H10.33v26.2h11.8v8.08Z"/><path d="M27.5,124.9V90.62H37.82V124.9Z"/><path d="M53.51,98.7v6.17H63.69V113H53.51v12H43.19V90.62H64.67V98.7Z"/><path d="M70,124.9V90.62H91.38V98.7h-11v5H90.71v8.08H80.36v5H92.17v8.08Z"/><path d="M25.22,24.48a9.89,9.89,0,0,1-1.83,5.95,10.85,10.85,0,0,1-5.13,3.78,22.73,22.73,0,0,1-7.93,1.24A25.94,25.94,0,0,1,.48,33.63V24.24a19.32,19.32,0,0,0,4.75,2.54,13.93,13.93,0,0,0,4.86,1,4.76,4.76,0,0,0,2.63-.61,2,2,0,0,0,.93-1.78,2.41,2.41,0,0,0-.47-1.47,4.5,4.5,0,0,0-1.41-1.18,25.7,25.7,0,0,0-3.5-1.51Q0,18,0,10.92A9.59,9.59,0,0,1,3.78,3Q7.55,0,13.91,0c1.2,0,2.3.05,3.3.14S19.13.36,20,.5s2,.42,3.45.81V10a17.61,17.61,0,0,0-8.51-2.37,5.23,5.23,0,0,0-2.77.65,2,2,0,0,0-1,1.77,2.21,2.21,0,0,0,.85,1.78,15.6,15.6,0,0,0,3.55,1.83Q20.8,15.85,23,18.41A9,9,0,0,1,25.22,24.48Z"/><path d="M29.4,34.85V.57H50.75V8.65h-11v5H50.08v8.08H39.73v5H51.54v8.08Z"/><path d="M89,17.62a18.91,18.91,0,0,1-2.23,9.24,15.89,15.89,0,0,1-6.21,6.33,18.77,18.77,0,0,1-17.73.07,15.52,15.52,0,0,1-6.15-6.14,18.07,18.07,0,0,1-2.2-8.95,19.79,19.79,0,0,1,2.22-9.42A15.76,15.76,0,0,1,63,2.28,18.17,18.17,0,0,1,72.09,0,17.61,17.61,0,0,1,80.9,2.19a14.81,14.81,0,0,1,6,6.24A19.55,19.55,0,0,1,89,17.62Zm-11,.28a11.86,11.86,0,0,0-1.63-6.67A5.07,5.07,0,0,0,72,8.8a5.63,5.63,0,0,0-4.81,2.34,11.07,11.07,0,0,0-1.72,6.62,10.92,10.92,0,0,0,1.71,6.53,5.46,5.46,0,0,0,4.65,2.34,5.34,5.34,0,0,0,3.23-1.05,6.81,6.81,0,0,0,2.22-3A12.35,12.35,0,0,0,78.07,17.9Z"/><rect x="127.8" y="116.82" width="22.13" height="8.08"/><rect x="127.8" y="1.01" width="22.13" height="8.08"/><path d="M11.07,56.66A11.07,11.07,0,0,0,22.13,45.59H0A11.07,11.07,0,0,0,11.07,56.66Z"/></g></g></svg>