<svg xmlns="http://www.w3.org/2000/svg" viewBox="0 0 134.61 134.61"><defs><style>.cls-1{fill:#ff5fab;}</style></defs><g id="레이어_2" data-name="레이어 2"><g id="레이어_1-2" data-name="레이어 1"><path class="cls-1" d="M67.31,134.61A67.31,67.31,0,0,1,67.29,0h0a67.38,67.38,0,0,1,67.3,67.29h0a67.38,67.38,0,0,1-67.29,67.32ZM67.31,5h0a62.31,62.31,0,1,0,0,124.61h0a62.37,62.37,0,0,0,62.29-62.32h0A62.38,62.38,0,0,0,67.31,5Z"/><path class="cls-1" d="M83.13,107h-30a2.54,2.54,0,0,1-2.54-2.53V51.18a.85.85,0,0,1,.85-.84H84.82a.85.85,0,0,1,.84.84v53.24A2.53,2.53,0,0,1,83.13,107ZM52.31,52v52.4a.85.85,0,0,0,.85.85h30a.86.86,0,0,0,.85-.85V52Z"/><path class="cls-1" d="M84.82,52H51.47a.84.84,0,0,1-.85-.84V44.25a17.52,17.52,0,1,1,35,0v6.93A.84.84,0,0,1,84.82,52ZM52.31,50.34H84V44.25a15.84,15.84,0,1,0-31.67,0Z"/><path class="cls-1" d="M55.67,45.09a.85.85,0,0,1-.84-.85A13.32,13.32,0,0,1,68.14,30.93a.84.84,0,1,1,0,1.68A11.65,11.65,0,0,0,56.51,44.24.85.85,0,0,1,55.67,45.09Z"/><path class="cls-1" d="M55.67,102.19a.85.85,0,0,1-.84-.84V93.5a.84.84,0,1,1,1.68,0v7.85A.85.85,0,0,1,55.67,102.19Z"/><path class="cls-1" d="M55.67,90a.85.85,0,0,1-.84-.84V85.93a.84.84,0,1,1,1.68,0v3.23A.85.85,0,0,1,55.67,90Z"/><path class="cls-1" d="M55.67,82.57a.85.85,0,0,1-.84-.84V47.54a.84.84,0,0,1,1.68,0V81.73A.85.85,0,0,1,55.67,82.57Z"/><path class="cls-1" d="M69.45,64.48V64a6.4,6.4,0,0,0-3.71,1.71l.34.35A5.93,5.93,0,0,1,69.45,64.48Z"/><path class="cls-1" d="M65.42,66.77l-.35-.35a6.35,6.35,0,0,0-1.36,3.69h.49A5.88,5.88,0,0,1,65.42,66.77Z"/><path class="cls-1" d="M74,65.87l.35-.35A6.41,6.41,0,0,0,70.44,64v.49A5.92,5.92,0,0,1,74,65.87Z"/><path class="cls-1" d="M76.05,70.11h.49A6.39,6.39,0,0,0,75,66.22l-.34.35A5.87,5.87,0,0,1,76.05,70.11Z"/><path class="cls-1" d="M70.44,76.29v.5a6.37,6.37,0,0,0,3.64-1.36l-.35-.35A5.82,5.82,0,0,1,70.44,76.29Z"/><path class="cls-1" d="M64.24,71.09h-.5a6.42,6.42,0,0,0,1.53,3.49l.35-.35A5.91,5.91,0,0,1,64.24,71.09Z"/><path class="cls-1" d="M66.32,74.93l-.35.34a6.38,6.38,0,0,0,3.48,1.5v-.5A5.94,5.94,0,0,1,66.32,74.93Z"/><path class="cls-1" d="M74.46,74.42l.35.34a6.4,6.4,0,0,0,1.7-3.67H76A5.87,5.87,0,0,1,74.46,74.42Z"/><path class="cls-1" d="M64.74,71.09h-.5a5.91,5.91,0,0,0,1.38,3.14l.35-.35A5.34,5.34,0,0,1,64.74,71.09Z"/><path class="cls-1" d="M70.44,75.8v.49a5.82,5.82,0,0,0,3.29-1.21l-.35-.35A5.39,5.39,0,0,1,70.44,75.8Z"/><path class="cls-1" d="M74.33,66.92a5.42,5.42,0,0,1,1.23,3.19h.49a5.87,5.87,0,0,0-1.37-3.54Z"/><path class="cls-1" d="M66.67,74.58l-.35.35a5.94,5.94,0,0,0,3.13,1.34v-.5A5.44,5.44,0,0,1,66.67,74.58Z"/><path class="cls-1" d="M65.77,67.12l-.35-.35a5.88,5.88,0,0,0-1.22,3.34h.5A5.37,5.37,0,0,1,65.77,67.12Z"/><path class="cls-1" d="M73.63,66.22l.35-.35a5.92,5.92,0,0,0-3.54-1.42V65A5.39,5.39,0,0,1,73.63,66.22Z"/><path class="cls-1" d="M69.45,65v-.5A5.93,5.93,0,0,0,66.08,66l.35.35A5.38,5.38,0,0,1,69.45,65Z"/><path class="cls-1" d="M74.11,74.07l.35.35A5.87,5.87,0,0,0,76,71.09h-.49A5.5,5.5,0,0,1,74.11,74.07Z"/><path class="cls-1" d="M70.44,64V61.48A.49.49,0,0,0,70,61a.5.5,0,0,0-.5.49V64c.23,0,.45,0,.68,0Z"/><path class="cls-1" d="M69.45,76.77v3a.5.5,0,0,0,.5.49.49.49,0,0,0,.49-.49V76.79h-.31C69.9,76.8,69.68,76.79,69.45,76.77Z"/><path class="cls-1" d="M70.13,76.31c-.23,0-.45,0-.68,0v.5c.23,0,.45,0,.68,0h.31v-.5Z"/><path class="cls-1" d="M70.13,64.44h.31V64h-.31c-.23,0-.45,0-.68,0v.5A5.17,5.17,0,0,1,70.13,64.44Z"/><path class="cls-1" d="M70.13,75.82a5.19,5.19,0,0,1-.68,0v.5c.23,0,.45,0,.68,0l.31,0V75.8Z"/><path class="cls-1" d="M70.13,64.93l.31,0v-.5h-.31a5.17,5.17,0,0,0-.68,0V65A5.19,5.19,0,0,1,70.13,64.93Z"/><path class="cls-1" d="M65.74,65.69,63.85,63.8a.49.49,0,0,0-.7.7l1.92,1.92A6.59,6.59,0,0,1,65.74,65.69Z"/><path class="cls-1" d="M74.08,75.43l2,2a.5.5,0,0,0,.35.14.49.49,0,0,0,.34-.14.48.48,0,0,0,0-.7l-1.93-1.94A6.59,6.59,0,0,1,74.08,75.43Z"/><path class="cls-1" d="M66.08,66l-.34-.35a6.59,6.59,0,0,0-.67.73l.35.35A5.72,5.72,0,0,1,66.08,66Z"/><path class="cls-1" d="M73.73,75.08l.35.35a6.59,6.59,0,0,0,.73-.67l-.35-.34A5.72,5.72,0,0,1,73.73,75.08Z"/><path class="cls-1" d="M66.43,66.39,66.08,66a5.72,5.72,0,0,0-.66.73l.35.35A5.72,5.72,0,0,1,66.43,66.39Z"/><path class="cls-1" d="M73.38,74.73l.35.35a5.72,5.72,0,0,0,.73-.66l-.35-.35A5.72,5.72,0,0,1,73.38,74.73Z"/><path class="cls-1" d="M63.71,70.11H60.83a.49.49,0,0,0,0,1h2.91a5.58,5.58,0,0,1,0-.72C63.7,70.28,63.71,70.2,63.71,70.11Z"/><path class="cls-1" d="M79.07,70.11H76.54c0,.09,0,.17,0,.26a5.58,5.58,0,0,1,0,.72h2.56a.49.49,0,1,0,0-1Z"/><path class="cls-1" d="M64.19,70.37c0-.09,0-.17,0-.26h-.49c0,.09,0,.17,0,.26a5.58,5.58,0,0,0,0,.72h.5A5.55,5.55,0,0,1,64.19,70.37Z"/><path class="cls-1" d="M76.54,70.11h-.49c0,.09,0,.17,0,.26a5.55,5.55,0,0,1,0,.72h.5a5.58,5.58,0,0,0,0-.72C76.55,70.28,76.54,70.2,76.54,70.11Z"/><path class="cls-1" d="M75.57,70.37a5.55,5.55,0,0,1,0,.72H76a5.55,5.55,0,0,0,0-.72c0-.09,0-.17,0-.26h-.49C75.56,70.2,75.57,70.28,75.57,70.37Z"/><path class="cls-1" d="M64.68,70.37a2.28,2.28,0,0,1,0-.26h-.5c0,.09,0,.17,0,.26a5.55,5.55,0,0,0,0,.72h.5A4.2,4.2,0,0,1,64.68,70.37Z"/><path class="cls-1" d="M65.27,74.58,63.15,76.7a.5.5,0,0,0,0,.7.51.51,0,0,0,.7,0L66,75.27A6.51,6.51,0,0,1,65.27,74.58Z"/><path class="cls-1" d="M75,66.22l1.72-1.72a.48.48,0,0,0,0-.7.49.49,0,0,0-.69,0l-1.72,1.72A6.51,6.51,0,0,1,75,66.22Z"/><path class="cls-1" d="M74.68,66.57l.34-.35a6.51,6.51,0,0,0-.69-.7l-.35.35A5.14,5.14,0,0,1,74.68,66.57Z"/><path class="cls-1" d="M65.62,74.23l-.35.35a6.51,6.51,0,0,0,.7.69l.35-.34A6.61,6.61,0,0,1,65.62,74.23Z"/><path class="cls-1" d="M66,73.88l-.35.35a6.61,6.61,0,0,0,.7.7l.35-.35A5.14,5.14,0,0,1,66,73.88Z"/><path class="cls-1" d="M74.33,66.92l.35-.35a5.14,5.14,0,0,0-.7-.7l-.35.35A5.14,5.14,0,0,1,74.33,66.92Z"/></g></g></svg>