<svg xmlns="http://www.w3.org/2000/svg" viewBox="0 0 140.61 140.61"><defs><style>.cls-1{fill:#ff5fab;}</style></defs><g id="레이어_2" data-name="레이어 2"><g id="레이어_1-2" data-name="레이어 1"><path class="cls-1" d="M70.31,140.61A70.31,70.31,0,0,1,70.29,0h0A70.31,70.31,0,0,1,120,120a69.82,69.82,0,0,1-49.71,20.6ZM70.31,5h0a65.31,65.31,0,0,0,0,130.61h0A65.3,65.3,0,0,0,116.47,24.12,64.86,64.86,0,0,0,70.31,5Z"/><path class="cls-1" d="M70.31,112.94a42.64,42.64,0,1,1,42.63-42.63A42.68,42.68,0,0,1,70.31,112.94Zm0-83.8a41.17,41.17,0,1,0,41.16,41.17A41.22,41.22,0,0,0,70.31,29.14Z"/><path class="cls-1" d="M93.53,59.14a.73.73,0,0,1-.56-.25c-6.1-7.08-14.16-11-22.79-11S53.65,51.85,47.64,58.88a.74.74,0,0,1-1,.09.75.75,0,0,1-.08-1c6.29-7.37,14.69-11.44,23.66-11.46h.07c9,0,17.47,4.07,23.84,11.46a.74.74,0,0,1-.56,1.21Z"/><path class="cls-1" d="M110.26,75.47H85.34a.72.72,0,0,1-.62-.34C80.19,68,75.26,64.4,70.08,64.4h0C61.2,64.4,54.32,75,54.25,75.13a.71.71,0,0,1-.62.34H28.72a.74.74,0,1,1,0-1.47H53.24c1.31-1.93,8-11.07,16.83-11.07C75.71,62.93,81,66.65,85.74,74h24.52a.74.74,0,0,1,0,1.47Z"/></g></g></svg>