<svg xmlns="http://www.w3.org/2000/svg" xmlns:xlink="http://www.w3.org/1999/xlink" id="Layer_1" x="0px" y="0px" width="510px" height="510px" viewBox="0 0 510 510" xml:space="preserve">
<g>
	<g>
		<defs>
			<path id="SVGID_1_" d="M503.47,254.932C503.509,392.999,391.606,504.954,253.534,505     C115.466,505.039,3.505,393.141,3.469,255.066C3.433,116.994,115.328,5.036,253.398,5     C391.473,4.964,503.424,116.859,503.47,254.932z"></path>
		</defs>
		<clipPath id="SVGID_2_">
			<use xlink:href="#SVGID_1_"></use>
		</clipPath>
		<path clip-path="url(#SVGID_2_)" fill="#FF5FAB" d="M503.47,254.932C503.509,392.999,391.606,504.954,253.534,505    C115.464,505.039,3.505,393.141,3.469,255.066C3.433,116.994,115.328,5.036,253.398,5    C391.473,4.964,503.424,116.859,503.47,254.932z"></path>
	</g>
	<g>
		<defs>
			<path id="SVGID_3_" d="M503.47,254.932C503.509,392.999,391.606,504.954,253.534,505     C115.466,505.039,3.505,393.141,3.469,255.066C3.433,116.994,115.328,5.036,253.398,5     C391.473,4.964,503.424,116.859,503.47,254.932z"></path>
		</defs>
		<clipPath id="SVGID_4_">
			<use xlink:href="#SVGID_3_"></use>
		</clipPath>
		<g clip-path="url(#SVGID_4_)">
			<path fill="#FFFFFF" d="M250.725,359.695l-62.205,0.02l26.104-123.247l6.854-31.396h-1.167l-10.802,25.992l-58.957,128.659     l-57.969,0.02L85.103,238.4c-0.585-8.18-0.881-19.276-0.884-33.293h-1.313c-2.818,21.517-6.075,41.181-9.768,58.993     l-20.27,95.648l-55.927,0.016L41.13,150.359l88.487-0.023l7.336,125.139c0,6.328-0.243,12.901-0.727,19.715h0.875     c1.654-4.678,3.355-9.567,5.108-14.678c1.752-5.111,3.55-9.713,5.401-13.801l51.075-116.393l96.372-0.027L250.725,359.695z"></path>
			<path fill="#FFFFFF" d="M399.078,359.657l-63.371,0.018l15.165-71.849l-35.228-137.542l68.483-0.018l8.633,65.854     c0.978,7.496,1.463,14.893,1.468,22.196h0.585c4.376-11.392,7.293-18.399,8.757-21.031l35.754-67.033L510,150.234     l-95.756,136.702L399.078,359.657z"></path>
		</g>
	</g>
</g>
</svg>