<svg xmlns="http://www.w3.org/2000/svg" xmlns:xlink="http://www.w3.org/1999/xlink" id="Layer_1" x="0px" y="0px" width="300px" height="300px" viewBox="0 0 300 300" xml:space="preserve">
<g>
	<path fill="#1A1A1A" d="M214.278,295c4.59,0,9.179-1.752,12.683-5.256c7.008-7.007,7.008-18.358,0-25.365L112.582,150   L226.961,35.621c7.008-7.007,7.008-18.358,0-25.366c-7.007-7.007-18.358-7.007-25.365,0L80.501,131.338   c-0.549,0.175-1.098,0.374-1.646,0.596c-6.703,2.779-11.071,9.319-11.071,16.571v2.99c0,7.252,4.368,13.792,11.071,16.571   c0.549,0.223,1.098,0.421,1.646,0.596l121.095,121.082C205.1,293.248,209.688,295,214.278,295z"></path>
</g>
</svg>