<svg xmlns="http://www.w3.org/2000/svg" xmlns:xlink="http://www.w3.org/1999/xlink" id="Layer_1" x="0px" y="0px" width="340.16px" height="113.39px" viewBox="0 0 340.16 113.39" xml:space="preserve">
<pattern width="245.106" height="231.65" patternUnits="userSpaceOnUse" id="Unnamed_Pattern" viewBox="0.16 -231.65 245.106 231.65">
	<g>
		<polygon fill="none" points="0.16,-231.65 245.266,-231.65 245.266,0 0.16,0   "></polygon>
		<g>
			<defs>
				<rect id="SVGID_1_" x="0.16" y="-231.65" width="245.106" height="231.65"></rect>
			</defs>
			<clipPath id="SVGID_2_">
				<use xlink:href="#SVGID_1_"></use>
			</clipPath>
			<polygon clip-path="url(#SVGID_2_)" fill="#FFFFFF" points="88.646,-31.262 12.645,-31.262 12.645,-12.116 88.646,-12.116    "></polygon>
			<polygon clip-path="url(#SVGID_2_)" fill="none" stroke="#010101" stroke-width="0.5" stroke-miterlimit="10" points="     88.646,-31.262 12.645,-31.262 12.645,-12.116 88.646,-12.116    "></polygon>
			<path clip-path="url(#SVGID_2_)" fill="#EF60A3" d="M189.429-39.771c-8.54,0-13.37,4.076-16.255,6.512     c-2.134,1.8-2.416,1.997-3.91,1.997c-1.492,0-1.776-0.197-3.908-1.997c-2.885-2.436-7.715-6.512-16.255-6.512     s-13.368,4.078-16.251,6.515c-2.13,1.797-2.412,1.994-3.898,1.994c-1.489,0-1.774-0.197-3.903-1.996     c-2.885-2.436-7.715-6.513-16.253-6.513c-8.54,0-13.368,4.078-16.252,6.515c-2.129,1.797-2.412,1.994-3.897,1.994v19.146     c8.538,0,13.366-4.078,16.249-6.515c2.13-1.798,2.412-1.995,3.9-1.995c1.487,0,1.772,0.197,3.901,1.996     c2.885,2.437,7.715,6.514,16.255,6.514c8.538,0,13.366-4.078,16.25-6.515c2.129-1.798,2.411-1.995,3.899-1.995     c1.491,0,1.776,0.197,3.907,1.998c2.886,2.436,7.716,6.512,16.256,6.512c8.542,0,13.372-4.076,16.257-6.512     c2.132-1.801,2.416-1.998,3.908-1.998V-39.771z"></path>
			<path clip-path="url(#SVGID_2_)" fill="none" stroke="#010101" stroke-width="0.5" stroke-miterlimit="10" d="M189.429-39.771     c-8.54,0-13.37,4.076-16.255,6.512c-2.134,1.8-2.416,1.997-3.91,1.997c-1.492,0-1.776-0.197-3.908-1.997     c-2.885-2.436-7.715-6.512-16.255-6.512s-13.368,4.078-16.251,6.515c-2.13,1.797-2.412,1.994-3.898,1.994     c-1.489,0-1.774-0.197-3.903-1.996c-2.885-2.436-7.715-6.513-16.253-6.513c-8.54,0-13.368,4.078-16.252,6.515     c-2.129,1.797-2.412,1.994-3.897,1.994v19.146c8.538,0,13.366-4.078,16.249-6.515c2.13-1.798,2.412-1.995,3.9-1.995     c1.487,0,1.772,0.197,3.901,1.996c2.885,2.437,7.715,6.514,16.255,6.514c8.538,0,13.366-4.078,16.25-6.515     c2.129-1.798,2.411-1.995,3.899-1.995c1.491,0,1.776,0.197,3.907,1.998c2.886,2.436,7.716,6.512,16.256,6.512     c8.542,0,13.372-4.076,16.257-6.512c2.132-1.801,2.416-1.998,3.908-1.998V-39.771z"></path>
			<polygon clip-path="url(#SVGID_2_)" fill="#FFFFFF" points="88.762,-64.172 134.728,-64.172 134.728,-83.316 88.762,-83.316         "></polygon>
			<polygon clip-path="url(#SVGID_2_)" fill="none" stroke="#010101" stroke-width="0.5" stroke-miterlimit="10" points="     88.762,-64.172 134.728,-64.172 134.728,-83.316 88.762,-83.316    "></polygon>
			<path clip-path="url(#SVGID_2_)" fill="#EF60A3" d="M84.865-62.178c-2.884,2.438-7.711,6.516-16.251,6.516     c-8.539,0-13.368-4.077-16.254-6.514c-2.129-1.799-2.414-1.996-3.903-1.996c-1.486,0-1.768,0.197-3.897,1.994     c-2.884,2.438-7.712,6.516-16.252,6.516c-0.167,0-0.323-0.013-0.487-0.016v-19.142c0.149,0.008,0.309,0.012,0.487,0.012     c1.488,0,1.77-0.198,3.9-1.996c2.883-2.436,7.711-6.513,16.249-6.513c8.54,0,13.37,4.076,16.255,6.512     c2.13,1.799,2.414,1.997,3.902,1.997c1.487,0,1.77-0.198,3.899-1.996c2.883-2.436,7.711-6.513,16.249-6.513v19.145     C87.277-64.172,86.994-63.975,84.865-62.178"></path>
			<path clip-path="url(#SVGID_2_)" fill="none" stroke="#010101" stroke-width="0.5" stroke-miterlimit="10" d="M84.865-62.178     c-2.884,2.438-7.711,6.516-16.251,6.516c-8.539,0-13.368-4.077-16.254-6.514c-2.129-1.799-2.414-1.996-3.903-1.996     c-1.486,0-1.768,0.197-3.897,1.994c-2.884,2.438-7.712,6.516-16.252,6.516c-0.167,0-0.323-0.013-0.487-0.016v-19.142     c0.149,0.008,0.309,0.012,0.487,0.012c1.488,0,1.77-0.198,3.9-1.996c2.883-2.436,7.711-6.513,16.249-6.513     c8.54,0,13.37,4.076,16.255,6.512c2.13,1.799,2.414,1.997,3.902,1.997c1.487,0,1.77-0.198,3.899-1.996     c2.883-2.436,7.711-6.513,16.249-6.513v19.145C87.277-64.172,86.994-63.975,84.865-62.178z"></path>
			<polygon clip-path="url(#SVGID_2_)" fill="#FFFFFF" points="40.465,-109.8 76.117,-109.8 76.117,-128.944 40.465,-128.944    "></polygon>
			<polygon clip-path="url(#SVGID_2_)" fill="none" stroke="#010101" stroke-width="0.5" stroke-miterlimit="10" points="     40.465,-109.8 76.117,-109.8 76.117,-128.944 40.465,-128.944    "></polygon>
			<path clip-path="url(#SVGID_2_)" fill="#EF60A3" d="M0.16-128.944c8.54,0,13.37,4.077,16.256,6.513     c2.129,1.8,2.413,1.996,3.901,1.996c1.487,0,1.77-0.196,3.899-1.995c2.883-2.436,7.711-6.514,16.249-6.514v19.146     c-1.485,0-1.767,0.196-3.897,1.993c-2.883,2.438-7.711,6.516-16.251,6.516c-8.538,0-13.368-4.077-16.254-6.514     c-2.129-1.799-2.413-1.995-3.903-1.995"></path>
			<path clip-path="url(#SVGID_2_)" fill="none" stroke="#010101" stroke-width="0.5" stroke-miterlimit="10" d="M0.16-128.944     c8.54,0,13.37,4.077,16.256,6.513c2.129,1.8,2.413,1.996,3.901,1.996c1.487,0,1.77-0.196,3.899-1.995     c2.883-2.436,7.711-6.514,16.249-6.514v19.146c-1.485,0-1.767,0.196-3.897,1.993c-2.883,2.438-7.711,6.516-16.251,6.516     c-8.538,0-13.368-4.077-16.254-6.514c-2.129-1.799-2.413-1.995-3.903-1.995"></path>
			<path clip-path="url(#SVGID_2_)" fill="#EF60A3" d="M245.266-109.799c-1.485,0-1.768,0.196-3.897,1.994     c-2.884,2.437-7.711,6.515-16.252,6.515c-8.538,0-13.367-4.077-16.253-6.513c-2.129-1.8-2.414-1.996-3.903-1.996v-19.146     c8.54,0,13.37,4.077,16.255,6.513c2.129,1.799,2.414,1.996,3.901,1.996c1.488,0,1.77-0.197,3.9-1.995     c2.883-2.436,7.711-6.514,16.249-6.514"></path>
			<path clip-path="url(#SVGID_2_)" fill="none" stroke="#010101" stroke-width="0.5" stroke-miterlimit="10" d="M245.266-109.799     c-1.485,0-1.768,0.196-3.897,1.994c-2.884,2.437-7.711,6.515-16.252,6.515c-8.538,0-13.367-4.077-16.253-6.513     c-2.129-1.8-2.414-1.996-3.903-1.996v-19.146c8.54,0,13.37,4.077,16.255,6.513c2.129,1.799,2.414,1.996,3.901,1.996     c1.488,0,1.77-0.197,3.9-1.995c2.883-2.436,7.711-6.514,16.249-6.514"></path>
			<path clip-path="url(#SVGID_2_)" fill="#EF60A3" d="M0.16-173.8c1.558,1.296,1.937,1.457,3.26,1.457     c1.486,0,1.768-0.197,3.897-1.993c2.884-2.438,7.712-6.516,16.252-6.516c8.54,0,13.37,4.076,16.255,6.511     c2.132,1.801,2.416,1.998,3.908,1.998c1.493,0,1.776-0.197,3.909-1.998c2.886-2.435,7.716-6.511,16.256-6.511v19.146     c-1.492,0-1.776,0.196-3.908,1.997c-2.885,2.436-7.715,6.512-16.257,6.512c-8.54,0-13.37-4.076-16.256-6.512     c-2.131-1.801-2.416-1.997-3.907-1.997c-1.488,0-1.77,0.196-3.899,1.995c-2.884,2.436-7.712,6.514-16.25,6.514     c-1.155,0-2.236-0.08-3.26-0.215"></path>
			<path clip-path="url(#SVGID_2_)" fill="none" stroke="#010101" stroke-width="0.5" stroke-miterlimit="10" d="M0.16-173.8     c1.558,1.296,1.937,1.457,3.26,1.457c1.486,0,1.768-0.197,3.897-1.993c2.884-2.438,7.712-6.516,16.252-6.516     c8.54,0,13.37,4.076,16.255,6.511c2.132,1.801,2.416,1.998,3.908,1.998c1.493,0,1.776-0.197,3.909-1.998     c2.886-2.435,7.716-6.511,16.256-6.511v19.146c-1.492,0-1.776,0.196-3.908,1.997c-2.885,2.436-7.715,6.512-16.257,6.512     c-8.54,0-13.37-4.076-16.256-6.512c-2.131-1.801-2.416-1.997-3.907-1.997c-1.488,0-1.77,0.196-3.899,1.995     c-2.884,2.436-7.712,6.514-16.25,6.514c-1.155,0-2.236-0.08-3.26-0.215"></path>
			<polygon clip-path="url(#SVGID_2_)" fill="#FFFFFF" points="208.221,-172.343 115.957,-172.343 115.957,-153.197      208.221,-153.197    "></polygon>
			<polygon clip-path="url(#SVGID_2_)" fill="none" stroke="#010101" stroke-width="0.5" stroke-miterlimit="10" points="     208.221,-172.343 115.957,-172.343 115.957,-153.197 208.221,-153.197    "></polygon>
			<path clip-path="url(#SVGID_2_)" fill="#EF60A3" d="M245.266-153.412c-6.545-0.863-10.5-4.192-12.995-6.298     c-2.13-1.799-2.414-1.996-3.901-1.996c-1.488,0-1.771,0.197-3.9,1.995c-2.883,2.436-7.711,6.514-16.249,6.514v-19.145     c1.485,0,1.768-0.198,3.897-1.995c2.883-2.437,7.711-6.515,16.252-6.515c8.537,0,13.367,4.076,16.253,6.513     c0.238,0.202,0.447,0.377,0.643,0.54"></path>
			<path clip-path="url(#SVGID_2_)" fill="none" stroke="#010101" stroke-width="0.5" stroke-miterlimit="10" d="M245.266-153.412     c-6.545-0.863-10.5-4.192-12.995-6.298c-2.13-1.799-2.414-1.996-3.901-1.996c-1.488,0-1.771,0.197-3.9,1.995     c-2.883,2.436-7.711,6.514-16.249,6.514v-19.145c1.485,0,1.768-0.198,3.897-1.995c2.883-2.437,7.711-6.515,16.252-6.515     c8.537,0,13.367,4.076,16.253,6.513c0.238,0.202,0.447,0.377,0.643,0.54"></path>
			<polygon clip-path="url(#SVGID_2_)" fill="#FFFFFF" points="168.136,-218.698 139.038,-218.698 139.038,-199.554      168.136,-199.554    "></polygon>
			<polygon clip-path="url(#SVGID_2_)" fill="none" stroke="#010101" stroke-width="0.5" stroke-miterlimit="10" points="     168.136,-218.698 139.038,-218.698 139.038,-199.554 168.136,-199.554    "></polygon>
			<path clip-path="url(#SVGID_2_)" fill="#EF60A3" d="M208.441-199.554c-8.54,0-13.37-4.077-16.255-6.513     c-2.13-1.8-2.414-1.996-3.902-1.996c-1.487,0-1.77,0.196-3.899,1.995c-2.883,2.436-7.711,6.514-16.249,6.514v-19.146     c1.485,0,1.767-0.196,3.897-1.993c2.883-2.438,7.711-6.516,16.251-6.516c8.538,0,13.368,4.077,16.254,6.514     c2.129,1.799,2.413,1.995,3.903,1.995V-199.554z"></path>
			<path clip-path="url(#SVGID_2_)" fill="none" stroke="#010101" stroke-width="0.5" stroke-miterlimit="10" d="M208.441-199.554     c-8.54,0-13.37-4.077-16.255-6.513c-2.13-1.8-2.414-1.996-3.902-1.996c-1.487,0-1.77,0.196-3.899,1.995     c-2.883,2.436-7.711,6.514-16.249,6.514v-19.146c1.485,0,1.767-0.196,3.897-1.993c2.883-2.438,7.711-6.516,16.251-6.516     c8.538,0,13.368,4.077,16.254,6.514c2.129,1.799,2.413,1.995,3.903,1.995V-199.554z"></path>
			<path clip-path="url(#SVGID_2_)" d="M134.728-119.662c0-10.367-8.404-18.771-18.771-18.771c-10.367,0-18.772,8.404-18.772,18.771     s8.405,18.771,18.772,18.771C126.324-100.892,134.728-109.295,134.728-119.662 M120.916-119.662c0,2.739-2.22,4.959-4.959,4.959     c-2.739,0-4.96-2.22-4.96-4.959s2.221-4.959,4.96-4.959C118.696-124.621,120.916-122.401,120.916-119.662"></path>
			<path clip-path="url(#SVGID_2_)" fill="none" stroke="#010101" stroke-width="0.5" stroke-miterlimit="10" d="M134.728-119.662     c0-10.367-8.404-18.771-18.771-18.771c-10.367,0-18.772,8.404-18.772,18.771s8.405,18.771,18.772,18.771     C126.324-100.892,134.728-109.295,134.728-119.662z M120.916-119.662c0,2.739-2.22,4.959-4.959,4.959     c-2.739,0-4.96-2.22-4.96-4.959s2.221-4.959,4.96-4.959C118.696-124.621,120.916-122.401,120.916-119.662z"></path>
			<path clip-path="url(#SVGID_2_)" d="M223.732-73.744c0-10.367-8.404-18.771-18.771-18.771s-18.772,8.404-18.772,18.771     s8.405,18.771,18.772,18.771S223.732-63.377,223.732-73.744 M209.92-73.744c0,2.739-2.22,4.959-4.959,4.959     c-2.739,0-4.96-2.22-4.96-4.959s2.221-4.959,4.96-4.959C207.7-78.703,209.92-76.483,209.92-73.744"></path>
			<path clip-path="url(#SVGID_2_)" fill="none" stroke="#010101" stroke-width="0.5" stroke-miterlimit="10" d="M223.732-73.744     c0-10.367-8.404-18.771-18.771-18.771s-18.772,8.404-18.772,18.771s8.405,18.771,18.772,18.771S223.732-63.377,223.732-73.744z      M209.92-73.744c0,2.739-2.22,4.959-4.959,4.959c-2.739,0-4.96-2.22-4.96-4.959s2.221-4.959,4.96-4.959     C207.7-78.703,209.92-76.483,209.92-73.744z"></path>
			<path clip-path="url(#SVGID_2_)" d="M88.049-211.879c0-10.367-8.404-18.771-18.771-18.771c-10.367,0-18.772,8.404-18.772,18.771     c0,10.366,8.405,18.771,18.772,18.771C79.645-193.108,88.049-201.513,88.049-211.879 M74.237-211.879     c0,2.738-2.22,4.959-4.959,4.959c-2.739,0-4.96-2.221-4.96-4.959c0-2.739,2.221-4.959,4.96-4.959     C72.017-216.838,74.237-214.618,74.237-211.879"></path>
			<path clip-path="url(#SVGID_2_)" fill="none" stroke="#010101" stroke-width="0.5" stroke-miterlimit="10" d="M88.049-211.879     c0-10.367-8.404-18.771-18.771-18.771c-10.367,0-18.772,8.404-18.772,18.771c0,10.366,8.405,18.771,18.772,18.771     C79.645-193.108,88.049-201.513,88.049-211.879z M74.237-211.879c0,2.738-2.22,4.959-4.959,4.959c-2.739,0-4.96-2.221-4.96-4.959     c0-2.739,2.221-4.959,4.96-4.959C72.017-216.838,74.237-214.618,74.237-211.879z"></path>
			<path clip-path="url(#SVGID_2_)" d="M0.16-193.108v-13.812c2.739,0,4.959-2.221,4.959-4.959c0-2.739-2.22-4.959-4.959-4.959     v-13.812c10.367,0,18.771,8.404,18.771,18.771S10.527-193.108,0.16-193.108"></path>
			<path clip-path="url(#SVGID_2_)" fill="none" stroke="#010101" stroke-width="0.5" stroke-miterlimit="10" d="M0.16-230.65     c10.367,0,18.771,8.404,18.771,18.771c0,10.366-8.404,18.771-18.771,18.771"></path>
			<path clip-path="url(#SVGID_2_)" fill="none" stroke="#010101" stroke-width="0.5" stroke-miterlimit="10" d="M0.16-206.92     c2.739,0,4.959-2.22,4.959-4.959s-2.22-4.96-4.959-4.96"></path>
			<path clip-path="url(#SVGID_2_)" d="M245.266-230.65v13.812c-2.739,0-4.959,2.221-4.959,4.96c0,2.738,2.22,4.959,4.959,4.959     v13.812c-10.367,0-18.771-8.404-18.771-18.771C226.495-222.246,234.899-230.65,245.266-230.65"></path>
			<path clip-path="url(#SVGID_2_)" fill="none" stroke="#010101" stroke-width="0.5" stroke-miterlimit="10" d="M245.266-193.108     c-10.367,0-18.771-8.403-18.771-18.771s8.404-18.771,18.771-18.771"></path>
			<path clip-path="url(#SVGID_2_)" fill="none" stroke="#010101" stroke-width="0.5" stroke-miterlimit="10" d="M245.266-216.839     c-2.739,0-4.959,2.221-4.959,4.959c0,2.739,2.22,4.96,4.959,4.96"></path>
		</g>
	</g>
</pattern>
<rect x="321.274" y="138.5" fill="#FFFFFF" width="113.386" height="113.386"></rect>
<pattern id="SVGID_3_" xlink:href="#Unnamed_Pattern" patternTransform="matrix(0.5601 -0.3891 -0.3922 -0.5557 -2471.813 -6753.7827)">
</pattern>
<rect fill="url(#SVGID_3_)" width="339.66" height="113.001"></rect>
<g>
	<rect x="80.314" y="161.601" fill="#FFFFFF" width="68.031" height="68.032"></rect>
	<g>
		
			<rect x="80.314" y="161.602" fill="none" stroke="#010101" stroke-width="0.2631" stroke-miterlimit="10" width="68.031" height="68.03"></rect>
		<g>
			<path fill="#231F20" d="M131.552,196.257c0,1.992-0.455,3.474-1.366,4.443c-0.91,0.969-2.314,1.453-4.21,1.453     c-1.769,0-3.112-0.484-4.028-1.453c-0.917-0.97-1.375-2.426-1.375-4.375V189.5h3.764v6.965c0,0.797,0.148,1.411,0.446,1.843     c0.298,0.431,0.725,0.646,1.279,0.646c0.561,0,0.988-0.203,1.28-0.607c0.292-0.403,0.438-1.003,0.438-1.795V189.5h3.772V196.257z     "></path>
			<polygon fill="#231F20" points="133.497,201.937 133.497,189.5 137.244,189.5 137.244,199.005 141.528,199.005 141.528,201.937         "></polygon>
			<polygon fill="#231F20" points="87.131,218.274 87.131,205.839 90.878,205.839 90.878,215.345 95.162,215.345 95.162,218.274         "></polygon>
			<rect x="97.107" y="205.839" fill="#231F20" width="3.747" height="12.436"></rect>
			<polygon fill="#231F20" points="106.546,208.771 106.546,211.007 110.24,211.007 110.24,213.938 106.546,213.938      106.546,218.274 102.799,218.274 102.799,205.839 110.597,205.839 110.597,208.771    "></polygon>
			<polygon fill="#231F20" points="112.542,218.274 112.542,205.839 120.286,205.839 120.286,208.771 116.288,208.771      116.288,210.583 120.043,210.583 120.043,213.515 116.288,213.515 116.288,215.345 120.572,215.345 120.572,218.274    "></polygon>
			<path fill="#231F20" d="M96.281,181.84c0,0.826-0.222,1.546-0.664,2.16c-0.444,0.612-1.062,1.069-1.861,1.369     c-0.797,0.3-1.757,0.451-2.878,0.451c-1.302,0-2.492-0.22-3.573-0.658v-3.408c0.521,0.381,1.095,0.688,1.726,0.922     c0.629,0.235,1.217,0.353,1.761,0.353c0.411,0,0.728-0.074,0.954-0.222c0.225-0.146,0.337-0.362,0.337-0.646     c0-0.201-0.056-0.38-0.168-0.534c-0.113-0.152-0.283-0.296-0.513-0.429c-0.228-0.133-0.651-0.313-1.27-0.547     c-2.001-0.769-3-2.011-3-3.728c0-1.203,0.457-2.165,1.37-2.884c0.913-0.72,2.139-1.08,3.678-1.08     c0.434,0,0.832,0.017,1.196,0.051c0.365,0.035,0.696,0.078,0.994,0.132c0.297,0.052,0.715,0.149,1.253,0.296v3.163     c-1.047-0.571-2.076-0.857-3.088-0.857c-0.417,0-0.75,0.078-1.005,0.234c-0.254,0.155-0.382,0.37-0.382,0.642     c0,0.261,0.102,0.476,0.308,0.646c0.206,0.17,0.635,0.391,1.288,0.663c1.29,0.519,2.202,1.089,2.737,1.708     C96.013,180.256,96.281,180.988,96.281,181.84"></path>
			<polygon fill="#231F20" points="97.798,185.603 97.798,173.168 105.543,173.168 105.543,176.098 101.545,176.098      101.545,177.911 105.3,177.911 105.3,180.843 101.545,180.843 101.545,182.672 105.829,182.672 105.829,185.603    "></polygon>
			<path fill="#231F20" d="M119.428,179.351c0,1.249-0.268,2.367-0.807,3.352c-0.538,0.987-1.29,1.752-2.255,2.299     c-0.966,0.546-2.045,0.819-3.244,0.819c-1.167,0-2.229-0.265-3.187-0.793c-0.957-0.529-1.701-1.272-2.233-2.229     c-0.532-0.957-0.798-2.04-0.798-3.248c0-1.266,0.269-2.405,0.807-3.417s1.292-1.794,2.262-2.346     c0.973-0.551,2.077-0.828,3.314-0.828c1.19,0,2.256,0.266,3.196,0.793c0.939,0.53,1.666,1.283,2.176,2.264     C119.172,176.996,119.428,178.107,119.428,179.351 M115.456,179.455c0-1.024-0.196-1.83-0.589-2.42     c-0.394-0.59-0.931-0.884-1.613-0.884c-0.746,0-1.327,0.282-1.744,0.849c-0.416,0.567-0.624,1.368-0.624,2.402     c0,1.014,0.206,1.801,0.62,2.368c0.413,0.565,0.976,0.85,1.686,0.85c0.435,0,0.824-0.126,1.171-0.382     c0.347-0.253,0.616-0.617,0.807-1.092C115.36,180.672,115.456,180.108,115.456,179.455"></path>
			<rect x="133.499" y="215.345" fill="#221F1F" width="8.03" height="2.93"></rect>
			<rect x="133.499" y="173.326" fill="#221F1F" width="8.03" height="2.932"></rect>
			<path fill="#231F20" d="M91.146,193.515c2.218,0,4.015-1.798,4.015-4.015h-8.029C87.132,191.717,88.929,193.515,91.146,193.515"></path>
		</g>
	</g>
</g>
<g>
	
		<rect x="399.789" y="-100.973" fill="none" stroke="#010101" stroke-width="0.2959" stroke-miterlimit="10" width="76.514" height="76.513"></rect>
	<g>
		<path fill="#231F20" d="M457.415-61.998c0,2.242-0.511,3.908-1.536,4.998c-1.023,1.09-2.603,1.635-4.735,1.635    c-1.989,0-3.5-0.545-4.529-1.635c-1.031-1.09-1.547-2.729-1.547-4.92v-7.678h4.232v7.834c0,0.896,0.168,1.587,0.502,2.072    c0.336,0.484,0.814,0.727,1.439,0.727c0.631,0,1.111-0.229,1.439-0.684c0.328-0.453,0.492-1.127,0.492-2.018v-7.932h4.242V-61.998    z"></path>
		<polygon fill="#231F20" points="459.604,-55.609 459.604,-69.595 463.817,-69.595 463.817,-58.906 468.636,-58.906     468.636,-55.609   "></polygon>
		<polygon fill="#231F20" points="407.456,-37.234 407.456,-51.22 411.671,-51.22 411.671,-40.529 416.488,-40.529 416.488,-37.234       "></polygon>
		<rect x="418.677" y="-51.22" fill="#231F20" width="4.213" height="13.986"></rect>
		<polygon fill="#231F20" points="429.292,-47.923 429.292,-45.408 433.446,-45.408 433.446,-42.111 429.292,-42.111     429.292,-37.234 425.077,-37.234 425.077,-51.22 433.848,-51.22 433.848,-47.923   "></polygon>
		<polygon fill="#231F20" points="436.036,-37.234 436.036,-51.22 444.745,-51.22 444.745,-47.923 440.248,-47.923 440.248,-45.884     444.472,-45.884 444.472,-42.587 440.248,-42.587 440.248,-40.529 445.065,-40.529 445.065,-37.234   "></polygon>
		<path fill="#231F20" d="M417.747-78.211c0,0.93-0.249,1.739-0.746,2.429c-0.5,0.689-1.195,1.202-2.094,1.54    c-0.896,0.338-1.976,0.508-3.236,0.508c-1.465,0-2.803-0.248-4.02-0.742v-3.833c0.586,0.43,1.232,0.776,1.941,1.039    c0.707,0.264,1.369,0.396,1.979,0.396c0.462,0,0.819-0.083,1.073-0.249c0.254-0.165,0.379-0.408,0.379-0.727    c0-0.227-0.062-0.428-0.189-0.6c-0.126-0.173-0.318-0.333-0.576-0.482c-0.256-0.149-0.732-0.354-1.428-0.615    c-2.25-0.865-3.375-2.263-3.375-4.193c0-1.353,0.514-2.434,1.541-3.244c1.027-0.809,2.406-1.214,4.137-1.214    c0.486,0,0.936,0.02,1.345,0.059c0.41,0.039,0.782,0.087,1.118,0.146c0.334,0.059,0.804,0.169,1.408,0.333v3.559    c-1.177-0.643-2.334-0.966-3.473-0.966c-0.469,0-0.844,0.089-1.131,0.264c-0.286,0.175-0.43,0.416-0.43,0.722    c0,0.293,0.115,0.534,0.346,0.726c0.231,0.192,0.715,0.441,1.449,0.747c1.45,0.584,2.477,1.225,3.078,1.921    C417.445-79.993,417.747-79.168,417.747-78.211"></path>
		<polygon fill="#231F20" points="419.454,-73.979 419.454,-87.965 428.164,-87.965 428.164,-84.669 423.667,-84.669     423.667,-82.629 427.89,-82.629 427.89,-79.333 423.667,-79.333 423.667,-77.275 428.485,-77.275 428.485,-73.979   "></polygon>
		<path fill="#231F20" d="M443.78-81.011c0,1.404-0.303,2.662-0.908,3.77c-0.604,1.109-1.45,1.971-2.535,2.585    c-1.087,0.614-2.302,0.922-3.648,0.922c-1.314,0-2.508-0.298-3.584-0.893s-1.914-1.431-2.512-2.506    c-0.599-1.077-0.898-2.294-0.898-3.653c0-1.425,0.303-2.706,0.908-3.843c0.605-1.138,1.453-2.018,2.545-2.639    c1.094-0.621,2.335-0.932,3.727-0.932c1.338,0,2.537,0.298,3.594,0.893c1.057,0.594,1.873,1.443,2.447,2.545    C443.493-83.66,443.78-82.409,443.78-81.011 M439.312-80.894c0-1.151-0.221-2.058-0.662-2.721    c-0.442-0.663-1.047-0.995-1.814-0.995c-0.839,0-1.492,0.318-1.961,0.956c-0.468,0.637-0.701,1.538-0.701,2.702    c0,1.139,0.23,2.026,0.696,2.664c0.465,0.636,1.098,0.955,1.896,0.955c0.489,0,0.927-0.143,1.317-0.429    c0.391-0.286,0.693-0.695,0.908-1.229C439.206-79.525,439.312-80.159,439.312-80.894"></path>
		<rect x="459.604" y="-40.529" fill="#221F1F" width="9.031" height="3.295"></rect>
		<rect x="459.604" y="-87.787" fill="#221F1F" width="9.031" height="3.296"></rect>
		<path fill="#231F20" d="M411.972-65.082c2.494,0,4.516-2.021,4.516-4.514h-9.03C407.457-67.103,409.478-65.082,411.972-65.082"></path>
	</g>
</g>
<g>
	<defs>
		<rect id="SVGID_4_" x="342.535" y="164.76" width="70.865" height="70.865"></rect>
	</defs>
	<clipPath id="SVGID_5_">
		<use xlink:href="#SVGID_4_"></use>
	</clipPath>
	<rect x="342.535" y="164.76" clip-path="url(#SVGID_5_)" fill="#FFFFFF" width="70.865" height="70.865"></rect>
	<g clip-path="url(#SVGID_5_)">
		
			<image width="357" height="357" xlink:href="77D4B4C6B92BE886.jpg" transform="matrix(0.2542 0 0 0.2542 332.584 154.8086)">
		</image>
	</g>
</g>
<rect x="-125.601" y="116.156" fill="none" stroke="#010101" stroke-width="0.2959" stroke-miterlimit="10" width="76.514" height="76.513"></rect>
<g>
	<path fill="#231F20" d="M-67.975,155.132c0,2.242-0.511,3.908-1.537,4.998c-1.023,1.09-2.603,1.635-4.735,1.635   c-1.989,0-3.5-0.545-4.53-1.635c-1.031-1.09-1.547-2.729-1.547-4.92v-7.677h4.233v7.833c0,0.896,0.167,1.587,0.502,2.072   c0.335,0.484,0.814,0.727,1.438,0.727c0.631,0,1.111-0.229,1.439-0.684c0.329-0.453,0.493-1.127,0.493-2.018v-7.931h4.243V155.132z   "></path>
	<polygon fill="#231F20" points="-65.787,161.521 -65.787,147.533 -61.573,147.533 -61.573,158.224 -56.754,158.224    -56.754,161.521  "></polygon>
	<polygon fill="#231F20" points="-117.934,179.896 -117.934,165.909 -113.72,165.909 -113.72,176.601 -108.902,176.601    -108.902,179.896  "></polygon>
	<rect x="-106.714" y="165.909" fill="#231F20" width="4.214" height="13.986"></rect>
	<polygon fill="#231F20" points="-96.098,169.206 -96.098,171.722 -91.944,171.722 -91.944,175.019 -96.098,175.019    -96.098,179.896 -100.312,179.896 -100.312,165.909 -91.542,165.909 -91.542,169.206  "></polygon>
	<polygon fill="#231F20" points="-89.354,179.896 -89.354,165.909 -80.646,165.909 -80.646,169.206 -85.142,169.206    -85.142,171.245 -80.918,171.245 -80.918,174.542 -85.142,174.542 -85.142,176.601 -80.324,176.601 -80.324,179.896  "></polygon>
	<path fill="#231F20" d="M-107.643,138.918c0,0.93-0.249,1.739-0.747,2.43c-0.499,0.689-1.195,1.201-2.093,1.539   c-0.896,0.338-1.976,0.509-3.237,0.509c-1.465,0-2.803-0.247-4.019-0.741v-3.834c0.585,0.43,1.232,0.775,1.941,1.039   c0.708,0.264,1.369,0.395,1.98,0.395c0.462,0,0.819-0.083,1.073-0.248c0.253-0.166,0.379-0.408,0.379-0.727   c0-0.228-0.062-0.428-0.189-0.601s-0.318-0.333-0.576-0.482c-0.256-0.149-0.733-0.354-1.429-0.615   c-2.25-0.864-3.375-2.263-3.375-4.193c0-1.353,0.514-2.434,1.541-3.243c1.027-0.81,2.406-1.215,4.136-1.215   c0.487,0,0.936,0.02,1.345,0.059c0.41,0.039,0.783,0.088,1.118,0.146c0.334,0.059,0.804,0.169,1.409,0.332v3.56   c-1.177-0.644-2.335-0.966-3.474-0.966c-0.468,0-0.844,0.089-1.131,0.264c-0.286,0.176-0.429,0.416-0.429,0.723   c0,0.293,0.114,0.533,0.346,0.726c0.231,0.192,0.714,0.44,1.449,0.747c1.45,0.584,2.476,1.225,3.078,1.92   C-107.945,137.137-107.643,137.961-107.643,138.918"></path>
	<polygon fill="#231F20" points="-105.937,143.15 -105.937,129.164 -97.226,129.164 -97.226,132.461 -101.723,132.461    -101.723,134.5 -97.5,134.5 -97.5,137.797 -101.723,137.797 -101.723,139.854 -96.905,139.854 -96.905,143.15  "></polygon>
	<path fill="#231F20" d="M-81.61,136.119c0,1.403-0.302,2.661-0.907,3.77c-0.604,1.109-1.451,1.971-2.536,2.585   c-1.086,0.614-2.301,0.922-3.648,0.922c-1.313,0-2.507-0.298-3.584-0.894c-1.076-0.594-1.914-1.43-2.511-2.506   c-0.599-1.077-0.898-2.295-0.898-3.652c0-1.426,0.303-2.707,0.908-3.844c0.605-1.138,1.453-2.018,2.544-2.639   c1.094-0.621,2.335-0.932,3.727-0.932c1.338,0,2.538,0.299,3.594,0.893c1.057,0.595,1.874,1.443,2.447,2.545   C-81.897,133.47-81.61,134.721-81.61,136.119 M-86.078,136.235c0-1.151-0.221-2.058-0.663-2.722   c-0.442-0.662-1.047-0.994-1.814-0.994c-0.839,0-1.493,0.318-1.961,0.955c-0.468,0.638-0.702,1.538-0.702,2.702   c0,1.139,0.231,2.026,0.697,2.663c0.465,0.637,1.098,0.955,1.896,0.955c0.489,0,0.927-0.143,1.318-0.429   c0.39-0.286,0.693-0.695,0.907-1.229C-86.185,137.604-86.078,136.971-86.078,136.235"></path>
	<rect x="-65.785" y="176.601" fill="#221F1F" width="9.031" height="3.295"></rect>
	<rect x="-65.785" y="129.343" fill="#221F1F" width="9.031" height="3.296"></rect>
	<path fill="#231F20" d="M-113.418,152.048c2.494,0,4.515-2.021,4.515-4.515h-9.03   C-117.933,150.027-115.912,152.048-113.418,152.048"></path>
</g>
<text transform="matrix(1 0 0 1 341.2451 241.8672)" fill="#999999" font-family="'mplus-1c-light'" font-size="7.2587">www.seoulperlife.com</text>
<text transform="matrix(1 0 0 1 347.4922 152)"><tspan x="0" y="0" font-family="'PTSans-BoldItalic'" font-size="8">Enjoy </tspan><tspan x="0" y="7" font-family="'PTSans-BoldItalic'" font-size="8">Korean Beauty Shop</tspan><tspan x="0" y="14" font-family="'PTSans-BoldItalic'" font-size="8">in your home!</tspan></text>
</svg>